<svg width="16" height="14" viewBox="0 0 16 14" fill="none" xmlns="http://www.w3.org/2000/svg">
<path fill-rule="evenodd" clip-rule="evenodd" d="M5.08644 3.69922C5.42567 3.69922 5.71977 3.93395 5.79498 4.26474L6.19703 6.0328C6.38297 6.85058 7.02154 7.48916 7.83933 7.6751L9.60737 8.07715C9.93814 8.15236 10.1729 8.44647 10.1729 8.7857C10.1729 9.12493 9.93814 9.41904 9.60737 9.49425L7.83933 9.8963C7.02154 10.0822 6.38297 10.7208 6.19703 11.5386L5.79498 13.3067C5.71977 13.6374 5.42567 13.8722 5.08644 13.8722C4.74721 13.8722 4.4531 13.6374 4.3779 13.3067L3.97585 11.5386C3.7899 10.7208 3.15134 10.0822 2.33355 9.8963L0.565503 9.49425C0.234739 9.41904 0 9.12493 0 8.7857C0 8.44647 0.234739 8.15236 0.565503 8.07715L2.33355 7.6751C3.15134 7.48916 3.7899 6.85058 3.97585 6.0328L4.3779 4.26474C4.4531 3.93395 4.74721 3.69922 5.08644 3.69922Z" fill="white"/>
<path fill-rule="evenodd" clip-rule="evenodd" d="M12.3008 0C12.5475 0 12.7614 0.170713 12.8161 0.411289L13.1085 1.69715C13.2437 2.2919 13.7081 2.75632 14.3029 2.89155L15.5887 3.18395C15.8293 3.23865 16 3.45255 16 3.69926C16 3.94597 15.8293 4.15987 15.5887 4.21457L14.3029 4.50697C13.7081 4.6422 13.2437 5.10662 13.1085 5.70138L12.8161 6.98724C12.7614 7.2278 12.5475 7.39852 12.3008 7.39852C12.0541 7.39852 11.8402 7.2278 11.7855 6.98724L11.4931 5.70138C11.3578 5.10662 10.8934 4.6422 10.2987 4.50697L9.01282 4.21457C8.77226 4.15987 8.60154 3.94597 8.60154 3.69926C8.60154 3.45255 8.77226 3.23865 9.01282 3.18395L10.2987 2.89155C10.8934 2.75632 11.3578 2.2919 11.4931 1.69715L11.7855 0.411289C11.8402 0.170713 12.0541 0 12.3008 0Z" fill="white"/>
</svg>
