<svg width="20" height="17" viewBox="0 0 20 17" fill="none" xmlns="http://www.w3.org/2000/svg">
<path fill-rule="evenodd" clip-rule="evenodd" d="M6.35822 4.53326C6.78227 4.53326 7.14991 4.82092 7.24392 5.22629L7.74649 7.39301C7.97893 8.39519 8.77716 9.17774 9.79943 9.40562L12.0095 9.89832C12.423 9.99049 12.7164 10.3509 12.7164 10.7666C12.7164 11.1824 12.423 11.5428 12.0095 11.6349L9.79943 12.1276C8.77716 12.3555 7.97893 13.1381 7.74649 14.1403L7.24392 16.307C7.14991 16.7123 6.78227 17 6.35822 17C5.93417 17 5.56653 16.7123 5.47252 16.307L4.96995 14.1403C4.73751 13.1381 3.93928 12.3555 2.91702 12.1276L0.706898 11.6349C0.293432 11.5428 0 11.1824 0 10.7666C0 10.3509 0.293432 9.99049 0.706898 9.89832L2.91702 9.40562C3.93928 9.17774 4.73751 8.39519 4.96995 7.39301L5.47252 5.22629C5.56653 4.82092 5.93417 4.53326 6.35822 4.53326Z" fill="url(#paint0_linear_319_8533)"/>
<path fill-rule="evenodd" clip-rule="evenodd" d="M15.3758 0C15.6842 0 15.9516 0.209205 16.02 0.504026L16.3855 2.07982C16.5545 2.80868 17.1351 3.37781 17.8785 3.54353L19.4859 3.90186C19.7866 3.96889 20 4.23102 20 4.53336C20 4.8357 19.7866 5.09783 19.4859 5.16486L17.8785 5.52319C17.1351 5.68892 16.5545 6.25805 16.3855 6.98691L16.02 8.56271C15.9516 8.85751 15.6842 9.06672 15.3758 9.06672C15.0674 9.06672 14.8001 8.85751 14.7317 8.56271L14.3662 6.98691C14.1971 6.25805 13.6166 5.68892 12.8731 5.52319L11.2658 5.16486C10.9651 5.09783 10.7517 4.8357 10.7517 4.53336C10.7517 4.23102 10.9651 3.96889 11.2658 3.90186L12.8731 3.54353C13.6166 3.37781 14.1971 2.80868 14.3662 2.07982L14.7317 0.504026C14.8001 0.209205 15.0674 0 15.3758 0Z" fill="url(#paint1_linear_319_8533)"/>
<defs>
<linearGradient id="paint0_linear_319_8533" x1="1.23405" y1="-26.704" x2="25.8358" y2="-23.6286" gradientUnits="userSpaceOnUse">
<stop offset="0.0435764" stop-color="#F5333F"/>
<stop offset="0.633518" stop-color="#05317B"/>
<stop offset="1" stop-color="#0763D3"/>
</linearGradient>
<linearGradient id="paint1_linear_319_8533" x1="1.23405" y1="-26.704" x2="25.8358" y2="-23.6286" gradientUnits="userSpaceOnUse">
<stop offset="0.0435764" stop-color="#F5333F"/>
<stop offset="0.633518" stop-color="#05317B"/>
<stop offset="1" stop-color="#0763D3"/>
</linearGradient>
</defs>
</svg>
