<svg width="16" height="14" viewBox="0 0 16 14" fill="none" xmlns="http://www.w3.org/2000/svg">
<path d="M7.43109 4.375H8.40751C8.50103 4.375 8.57529 4.45156 8.57254 4.54453L8.36625 9.90391C8.3635 9.99141 8.28924 10.0625 8.20122 10.0625H7.63737C7.54936 10.0625 7.4751 9.99414 7.47234 9.90391L7.26606 4.54453C7.26331 4.45156 7.33757 4.375 7.43109 4.375ZM7.92067 10.6094C7.49435 10.6094 7.15054 10.9512 7.15054 11.375C7.15054 11.7988 7.49435 12.1406 7.92067 12.1406C8.347 12.1406 8.69081 11.7988 8.69081 11.375C8.69081 10.9512 8.347 10.6094 7.92067 10.6094ZM15.6633 12.0312L9.06488 0.65625C8.55879 -0.21875 7.28531 -0.21875 6.77647 0.65625L0.178042 12.0312C-0.328048 12.9035 0.304565 14 1.32225 14H14.5219C15.534 14 16.1721 12.9062 15.6633 12.0312ZM14.5219 13.125H1.3195C0.981185 13.125 0.769398 12.7613 0.937178 12.4688L7.53836 1.09375C7.70614 0.803906 8.13246 0.801172 8.30024 1.09375L14.9014 12.4688C15.0719 12.7586 14.8602 13.125 14.5219 13.125Z" fill="white"/>
</svg>
