<svg width="12" height="12" viewBox="0 0 12 12" fill="none" xmlns="http://www.w3.org/2000/svg">
<path d="M10.9496 1.54549L9.7264 0.329508C9.51418 0.118529 9.22635 1.56018e-06 8.92622 0L4.86843 0C4.24344 0 3.7368 0.503672 3.7368 1.125V2.25H1.85075C1.22576 2.25 0.719116 2.75367 0.719116 3.375V10.875C0.719116 11.4963 1.22576 12 1.85075 12H7.13169C7.75668 12 8.26332 11.4963 8.26332 10.875V9.75H10.1494C10.7744 9.75 11.281 9.24633 11.281 8.625V2.34098C11.281 2.04262 11.1618 1.75647 10.9496 1.54549ZM9.01774 0.761508C9.08407 0.777777 9.14465 0.811778 9.19293 0.859828L10.4161 2.07584C10.4644 2.12384 10.4986 2.18406 10.515 2.25H9.01774V0.761508ZM7.5089 10.875C7.5089 11.0818 7.33967 11.25 7.13169 11.25H1.85075C1.64276 11.25 1.47354 11.0818 1.47354 10.875V3.375C1.47354 3.16823 1.64276 3 1.85075 3H3.7368V8.625C3.7368 9.24633 4.24344 9.75 4.86843 9.75H7.5089V10.875ZM10.5266 8.625C10.5266 8.83177 10.3574 9 10.1494 9H4.86843C4.66044 9 4.49122 8.83177 4.49122 8.625V1.125C4.49122 0.918234 4.66044 0.75 4.86843 0.75H8.26332V2.4375C8.26332 2.74688 8.51794 3 8.82914 3H10.5266V8.625Z" fill="#0D1722"/>
</svg>
