<svg width="450" height="38" viewBox="0 0 450 38" fill="none" xmlns="http://www.w3.org/2000/svg">
<rect x="1" y="1" width="101" height="36" rx="8" fill="white"/>
<rect x="1" y="1" width="101" height="36" rx="8" stroke="#C3C3C3"/>
<g clip-path="url(#clip0_35_6043)">
<mask id="mask0_35_6043" style="mask-type:luminance" maskUnits="userSpaceOnUse" x="13" y="11" width="24" height="16">
<path d="M13 11H37V27H13V11Z" fill="white"/>
</mask>
<g mask="url(#mask0_35_6043)">
<path fill-rule="evenodd" clip-rule="evenodd" d="M13 11H37V27H13V11Z" fill="#F7FCFF"/>
<path fill-rule="evenodd" clip-rule="evenodd" d="M13 20.778V22.1113H37V20.778H13ZM13 23.222V24.5553H37V23.222H13ZM13 15.8887V17.222H37V15.8887H13ZM13 25.6667V27H37V25.6667H13ZM13 18.3333V19.6667H37V18.3333H13ZM13 11V12.3333H37V11H13ZM13 13.4447V14.778H37V13.4447H13Z" fill="#E31D1C"/>
<path d="M13 11H28V19.6667H13V11Z" fill="#2E42A5"/>
<path fill-rule="evenodd" clip-rule="evenodd" d="M14.2898 12.961L13.7453 13.3003L13.9291 12.6963L13.4453 12.3136H14.0776L14.2891 11.8203L14.5373 12.3136H15.0758L14.6528 12.6963L14.8163 13.3003L14.2898 12.961ZM17.2898 12.961L16.7453 13.3003L16.9291 12.6963L16.4461 12.3136H17.0776L17.2891 11.8203L17.5373 12.3136H18.0758L17.6528 12.6963L17.8163 13.3003L17.2898 12.961ZM19.7453 13.3003L20.2898 12.9603L20.8163 13.3003L20.6528 12.6963L21.0758 12.3136H20.5373L20.2891 11.8203L20.0776 12.3136H19.4461L19.9291 12.6963L19.7453 13.3003ZM23.2898 12.9603L22.7453 13.3003L22.9291 12.6963L22.4461 12.3136H23.0776L23.2891 11.8203L23.5373 12.3136H24.0758L23.6528 12.6963L23.8163 13.3003L23.2898 12.9603ZM13.7453 15.9676L14.2898 15.6276L14.8163 15.9676L14.6528 15.3636L15.0758 14.981H14.5373L14.2891 14.4876L14.0776 14.981H13.4453L13.9291 15.3636L13.7453 15.9676ZM17.2898 15.6276L16.7453 15.9676L16.9291 15.3636L16.4461 14.981H17.0776L17.2891 14.4876L17.5373 14.981H18.0758L17.6528 15.3636L17.8163 15.9676L17.2898 15.6276ZM19.7453 15.9676L20.2898 15.6276L20.8163 15.9676L20.6528 15.3636L21.0758 14.981H20.5373L20.2891 14.4876L20.0776 14.981H19.4461L19.9291 15.3636L19.7453 15.9676ZM23.2898 15.6276L22.7453 15.9676L22.9291 15.3636L22.4461 14.981H23.0776L23.2891 14.4876L23.5373 14.981H24.0758L23.6528 15.3636L23.8163 15.9676L23.2898 15.6276ZM13.7453 18.6343L14.2898 18.2943L14.8163 18.6343L14.6528 18.0303L15.0758 17.6476H14.5373L14.2891 17.1543L14.0776 17.6476H13.4453L13.9291 18.0303L13.7453 18.6336V18.6343ZM17.2898 18.2943L16.7453 18.6343L16.9291 18.0303L16.4461 17.6476H17.0776L17.2891 17.1543L17.5373 17.6476H18.0758L17.6528 18.0303L17.8163 18.6336L17.2898 18.2943ZM19.7453 18.6343L20.2898 18.2943L20.8163 18.6343L20.6528 18.0303L21.0758 17.6476H20.5373L20.2891 17.1543L20.0776 17.6476H19.4461L19.9291 18.0303L19.7453 18.6336V18.6343ZM23.2898 18.2943L22.7453 18.6343L22.9291 18.0303L22.4461 17.6476H23.0776L23.2891 17.1543L23.5373 17.6476H24.0758L23.6528 18.0303L23.8163 18.6336L23.2898 18.2943ZM25.7453 13.301L26.2898 12.961L26.8163 13.301L26.6528 12.697L27.0758 12.3143H26.5373L26.2891 11.821L26.0776 12.3143H25.4453L25.9291 12.697L25.7453 13.301ZM26.2898 15.6276L25.7453 15.9676L25.9291 15.3636L25.4453 14.981H26.0776L26.2891 14.4876L26.5373 14.981H27.0758L26.6528 15.3636L26.8163 15.9676L26.2898 15.6276ZM25.7453 18.6343L26.2898 18.2943L26.8163 18.6343L26.6528 18.0303L27.0758 17.6476H26.5373L26.2891 17.1543L26.0776 17.6476H25.4453L25.9291 18.0303L25.7453 18.6336V18.6343ZM15.7898 14.2936L15.2453 14.6336L15.4291 14.0296L14.9453 13.647H15.5776L15.7891 13.1536L16.0373 13.647H16.5758L16.1528 14.0296L16.3163 14.6336L15.7898 14.2936ZM18.2453 14.6336L18.7898 14.2936L19.3163 14.6336L19.1528 14.0296L19.5758 13.647H19.0373L18.7891 13.1536L18.5776 13.647H17.9453L18.4291 14.0296L18.2453 14.6336ZM21.7898 14.2936L21.2453 14.6336L21.4291 14.0296L20.9461 13.647H21.5776L21.7891 13.1536L22.0373 13.647H22.5758L22.1528 14.0296L22.3163 14.6336L21.7898 14.2936ZM15.2453 17.3003L15.7898 16.9603L16.3163 17.3003L16.1528 16.6963L16.5758 16.3136H16.0373L15.7891 15.8203L15.5776 16.3136H14.9453L15.4291 16.6963L15.2453 17.3003ZM18.7898 16.9603L18.2453 17.3003L18.4291 16.6963L17.9461 16.3136H18.5776L18.7891 15.8203L19.0373 16.3136H19.5758L19.1528 16.6963L19.3163 17.3003L18.7898 16.9603ZM21.2453 17.3003L21.7898 16.9603L22.3163 17.3003L22.1528 16.6963L22.5758 16.3136H22.0373L21.7891 15.8203L21.5776 16.3136H20.9461L21.4291 16.6963L21.2453 17.3003ZM24.7898 14.2936L24.2453 14.6336L24.4291 14.0296L23.9461 13.647H24.5776L24.7891 13.1536L25.0373 13.647H25.5758L25.1528 14.0296L25.3163 14.6336L24.7898 14.2936ZM24.2453 17.3003L24.7898 16.9603L25.3163 17.3003L25.1528 16.6963L25.5758 16.3136H25.0373L24.7891 15.8203L24.5776 16.3136H23.9461L24.4291 16.6963L24.2453 17.3003Z" fill="#F7FCFF"/>
</g>
</g>
<path d="M46.44 24V12.56H53.112V13.696H47.832V17.584H52.088V18.72H47.832V22.864H53.4V24H46.44ZM55.7025 24V12.56H57.5105L63.0785 22.016V12.56H64.4065V24H62.8065L57.0305 14.192V24H55.7025Z" fill="#0D1722"/>
<path d="M88.8999 16.0811L88.6767 15.8592C88.529 15.7123 88.2901 15.7123 88.1423 15.8592L82.0001 21.9686L75.8547 15.8592C75.707 15.7123 75.4681 15.7123 75.3203 15.8592L75.0971 16.0811C74.9494 16.2279 74.9494 16.4654 75.0971 16.6123L81.7297 23.2092C81.8775 23.3561 82.1164 23.3561 82.2641 23.2092L88.8967 16.6123C89.0476 16.4654 89.0476 16.2279 88.8999 16.0811Z" fill="#0D1722"/>
<rect x="114" y="1" width="68" height="36" rx="8" fill="white"/>
<rect x="114" y="1" width="68" height="36" rx="8" stroke="#C3C3C3"/>
<rect x="126" y="9" width="20" height="20" rx="10" fill="#E8EBED"/>
<path d="M136.065 20.9535C138.254 20.9535 140.029 19.2068 140.029 17.0522C140.029 14.8976 138.254 13.1509 136.065 13.1509C133.876 13.1509 132.101 14.8976 132.101 17.0522C132.101 19.2068 133.876 20.9535 136.065 20.9535Z" fill="#79828D"/>
<path d="M136.189 21.9288C140.237 21.9288 143.542 25.0625 143.736 28.9999H128.642C128.835 25.0625 132.14 21.9288 136.189 21.9288Z" fill="#79828D"/>
<path d="M168.9 16.0811L168.677 15.8592C168.529 15.7123 168.29 15.7123 168.142 15.8592L162 21.9686L155.855 15.8592C155.707 15.7123 155.468 15.7123 155.32 15.8592L155.097 16.0811C154.949 16.2279 154.949 16.4654 155.097 16.6123L161.73 23.2092C161.877 23.3561 162.116 23.3561 162.264 23.2092L168.897 16.6123C169.048 16.4654 169.048 16.2279 168.9 16.0811Z" fill="#0D1722"/>
<rect x="194" y="1" width="255" height="36" rx="8" fill="white"/>
<rect x="194" y="1" width="255" height="36" rx="8" stroke="#C3C3C3"/>
<path d="M207.408 26.368V11.584H210.992V12.64H208.736V25.312H210.992V26.368H207.408ZM213.303 24V12.56H216.327C220.263 12.56 222.119 14.992 222.119 18.176V18.32C222.119 21.488 220.295 24 216.295 24H213.303ZM214.695 22.864H216.263C219.207 22.864 220.679 21.104 220.679 18.304V18.176C220.679 15.536 219.399 13.68 216.247 13.68H214.695V22.864ZM227.932 24.144C225.564 24.144 223.884 22.48 223.884 19.904V19.776C223.884 17.248 225.5 15.488 227.804 15.488C229.74 15.488 231.564 16.656 231.564 19.648V20.08H225.26C225.324 21.984 226.236 23.04 227.948 23.04C229.244 23.04 229.996 22.56 230.172 21.584H231.5C231.212 23.264 229.82 24.144 227.932 24.144ZM225.308 19.008H230.204C230.076 17.28 229.18 16.592 227.804 16.592C226.444 16.592 225.532 17.52 225.308 19.008ZM235.936 24.144C234.384 24.144 233.152 23.392 233.152 21.68C233.152 19.744 235.2 19.088 237.344 19.088H238.544V18.48C238.544 17.152 238.032 16.592 236.752 16.592C235.6 16.592 234.96 17.072 234.832 18.096H233.504C233.68 16.192 235.2 15.488 236.816 15.488C238.416 15.488 239.872 16.144 239.872 18.48V24H238.544V22.944C237.92 23.728 237.168 24.144 235.936 24.144ZM236.064 23.088C237.472 23.088 238.544 22.368 238.544 21.072V20.032H237.392C235.712 20.032 234.48 20.448 234.48 21.68C234.48 22.544 234.896 23.088 236.064 23.088ZM242.672 24V11.632H244.016V24H242.672ZM250.318 24.144C247.95 24.144 246.27 22.48 246.27 19.904V19.776C246.27 17.248 247.886 15.488 250.19 15.488C252.126 15.488 253.95 16.656 253.95 19.648V20.08H247.646C247.71 21.984 248.622 23.04 250.334 23.04C251.63 23.04 252.382 22.56 252.558 21.584H253.886C253.598 23.264 252.206 24.144 250.318 24.144ZM247.694 19.008H252.59C252.462 17.28 251.566 16.592 250.19 16.592C248.83 16.592 247.918 17.52 247.694 19.008ZM256.148 24V15.632H257.476V17.136C258.004 16.192 258.724 15.536 260.228 15.488V16.736C258.548 16.816 257.476 17.344 257.476 19.408V24H256.148ZM264.837 24.144C262.837 24.144 261.637 23.136 261.557 21.424H262.853C262.949 22.416 263.477 23.04 264.821 23.04C266.085 23.04 266.645 22.608 266.645 21.712C266.645 20.832 265.989 20.544 264.693 20.304C262.517 19.904 261.781 19.296 261.781 17.84C261.781 16.288 263.301 15.488 264.613 15.488C266.117 15.488 267.413 16.096 267.637 17.904H266.357C266.165 16.992 265.653 16.592 264.597 16.592C263.637 16.592 263.013 17.072 263.013 17.792C263.013 18.544 263.429 18.848 264.965 19.12C266.693 19.44 267.909 19.824 267.909 21.6C267.909 23.12 266.869 24.144 264.837 24.144ZM270.093 24V11.632H271.421V16.96C271.805 16.176 272.733 15.488 274.109 15.488C275.837 15.488 277.053 16.432 277.053 18.864V24H275.725V18.768C275.725 17.296 275.101 16.64 273.757 16.64C272.525 16.64 271.421 17.424 271.421 18.928V24H270.093ZM280.487 13.888C280.007 13.888 279.607 13.488 279.607 13.008C279.607 12.528 280.007 12.128 280.487 12.128C280.967 12.128 281.367 12.528 281.367 13.008C281.367 13.488 280.967 13.888 280.487 13.888ZM279.847 24V15.632H281.175V24H279.847ZM284.053 26.912V15.632H285.381V17.04C285.861 16.224 286.997 15.488 288.213 15.488C290.405 15.488 292.021 17.088 292.021 19.696V19.824C292.021 22.384 290.517 24.144 288.213 24.144C286.837 24.144 285.861 23.456 285.381 22.624V26.912H284.053ZM288.085 23.04C289.749 23.04 290.645 21.92 290.645 19.888V19.76C290.645 17.648 289.477 16.592 288.069 16.592C286.517 16.592 285.333 17.616 285.333 19.76V19.888C285.333 22.032 286.453 23.04 288.085 23.04ZM298.639 24V15.632H299.967V16.96C300.351 16.176 301.279 15.488 302.655 15.488C304.383 15.488 305.599 16.432 305.599 18.864V24H304.271V18.768C304.271 17.296 303.647 16.64 302.303 16.64C301.071 16.64 299.967 17.424 299.967 18.928V24H298.639ZM310.458 24.144C308.906 24.144 307.674 23.392 307.674 21.68C307.674 19.744 309.722 19.088 311.866 19.088H313.066V18.48C313.066 17.152 312.554 16.592 311.274 16.592C310.122 16.592 309.482 17.072 309.354 18.096H308.026C308.202 16.192 309.722 15.488 311.338 15.488C312.938 15.488 314.394 16.144 314.394 18.48V24H313.066V22.944C312.442 23.728 311.69 24.144 310.458 24.144ZM310.586 23.088C311.994 23.088 313.066 22.368 313.066 21.072V20.032H311.914C310.234 20.032 309.002 20.448 309.002 21.68C309.002 22.544 309.418 23.088 310.586 23.088ZM317.162 24V15.632H318.49V16.912C318.874 16.128 319.786 15.488 320.986 15.488C322.058 15.488 323.002 15.936 323.434 17.056C324.01 15.968 325.258 15.488 326.298 15.488C327.802 15.488 329.114 16.384 329.114 18.816V24H327.786V18.72C327.786 17.248 327.162 16.64 326.01 16.64C324.922 16.64 323.802 17.376 323.802 18.88V24H322.474V18.72C322.474 17.248 321.85 16.64 320.698 16.64C319.61 16.64 318.49 17.376 318.49 18.88V24H317.162ZM335.309 24.144C332.941 24.144 331.261 22.48 331.261 19.904V19.776C331.261 17.248 332.877 15.488 335.181 15.488C337.117 15.488 338.941 16.656 338.941 19.648V20.08H332.637C332.701 21.984 333.613 23.04 335.325 23.04C336.621 23.04 337.373 22.56 337.549 21.584H338.877C338.589 23.264 337.197 24.144 335.309 24.144ZM332.685 19.008H337.581C337.453 17.28 336.557 16.592 335.181 16.592C333.821 16.592 332.909 17.52 332.685 19.008ZM340.342 26.368V25.312H342.598V12.64H340.342V11.584H343.926V26.368H340.342Z" fill="#0C0C11"/>
<path d="M435.9 16.0811L435.677 15.8592C435.529 15.7123 435.29 15.7123 435.142 15.8592L429 21.9686L422.855 15.8592C422.707 15.7123 422.468 15.7123 422.32 15.8592L422.097 16.0811C421.949 16.2279 421.949 16.4654 422.097 16.6123L428.73 23.2092C428.877 23.3561 429.116 23.3561 429.264 23.2092L435.897 16.6123C436.048 16.4654 436.048 16.2279 435.9 16.0811Z" fill="#0D1722"/>
<defs>
<clipPath id="clip0_35_6043">
<rect width="24" height="16" fill="white" transform="translate(13 11)"/>
</clipPath>
</defs>
</svg>
