<svg width="24" height="24" viewBox="0 0 24 24" fill="none" xmlns="http://www.w3.org/2000/svg">
<path d="M12 1.875C17.5931 1.875 22.1847 6.37852 22.1847 12C22.1847 17.5918 17.6294 22.125 12 22.125C6.3775 22.125 1.81533 17.5987 1.81533 12C1.81533 6.41236 6.37024 1.875 12 1.875ZM12 0.375C5.54231 0.375 0.306488 5.58202 0.306488 12C0.306488 18.4217 5.54231 23.625 12 23.625C18.4577 23.625 23.6935 18.4217 23.6935 12C23.6935 5.58202 18.4577 0.375 12 0.375ZM10.3026 16.5H10.8684V10.875H10.3026C9.99009 10.875 9.73674 10.6231 9.73674 10.3125V9.9375C9.73674 9.62686 9.99009 9.375 10.3026 9.375H12.5658C12.8783 9.375 13.1316 9.62686 13.1316 9.9375V16.5H13.6975C14.0099 16.5 14.2633 16.7519 14.2633 17.0625V17.4375C14.2633 17.7481 14.0099 18 13.6975 18H10.3026C9.99009 18 9.73674 17.7481 9.73674 17.4375V17.0625C9.73674 16.7519 9.99009 16.5 10.3026 16.5ZM12 5.25C11.1667 5.25 10.4912 5.92158 10.4912 6.75C10.4912 7.57842 11.1667 8.25 12 8.25C12.8333 8.25 13.5088 7.57842 13.5088 6.75C13.5088 5.92158 12.8333 5.25 12 5.25Z" fill="#0D1722"/>
</svg>
