<svg width="120" height="19" viewBox="0 0 120 19" fill="none" xmlns="http://www.w3.org/2000/svg">
<g clip-path="url(#clip0_446_1324)">
<path d="M14.6825 12.6567C13.6753 14.9033 11.64 16.2386 9.26859 16.2386C5.86912 16.2386 3.12026 13.2292 3.12026 9.52005C3.12026 5.81092 5.88997 2.80108 9.26859 2.80108C11.7238 2.80108 13.6961 4.11497 14.6825 6.38299L14.7246 6.48914H17.2845L17.2007 6.23471C16.0671 2.63132 13.0247 0.40625 9.26859 0.40625C4.52618 0.40625 0.686279 4.47555 0.686279 9.49858C0.686279 14.5216 4.52618 18.6124 9.26859 18.6124C12.9825 18.6124 16.0254 16.3658 17.2003 12.7629L17.2841 12.5084H14.745L14.6825 12.6567ZM24.8175 16.3022C22.5933 16.3022 20.7887 14.3101 20.7887 11.8513C20.7887 9.35029 22.5933 7.33671 24.8175 7.33671C27.0417 7.33671 28.9093 9.4139 28.9093 11.8513C28.8885 14.2676 27.0209 16.3022 24.8175 16.3022ZM28.9723 6.97653C28.467 6.35524 27.8333 5.85308 27.1156 5.50524C26.3979 5.15741 25.6135 4.97232 24.8175 4.96295C21.1874 4.96295 18.3335 7.97238 18.3335 11.8302C18.3335 15.6666 21.1874 18.676 24.8175 18.676C25.6154 18.6656 26.4013 18.4779 27.1193 18.1262C27.8374 17.7746 28.47 17.2676 28.9723 16.6413V18.3579H31.3433V5.28099H28.9723V6.97653ZM39.3801 4.96295C38.7366 4.95543 38.0983 5.0792 37.5034 5.32683C36.9084 5.57445 36.3691 5.94085 35.9176 6.40405V5.28058H33.5466V18.3575H36.0019V10.4097C36.0019 8.58699 37.3027 7.2731 39.1073 7.2731C40.6392 7.2731 41.6885 8.18427 41.94 9.71047V9.75301L44.374 9.73195V9.66834C44.0387 6.78571 42.1502 4.96295 39.3801 4.96295Z" fill="#EF3945"/>
<path d="M8.72375 7.52812H10.3186V12.2546H8.72375V7.52812Z" fill="#EF3945"/>
<path d="M12.4784 9.18093C12.9884 9.18093 13.4018 8.76337 13.4018 8.24828C13.4018 7.73319 12.9884 7.31562 12.4784 7.31562C11.9685 7.31562 11.5551 7.73319 11.5551 8.24828C11.5551 8.76337 11.9685 9.18093 12.4784 9.18093Z" fill="#EF3945"/>
<path d="M6.54093 9.18093C7.05089 9.18093 7.4643 8.76337 7.4643 8.24828C7.4643 7.73319 7.05089 7.31562 6.54093 7.31562C6.03096 7.31562 5.61755 7.73319 5.61755 8.24828C5.61755 8.76337 6.03096 9.18093 6.54093 9.18093Z" fill="#EF3945"/>
<path d="M95.0697 18.5586C91.9896 18.5586 89.754 16.3005 89.754 13.1895V5.42507H91.9078V13.1891C91.9078 15.1246 93.1788 16.4252 95.0697 16.4252C96.9483 16.4252 98.2103 15.1246 98.2103 13.1891V5.42507H100.385V13.1891C100.385 16.3009 98.1494 18.5586 95.0697 18.5586ZM70.0147 18.5586C66.9346 18.5586 64.6989 16.3005 64.6989 13.1895V5.42507H66.8528V13.1891C66.8528 15.1246 68.1238 16.4252 70.0147 16.4252C71.8933 16.4252 73.1553 15.1246 73.1553 13.1891V5.42507H75.3304V13.1891C75.3304 16.3009 73.0948 18.5586 70.0147 18.5586ZM108.037 10.0735C105.477 9.67075 105.016 9.33164 105.016 8.63235C105.016 7.74225 106.191 7.04296 107.681 7.04296C109.234 7.04296 110.262 7.74225 110.514 8.92933L110.556 9.07762H113.032L113.011 8.86572C112.738 6.3222 110.703 4.73281 107.702 4.73281C104.177 4.73281 102.582 6.78853 102.582 8.69638C102.582 11.2184 104.513 12.0028 107.64 12.4476C110.661 12.8504 110.892 13.465 110.892 14.2279C110.892 15.1605 109.885 16.1142 107.934 16.1142C106.15 16.1142 104.849 15.2452 104.597 13.8677L104.576 13.7194H102.121L102.142 13.9313C102.498 16.6652 104.765 18.4459 107.933 18.4459C111.123 18.4459 113.263 16.7078 113.263 14.1221C113.283 11.1544 111.017 10.5398 108.037 10.0735ZM53.6683 9.7769V11.9598H59.0614L59.1243 11.8537C59.2797 11.5162 59.3926 11.1602 59.4601 10.7938C59.5288 10.4584 59.5709 10.1185 59.586 9.77649H53.6683V9.7769Z" fill="#28B2FF"/>
<path d="M60.5518 9.77594C60.4258 13.4215 57.8238 16.1769 54.5294 16.1769C51.0882 16.1769 48.2764 13.1674 48.2764 9.50044C48.2764 5.81237 51.0882 2.80294 54.5294 2.80294C56.8587 2.80294 58.8522 4.13831 59.8803 6.38485L59.9224 6.491H62.5453L62.4615 6.23657C61.2236 2.63359 58.1178 0.323437 54.5298 0.323437C49.7244 0.323437 45.8215 4.43528 45.8215 9.47937C45.8215 14.5235 49.7244 18.6353 54.5298 18.6353C55.6153 18.639 56.6906 18.4234 57.6924 18.0012C58.6942 17.579 59.6023 16.9588 60.3633 16.1769C61.1824 15.332 61.8269 14.3309 62.2592 13.232C62.6916 12.1331 62.9031 10.9582 62.8815 9.77594H60.5518ZM83.3818 4.96481C82.7383 4.95729 82.1 5.08106 81.505 5.32869C80.9101 5.57631 80.3707 5.94271 79.9193 6.40592V5.28244H77.5483V18.3594H80.0036V10.4116C80.0036 8.58885 81.3044 7.27496 83.109 7.27496C84.6409 7.27496 85.6902 8.18613 85.9417 9.71233V9.75487L88.3757 9.73381V9.6702C88.0404 6.78757 86.1519 4.96481 83.3818 4.96481ZM117.334 5.07096C117.311 5.02911 117.285 4.98943 117.255 4.95242C117.227 4.9181 117.194 4.88843 117.157 4.86444C117.363 4.82769 117.552 4.72021 117.689 4.56002C117.81 4.40596 117.872 4.21431 117.867 4.01811C117.874 3.89911 117.853 3.78006 117.805 3.67119C117.757 3.56232 117.683 3.46691 117.59 3.39318C117.334 3.23242 117.034 3.1582 116.734 3.18128H115.771V6.20146H116.294V5.00363H116.559C116.604 5.00083 116.648 5.00891 116.689 5.02718C116.717 5.04411 116.742 5.06724 116.761 5.09492L117.438 6.1172C117.454 6.14498 117.478 6.16761 117.506 6.18256C117.535 6.19752 117.567 6.2042 117.599 6.20187H118.098L117.334 5.07178V5.07096H117.334ZM116.681 4.61702H116.295V3.58772H116.734C116.833 3.58565 116.932 3.59598 117.028 3.61787C117.097 3.63357 117.163 3.66455 117.219 3.70915C117.267 3.75005 117.304 3.80415 117.324 3.86487C117.346 3.93592 117.357 4.01026 117.356 4.08502C117.36 4.15789 117.349 4.2309 117.323 4.29901C117.297 4.36712 117.257 4.4287 117.205 4.47948C117.052 4.58722 116.866 4.63603 116.681 4.61702Z" fill="#28B2FF"/>
<path d="M54.4241 8.26988C54.9571 8.26988 55.3892 7.83345 55.3892 7.29509C55.3892 6.75674 54.9571 6.32031 54.4241 6.32031C53.8911 6.32031 53.459 6.75674 53.459 7.29509C53.459 7.83345 53.8911 8.26988 54.4241 8.26988Z" fill="#28B2FF"/>
<path d="M58.0959 8.26988C58.6289 8.26988 59.061 7.83345 59.061 7.29509C59.061 6.75674 58.6289 6.32031 58.0959 6.32031C57.5629 6.32031 57.1309 6.75674 57.1309 7.29509C57.1309 7.83345 57.5629 8.26988 58.0959 8.26988Z" fill="#28B2FF"/>
<path d="M116.823 7.20578C116.331 7.2057 115.85 7.05816 115.44 6.78182C115.031 6.50548 114.712 6.11275 114.523 5.65328C114.335 5.19381 114.286 4.68824 114.382 4.20049C114.478 3.71275 114.715 3.26472 115.063 2.91307C115.411 2.56142 115.855 2.32194 116.338 2.2249C116.821 2.12786 117.321 2.17762 117.776 2.3679C118.231 2.55817 118.62 2.88041 118.893 3.29387C119.167 3.70733 119.313 4.19345 119.313 4.69076C119.313 5.35762 119.05 5.997 118.583 6.46854C118.116 6.94008 117.483 7.20523 116.823 7.20578ZM116.823 2.58382C116.411 2.58399 116.007 2.70773 115.664 2.93941C115.321 3.17108 115.054 3.50029 114.896 3.88539C114.738 4.2705 114.697 4.69421 114.778 5.10295C114.858 5.51169 115.057 5.88711 115.349 6.18173C115.641 6.47635 116.013 6.67694 116.418 6.75814C116.822 6.83934 117.242 6.7975 117.623 6.63791C118.004 6.47832 118.33 6.20815 118.559 5.86156C118.788 5.51498 118.91 5.10753 118.91 4.69076C118.91 4.13192 118.69 3.59614 118.298 3.2011C117.907 2.80605 117.376 2.58404 116.823 2.58382Z" fill="#28B2FF"/>
</g>
<defs>
<clipPath id="clip0_446_1324">
<rect width="119" height="19" fill="white" transform="translate(0.5)"/>
</clipPath>
</defs>
</svg>
