<svg width="230" height="676" viewBox="0 0 230 676" fill="none" xmlns="http://www.w3.org/2000/svg">
<g clip-path="url(#clip0_19_10304)">
<path d="M21.26 15V4.99H23.906C27.35 4.99 28.974 7.118 28.974 9.904V10.03C28.974 12.802 27.378 15 23.878 15H21.26ZM22.478 14.006H23.85C26.426 14.006 27.714 12.466 27.714 10.016V9.904C27.714 7.594 26.594 5.97 23.836 5.97H22.478V14.006ZM32.958 15.126C31.6 15.126 30.522 14.468 30.522 12.97C30.522 11.276 32.314 10.702 34.19 10.702H35.24V10.17C35.24 9.008 34.792 8.518 33.672 8.518C32.664 8.518 32.104 8.938 31.992 9.834H30.83C30.984 8.168 32.314 7.552 33.728 7.552C35.128 7.552 36.402 8.126 36.402 10.17V15H35.24V14.076C34.694 14.762 34.036 15.126 32.958 15.126ZM33.07 14.202C34.302 14.202 35.24 13.572 35.24 12.438V11.528H34.232C32.762 11.528 31.684 11.892 31.684 12.97C31.684 13.726 32.048 14.202 33.07 14.202ZM41.1526 15.126C39.4026 15.126 38.3526 14.244 38.2826 12.746H39.4166C39.5006 13.614 39.9626 14.16 41.1386 14.16C42.2446 14.16 42.7346 13.782 42.7346 12.998C42.7346 12.228 42.1606 11.976 41.0266 11.766C39.1226 11.416 38.4786 10.884 38.4786 9.61C38.4786 8.252 39.8086 7.552 40.9566 7.552C42.2726 7.552 43.4066 8.084 43.6026 9.666H42.4826C42.3146 8.868 41.8666 8.518 40.9426 8.518C40.1026 8.518 39.5566 8.938 39.5566 9.568C39.5566 10.226 39.9206 10.492 41.2646 10.73C42.7766 11.01 43.8406 11.346 43.8406 12.9C43.8406 14.23 42.9306 15.126 41.1526 15.126ZM45.8112 15V4.178H46.9732V8.84C47.3092 8.154 48.1212 7.552 49.3252 7.552C50.8372 7.552 51.9012 8.378 51.9012 10.506V15H50.7392V10.422C50.7392 9.134 50.1932 8.56 49.0172 8.56C47.9392 8.56 46.9732 9.246 46.9732 10.562V15H45.8112ZM58.0183 15.126C56.8283 15.126 55.9603 14.524 55.5403 13.796V15H54.3783V4.178H55.5403V8.91C55.9603 8.196 56.9543 7.552 58.0183 7.552C59.9363 7.552 61.3503 8.952 61.3503 11.234V11.346C61.3503 13.586 60.0343 15.126 58.0183 15.126ZM57.9063 14.16C59.3623 14.16 60.1463 13.18 60.1463 11.402V11.29C60.1463 9.442 59.1243 8.518 57.8923 8.518C56.5343 8.518 55.4983 9.414 55.4983 11.29V11.402C55.4983 13.278 56.4783 14.16 57.9063 14.16ZM66.3937 15.126C64.3077 15.126 62.8097 13.544 62.8097 11.402V11.29C62.8097 9.092 64.3357 7.552 66.4077 7.552C68.4797 7.552 70.0057 9.078 70.0057 11.276V11.388C70.0057 13.6 68.4797 15.126 66.3937 15.126ZM66.4077 14.16C67.8777 14.16 68.8017 13.054 68.8017 11.402V11.304C68.8017 9.61 67.8637 8.518 66.4077 8.518C64.9377 8.518 64.0137 9.61 64.0137 11.29V11.402C64.0137 13.068 64.9237 14.16 66.4077 14.16ZM73.8389 15.126C72.4809 15.126 71.4029 14.468 71.4029 12.97C71.4029 11.276 73.1949 10.702 75.0709 10.702H76.1209V10.17C76.1209 9.008 75.6729 8.518 74.5529 8.518C73.5449 8.518 72.9849 8.938 72.8729 9.834H71.7109C71.8649 8.168 73.1949 7.552 74.6089 7.552C76.0089 7.552 77.2829 8.126 77.2829 10.17V15H76.1209V14.076C75.5749 14.762 74.9169 15.126 73.8389 15.126ZM73.9509 14.202C75.1829 14.202 76.1209 13.572 76.1209 12.438V11.528H75.1129C73.6429 11.528 72.5649 11.892 72.5649 12.97C72.5649 13.726 72.9289 14.202 73.9509 14.202ZM79.7655 15V7.678H80.9275V8.994C81.3895 8.168 82.0195 7.594 83.3355 7.552V8.644C81.8655 8.714 80.9275 9.176 80.9275 10.982V15H79.7655ZM87.782 15.126C85.864 15.126 84.478 13.768 84.478 11.486V11.374C84.478 9.134 85.878 7.552 87.894 7.552C89.112 7.552 89.868 8.14 90.288 8.854V4.178H91.45V15H90.288V13.74C89.868 14.454 88.846 15.126 87.782 15.126ZM87.908 14.16C89.266 14.16 90.33 13.264 90.33 11.388V11.276C90.33 9.4 89.434 8.518 88.006 8.518C86.55 8.518 85.682 9.54 85.682 11.318V11.43C85.682 13.278 86.676 14.16 87.908 14.16Z" fill="white"/>
<path d="M21.33 55V44.99H22.548V55H21.33ZM25.2588 55V47.678H26.4208V48.84C26.7568 48.154 27.5688 47.552 28.7728 47.552C30.2848 47.552 31.3488 48.378 31.3488 50.506V55H30.1868V50.422C30.1868 49.134 29.6408 48.56 28.4648 48.56C27.3868 48.56 26.4208 49.246 26.4208 50.562V55H25.2588ZM35.5233 55L32.8633 47.678H34.1233L36.2933 53.824L38.4353 47.678H39.6393L37.0073 55H35.5233ZM44.1587 55.126C42.0867 55.126 40.6167 53.67 40.6167 51.416V51.304C40.6167 49.092 42.0307 47.552 44.0467 47.552C45.7407 47.552 47.3367 48.574 47.3367 51.192V51.57H41.8207C41.8767 53.236 42.6747 54.16 44.1727 54.16C45.3067 54.16 45.9647 53.74 46.1187 52.886H47.2807C47.0287 54.356 45.8107 55.126 44.1587 55.126ZM41.8627 50.632H46.1467C46.0347 49.12 45.2507 48.518 44.0467 48.518C42.8567 48.518 42.0587 49.33 41.8627 50.632ZM49.3197 55V47.678H50.4817V48.84C50.8177 48.154 51.6297 47.552 52.8337 47.552C54.3457 47.552 55.4097 48.378 55.4097 50.506V55H54.2477V50.422C54.2477 49.134 53.7017 48.56 52.5257 48.56C51.4477 48.56 50.4817 49.246 50.4817 50.562V55H49.3197ZM60.1129 55.098C58.7829 55.098 58.1389 54.314 58.1389 53.166V48.658H57.0889V47.678H58.1389V46.012H59.3009V47.678H61.0089V48.658H59.3009V53.054C59.3009 53.768 59.6229 54.118 60.2109 54.118C60.5749 54.118 60.8549 54.062 61.1069 53.964V54.944C60.8689 55.028 60.5889 55.098 60.1129 55.098ZM66.1015 55.126C64.0155 55.126 62.5175 53.544 62.5175 51.402V51.29C62.5175 49.092 64.0435 47.552 66.1155 47.552C68.1875 47.552 69.7135 49.078 69.7135 51.276V51.388C69.7135 53.6 68.1875 55.126 66.1015 55.126ZM66.1155 54.16C67.5855 54.16 68.5095 53.054 68.5095 51.402V51.304C68.5095 49.61 67.5715 48.518 66.1155 48.518C64.6455 48.518 63.7215 49.61 63.7215 51.29V51.402C63.7215 53.068 64.6315 54.16 66.1155 54.16ZM71.7127 55V47.678H72.8747V48.994C73.3367 48.168 73.9667 47.594 75.2827 47.552V48.644C73.8127 48.714 72.8747 49.176 72.8747 50.982V55H71.7127ZM77.9027 57.548L79.2887 54.244L76.4187 47.678H77.6647L79.9047 52.928L81.9347 47.678H83.1247L79.0787 57.548H77.9027ZM88.844 55V44.99H90.538L93.632 52.788L96.628 44.99H98.308V55H97.09V46.572L93.772 55H93.394L89.964 46.572V55H88.844ZM102.784 55.126C101.426 55.126 100.348 54.468 100.348 52.97C100.348 51.276 102.14 50.702 104.016 50.702H105.066V50.17C105.066 49.008 104.618 48.518 103.498 48.518C102.49 48.518 101.93 48.938 101.818 49.834H100.656C100.81 48.168 102.14 47.552 103.554 47.552C104.954 47.552 106.228 48.126 106.228 50.17V55H105.066V54.076C104.52 54.762 103.862 55.126 102.784 55.126ZM102.896 54.202C104.128 54.202 105.066 53.572 105.066 52.438V51.528H104.058C102.588 51.528 101.51 51.892 101.51 52.97C101.51 53.726 101.874 54.202 102.896 54.202ZM108.711 55V47.678H109.873V48.84C110.209 48.154 111.021 47.552 112.225 47.552C113.737 47.552 114.801 48.378 114.801 50.506V55H113.639V50.422C113.639 49.134 113.093 48.56 111.917 48.56C110.839 48.56 109.873 49.246 109.873 50.562V55H108.711ZM119.112 55.126C117.754 55.126 116.676 54.468 116.676 52.97C116.676 51.276 118.468 50.702 120.344 50.702H121.394V50.17C121.394 49.008 120.946 48.518 119.826 48.518C118.818 48.518 118.258 48.938 118.146 49.834H116.984C117.138 48.168 118.468 47.552 119.882 47.552C121.282 47.552 122.556 48.126 122.556 50.17V55H121.394V54.076C120.848 54.762 120.19 55.126 119.112 55.126ZM119.224 54.202C120.456 54.202 121.394 53.572 121.394 52.438V51.528H120.386C118.916 51.528 117.838 51.892 117.838 52.97C117.838 53.726 118.202 54.202 119.224 54.202ZM127.965 57.674C125.795 57.674 124.843 56.652 124.647 55.42H125.837C126.005 56.26 126.705 56.694 127.951 56.694C129.393 56.694 130.303 56.008 130.303 54.44V53.376C129.883 54.09 128.889 54.762 127.825 54.762C125.907 54.762 124.493 53.306 124.493 51.29V51.192C124.493 49.204 125.893 47.552 127.909 47.552C129.127 47.552 129.883 48.14 130.303 48.854V47.678H131.465V54.51C131.451 56.638 130.009 57.674 127.965 57.674ZM127.951 53.796C129.309 53.796 130.345 52.844 130.345 51.206V51.108C130.345 49.47 129.449 48.518 128.021 48.518C126.565 48.518 125.697 49.596 125.697 51.136V51.248C125.697 52.844 126.719 53.796 127.951 53.796ZM137.012 55.126C134.94 55.126 133.47 53.67 133.47 51.416V51.304C133.47 49.092 134.884 47.552 136.9 47.552C138.594 47.552 140.19 48.574 140.19 51.192V51.57H134.674C134.73 53.236 135.528 54.16 137.026 54.16C138.16 54.16 138.818 53.74 138.972 52.886H140.134C139.882 54.356 138.664 55.126 137.012 55.126ZM134.716 50.632H139C138.888 49.12 138.104 48.518 136.9 48.518C135.71 48.518 134.912 49.33 134.716 50.632ZM142.173 55V47.678H143.335V48.798C143.671 48.112 144.469 47.552 145.519 47.552C146.457 47.552 147.283 47.944 147.661 48.924C148.165 47.972 149.257 47.552 150.167 47.552C151.483 47.552 152.631 48.336 152.631 50.464V55H151.469V50.38C151.469 49.092 150.923 48.56 149.915 48.56C148.963 48.56 147.983 49.204 147.983 50.52V55H146.821V50.38C146.821 49.092 146.275 48.56 145.267 48.56C144.315 48.56 143.335 49.204 143.335 50.52V55H142.173ZM158.111 55.126C156.039 55.126 154.569 53.67 154.569 51.416V51.304C154.569 49.092 155.983 47.552 157.999 47.552C159.693 47.552 161.289 48.574 161.289 51.192V51.57H155.773C155.829 53.236 156.627 54.16 158.125 54.16C159.259 54.16 159.917 53.74 160.071 52.886H161.233C160.981 54.356 159.763 55.126 158.111 55.126ZM155.815 50.632H160.099C159.987 49.12 159.203 48.518 157.999 48.518C156.809 48.518 156.011 49.33 155.815 50.632ZM163.272 55V47.678H164.434V48.84C164.77 48.154 165.582 47.552 166.786 47.552C168.298 47.552 169.362 48.378 169.362 50.506V55H168.2V50.422C168.2 49.134 167.654 48.56 166.478 48.56C165.4 48.56 164.434 49.246 164.434 50.562V55H163.272ZM174.065 55.098C172.735 55.098 172.091 54.314 172.091 53.166V48.658H171.041V47.678H172.091V46.012H173.253V47.678H174.961V48.658H173.253V53.054C173.253 53.768 173.575 54.118 174.163 54.118C174.527 54.118 174.807 54.062 175.059 53.964V54.944C174.821 55.028 174.541 55.098 174.065 55.098Z" fill="white"/>
<path d="M21.26 95V84.99H22.954L26.048 92.788L29.044 84.99H30.724V95H29.506V86.572L26.188 95H25.81L22.38 86.572V95H21.26ZM35.2002 95.126C33.8422 95.126 32.7642 94.468 32.7642 92.97C32.7642 91.276 34.5562 90.702 36.4322 90.702H37.4822V90.17C37.4822 89.008 37.0342 88.518 35.9142 88.518C34.9062 88.518 34.3462 88.938 34.2342 89.834H33.0722C33.2262 88.168 34.5562 87.552 35.9702 87.552C37.3702 87.552 38.6442 88.126 38.6442 90.17V95H37.4822V94.076C36.9362 94.762 36.2782 95.126 35.2002 95.126ZM35.3122 94.202C36.5442 94.202 37.4822 93.572 37.4822 92.438V91.528H36.4742C35.0042 91.528 33.9262 91.892 33.9262 92.97C33.9262 93.726 34.2902 94.202 35.3122 94.202ZM41.1268 95V87.678H42.2888V88.994C42.7508 88.168 43.3808 87.594 44.6968 87.552V88.644C43.2268 88.714 42.2888 89.176 42.2888 90.982V95H41.1268ZM46.5905 95V84.178H47.7525V91.052L50.7905 87.678H52.1485L49.0125 91.08L52.4145 95H51.0005L47.7525 91.206V95H46.5905ZM56.7318 95.126C54.6598 95.126 53.1898 93.67 53.1898 91.416V91.304C53.1898 89.092 54.6038 87.552 56.6198 87.552C58.3138 87.552 59.9098 88.574 59.9098 91.192V91.57H54.3938C54.4498 93.236 55.2478 94.16 56.7458 94.16C57.8798 94.16 58.5378 93.74 58.6918 92.886H59.8538C59.6018 94.356 58.3838 95.126 56.7318 95.126ZM54.4358 90.632H58.7198C58.6078 89.12 57.8238 88.518 56.6198 88.518C55.4298 88.518 54.6318 89.33 54.4358 90.632ZM64.1188 95.098C62.7888 95.098 62.1448 94.314 62.1448 93.166V88.658H61.0948V87.678H62.1448V86.012H63.3068V87.678H65.0148V88.658H63.3068V93.054C63.3068 93.768 63.6288 94.118 64.2168 94.118C64.5808 94.118 64.8608 94.062 65.1128 93.964V94.944C64.8748 95.028 64.5948 95.098 64.1188 95.098ZM67.6574 86.152C67.2374 86.152 66.8874 85.802 66.8874 85.382C66.8874 84.962 67.2374 84.612 67.6574 84.612C68.0774 84.612 68.4274 84.962 68.4274 85.382C68.4274 85.802 68.0774 86.152 67.6574 86.152ZM67.0974 95V87.678H68.2594V95H67.0974ZM70.8377 95V87.678H71.9997V88.84C72.3357 88.154 73.1477 87.552 74.3517 87.552C75.8637 87.552 76.9277 88.378 76.9277 90.506V95H75.7657V90.422C75.7657 89.134 75.2197 88.56 74.0437 88.56C72.9657 88.56 71.9997 89.246 71.9997 90.562V95H70.8377ZM82.3309 97.674C80.1609 97.674 79.2089 96.652 79.0129 95.42H80.2029C80.3709 96.26 81.0709 96.694 82.3169 96.694C83.7589 96.694 84.6689 96.008 84.6689 94.44V93.376C84.2489 94.09 83.2549 94.762 82.1909 94.762C80.2729 94.762 78.8589 93.306 78.8589 91.29V91.192C78.8589 89.204 80.2589 87.552 82.2749 87.552C83.4929 87.552 84.2489 88.14 84.6689 88.854V87.678H85.8309V94.51C85.8169 96.638 84.3749 97.674 82.3309 97.674ZM82.3169 93.796C83.6749 93.796 84.7109 92.844 84.7109 91.206V91.108C84.7109 89.47 83.8149 88.518 82.3869 88.518C80.9309 88.518 80.0629 89.596 80.0629 91.136V91.248C80.0629 92.844 81.0849 93.796 82.3169 93.796Z" fill="white"/>
<path d="M21.26 135V124.99H22.478V134.006H27.056V135H21.26ZM31.7275 135.126C29.6555 135.126 28.1855 133.67 28.1855 131.416V131.304C28.1855 129.092 29.5995 127.552 31.6155 127.552C33.3095 127.552 34.9055 128.574 34.9055 131.192V131.57H29.3895C29.4455 133.236 30.2435 134.16 31.7415 134.16C32.8755 134.16 33.5335 133.74 33.6875 132.886H34.8495C34.5975 134.356 33.3795 135.126 31.7275 135.126ZM29.4315 130.632H33.7155C33.6035 129.12 32.8195 128.518 31.6155 128.518C30.4255 128.518 29.6275 129.33 29.4315 130.632ZM38.7909 135.126C37.4329 135.126 36.3549 134.468 36.3549 132.97C36.3549 131.276 38.1469 130.702 40.0229 130.702H41.0729V130.17C41.0729 129.008 40.6249 128.518 39.5049 128.518C38.4969 128.518 37.9369 128.938 37.8249 129.834H36.6629C36.8169 128.168 38.1469 127.552 39.5609 127.552C40.9609 127.552 42.2349 128.126 42.2349 130.17V135H41.0729V134.076C40.5269 134.762 39.8689 135.126 38.7909 135.126ZM38.9029 134.202C40.1349 134.202 41.0729 133.572 41.0729 132.438V131.528H40.0649C38.5949 131.528 37.5169 131.892 37.5169 132.97C37.5169 133.726 37.8809 134.202 38.9029 134.202ZM47.4754 135.126C45.5574 135.126 44.1714 133.768 44.1714 131.486V131.374C44.1714 129.134 45.5714 127.552 47.5874 127.552C48.8054 127.552 49.5614 128.14 49.9814 128.854V124.178H51.1434V135H49.9814V133.74C49.5614 134.454 48.5394 135.126 47.4754 135.126ZM47.6014 134.16C48.9594 134.16 50.0234 133.264 50.0234 131.388V131.276C50.0234 129.4 49.1274 128.518 47.6994 128.518C46.2434 128.518 45.3754 129.54 45.3754 131.318V131.43C45.3754 133.278 46.3694 134.16 47.6014 134.16ZM55.9627 135.126C54.2127 135.126 53.1627 134.244 53.0927 132.746H54.2267C54.3107 133.614 54.7727 134.16 55.9487 134.16C57.0547 134.16 57.5447 133.782 57.5447 132.998C57.5447 132.228 56.9707 131.976 55.8367 131.766C53.9327 131.416 53.2887 130.884 53.2887 129.61C53.2887 128.252 54.6187 127.552 55.7667 127.552C57.0827 127.552 58.2167 128.084 58.4127 129.666H57.2927C57.1247 128.868 56.6767 128.518 55.7527 128.518C54.9127 128.518 54.3667 128.938 54.3667 129.568C54.3667 130.226 54.7307 130.492 56.0747 130.73C57.5867 131.01 58.6507 131.346 58.6507 132.9C58.6507 134.23 57.7407 135.126 55.9627 135.126Z" fill="white"/>
<path d="M26.412 167.537C26.37 167.607 26.3233 167.661 26.272 167.698C26.2253 167.731 26.167 167.747 26.097 167.747C26.0177 167.747 25.9243 167.707 25.817 167.628C25.7097 167.549 25.5743 167.462 25.411 167.369C25.2523 167.271 25.0587 167.182 24.83 167.103C24.606 167.024 24.333 166.984 24.011 166.984C23.7077 166.984 23.4393 167.026 23.206 167.11C22.9773 167.189 22.7837 167.299 22.625 167.439C22.471 167.579 22.3543 167.745 22.275 167.936C22.1957 168.123 22.156 168.326 22.156 168.545C22.156 168.825 22.2237 169.058 22.359 169.245C22.499 169.427 22.681 169.583 22.905 169.714C23.1337 169.845 23.3903 169.959 23.675 170.057C23.9643 170.15 24.2583 170.248 24.557 170.351C24.8603 170.454 25.1543 170.57 25.439 170.701C25.7283 170.827 25.985 170.988 26.209 171.184C26.4377 171.38 26.6197 171.62 26.755 171.905C26.895 172.19 26.965 172.54 26.965 172.955C26.965 173.394 26.8903 173.807 26.741 174.194C26.5917 174.577 26.3723 174.91 26.083 175.195C25.7983 175.48 25.446 175.704 25.026 175.867C24.6107 176.03 24.137 176.112 23.605 176.112C22.9517 176.112 22.359 175.995 21.827 175.762C21.295 175.524 20.84 175.204 20.462 174.803L20.854 174.159C20.8913 174.108 20.9357 174.066 20.987 174.033C21.043 173.996 21.1037 173.977 21.169 173.977C21.2297 173.977 21.2973 174.003 21.372 174.054C21.4513 174.101 21.54 174.161 21.638 174.236C21.736 174.311 21.848 174.392 21.974 174.481C22.1 174.57 22.2423 174.651 22.401 174.726C22.5643 174.801 22.7487 174.864 22.954 174.915C23.1593 174.962 23.3903 174.985 23.647 174.985C23.969 174.985 24.256 174.941 24.508 174.852C24.76 174.763 24.9723 174.64 25.145 174.481C25.3223 174.318 25.4577 174.124 25.551 173.9C25.6443 173.676 25.691 173.426 25.691 173.151C25.691 172.848 25.621 172.6 25.481 172.409C25.3457 172.213 25.166 172.05 24.942 171.919C24.718 171.788 24.4613 171.679 24.172 171.59C23.8827 171.497 23.5887 171.403 23.29 171.31C22.9913 171.212 22.6973 171.1 22.408 170.974C22.1187 170.848 21.862 170.685 21.638 170.484C21.414 170.283 21.232 170.034 21.092 169.735C20.9567 169.432 20.889 169.058 20.889 168.615C20.889 168.26 20.9567 167.917 21.092 167.586C21.232 167.255 21.4327 166.961 21.694 166.704C21.96 166.447 22.2843 166.242 22.667 166.088C23.0543 165.934 23.4977 165.857 23.997 165.857C24.557 165.857 25.0657 165.946 25.523 166.123C25.985 166.3 26.391 166.557 26.741 166.893L26.412 167.537ZM33.2935 171.681C33.2935 171.392 33.2515 171.128 33.1675 170.89C33.0882 170.647 32.9692 170.44 32.8105 170.267C32.6565 170.09 32.4675 169.954 32.2435 169.861C32.0195 169.763 31.7652 169.714 31.4805 169.714C30.8832 169.714 30.4095 169.889 30.0595 170.239C29.7142 170.584 29.4995 171.065 29.4155 171.681H33.2935ZM34.3015 175.006C34.1475 175.193 33.9632 175.356 33.7485 175.496C33.5339 175.631 33.3029 175.743 33.0555 175.832C32.8129 175.921 32.5609 175.986 32.2995 176.028C32.0382 176.075 31.7792 176.098 31.5225 176.098C31.0325 176.098 30.5799 176.016 30.1645 175.853C29.7539 175.685 29.3969 175.442 29.0935 175.125C28.7949 174.803 28.5615 174.406 28.3935 173.935C28.2255 173.464 28.1415 172.922 28.1415 172.311C28.1415 171.816 28.2162 171.354 28.3655 170.925C28.5195 170.496 28.7389 170.125 29.0235 169.812C29.3082 169.495 29.6559 169.247 30.0665 169.07C30.4772 168.888 30.9392 168.797 31.4525 168.797C31.8772 168.797 32.2692 168.869 32.6285 169.014C32.9925 169.154 33.3052 169.359 33.5665 169.63C33.8325 169.896 34.0402 170.227 34.1895 170.624C34.3389 171.016 34.4135 171.464 34.4135 171.968C34.4135 172.164 34.3925 172.295 34.3505 172.36C34.3085 172.425 34.2292 172.458 34.1125 172.458H29.3735C29.3875 172.906 29.4482 173.296 29.5555 173.627C29.6675 173.958 29.8215 174.236 30.0175 174.46C30.2135 174.679 30.4469 174.845 30.7175 174.957C30.9882 175.064 31.2915 175.118 31.6275 175.118C31.9402 175.118 32.2085 175.083 32.4325 175.013C32.6612 174.938 32.8572 174.859 33.0205 174.775C33.1839 174.691 33.3192 174.614 33.4265 174.544C33.5385 174.469 33.6342 174.432 33.7135 174.432C33.8162 174.432 33.8955 174.472 33.9515 174.551L34.3015 175.006ZM46.8723 176H45.6263V169.952H42.1123V174.208C42.1123 174.507 42.1847 174.728 42.3293 174.873C42.4787 175.018 42.6653 175.09 42.8893 175.09C43.02 175.09 43.132 175.074 43.2253 175.041C43.3233 175.004 43.4073 174.964 43.4773 174.922C43.5473 174.88 43.6057 174.843 43.6523 174.81C43.7037 174.773 43.748 174.754 43.7853 174.754C43.8553 174.754 43.9137 174.794 43.9603 174.873L44.3313 175.468C44.112 175.669 43.8507 175.827 43.5473 175.944C43.244 176.056 42.9313 176.112 42.6093 176.112C42.054 176.112 41.6247 175.956 41.3213 175.643C41.018 175.33 40.8663 174.88 40.8663 174.292V169.952H37.5693V174.208C37.5693 174.507 37.6417 174.728 37.7863 174.873C37.931 175.018 38.1177 175.09 38.3463 175.09C38.477 175.09 38.589 175.074 38.6823 175.041C38.7803 175.004 38.8643 174.964 38.9343 174.922C39.0043 174.88 39.0627 174.843 39.1093 174.81C39.1607 174.773 39.205 174.754 39.2423 174.754C39.3077 174.754 39.366 174.794 39.4173 174.873L39.7813 175.468C39.5667 175.669 39.3077 175.827 39.0043 175.944C38.701 176.056 38.3883 176.112 38.0663 176.112C37.5063 176.112 37.0747 175.956 36.7713 175.643C36.4727 175.33 36.3233 174.88 36.3233 174.292V169.952H35.4693C35.3947 169.952 35.3317 169.931 35.2803 169.889C35.229 169.842 35.2033 169.772 35.2033 169.679V169.182L36.3653 169.028L36.6523 166.844C36.6663 166.774 36.6967 166.718 36.7433 166.676C36.7947 166.629 36.86 166.606 36.9393 166.606H37.5693V169.049H40.9083L41.1953 166.844C41.2093 166.774 41.2397 166.718 41.2863 166.676C41.3377 166.629 41.403 166.606 41.4823 166.606H42.1123V169.049H46.8723V176ZM47.1593 166.634C47.1593 166.755 47.1337 166.87 47.0823 166.977C47.0357 167.08 46.9703 167.171 46.8863 167.25C46.807 167.329 46.7137 167.392 46.6063 167.439C46.499 167.486 46.3847 167.509 46.2633 167.509C46.142 167.509 46.0277 167.486 45.9203 167.439C45.8177 167.392 45.7267 167.329 45.6473 167.25C45.568 167.171 45.505 167.08 45.4583 166.977C45.4117 166.87 45.3883 166.755 45.3883 166.634C45.3883 166.513 45.4117 166.398 45.4583 166.291C45.505 166.179 45.568 166.083 45.6473 166.004C45.7267 165.92 45.8177 165.855 45.9203 165.808C46.0277 165.761 46.142 165.738 46.2633 165.738C46.3847 165.738 46.499 165.761 46.6063 165.808C46.7137 165.855 46.807 165.92 46.8863 166.004C46.9703 166.083 47.0357 166.179 47.0823 166.291C47.1337 166.398 47.1593 166.513 47.1593 166.634ZM50.0946 169.938C50.2486 169.765 50.412 169.609 50.5846 169.469C50.7573 169.329 50.9393 169.21 51.1306 169.112C51.3266 169.009 51.532 168.932 51.7466 168.881C51.966 168.825 52.2016 168.797 52.4536 168.797C52.841 168.797 53.1816 168.862 53.4756 168.993C53.7743 169.119 54.0216 169.301 54.2176 169.539C54.4183 169.772 54.57 170.055 54.6726 170.386C54.7753 170.717 54.8266 171.084 54.8266 171.485V176H53.5736V171.485C53.5736 170.948 53.45 170.533 53.2026 170.239C52.96 169.94 52.589 169.791 52.0896 169.791C51.721 169.791 51.3756 169.88 51.0536 170.057C50.7363 170.234 50.4423 170.475 50.1716 170.778V176H48.9186V168.909H49.6676C49.845 168.909 49.9546 168.995 49.9966 169.168L50.0946 169.938ZM59.1963 172.535C59.4483 172.535 59.6699 172.5 59.8613 172.43C60.0526 172.36 60.2136 172.262 60.3443 172.136C60.4749 172.01 60.5729 171.861 60.6383 171.688C60.7036 171.511 60.7363 171.317 60.7363 171.107C60.7363 170.673 60.6033 170.328 60.3373 170.071C60.0759 169.814 59.6956 169.686 59.1963 169.686C58.6923 169.686 58.3073 169.814 58.0413 170.071C57.7799 170.328 57.6493 170.673 57.6493 171.107C57.6493 171.317 57.6819 171.511 57.7473 171.688C57.8173 171.861 57.9176 172.01 58.0483 172.136C58.1789 172.262 58.3399 172.36 58.5313 172.43C58.7226 172.5 58.9443 172.535 59.1963 172.535ZM61.4433 176.385C61.4433 176.212 61.3943 176.072 61.2963 175.965C61.1983 175.858 61.0653 175.774 60.8973 175.713C60.7339 175.652 60.5426 175.61 60.3233 175.587C60.1039 175.559 59.8706 175.538 59.6233 175.524C59.3806 175.51 59.1333 175.496 58.8813 175.482C58.6293 175.468 58.3866 175.445 58.1533 175.412C57.8919 175.533 57.6773 175.687 57.5093 175.874C57.3459 176.056 57.2643 176.271 57.2643 176.518C57.2643 176.677 57.3039 176.824 57.3833 176.959C57.4673 177.099 57.5933 177.218 57.7613 177.316C57.9293 177.419 58.1393 177.498 58.3913 177.554C58.6479 177.615 58.9489 177.645 59.2943 177.645C59.6303 177.645 59.9313 177.615 60.1973 177.554C60.4633 177.493 60.6873 177.407 60.8693 177.295C61.0559 177.183 61.1983 177.05 61.2963 176.896C61.3943 176.742 61.4433 176.572 61.4433 176.385ZM62.7103 169.189V169.651C62.7103 169.805 62.6123 169.903 62.4163 169.945L61.6113 170.05C61.7699 170.358 61.8493 170.699 61.8493 171.072C61.8493 171.417 61.7816 171.732 61.6463 172.017C61.5156 172.297 61.3336 172.537 61.1003 172.738C60.8669 172.939 60.5869 173.093 60.2603 173.2C59.9336 173.307 59.5789 173.361 59.1963 173.361C58.8649 173.361 58.5523 173.321 58.2583 173.242C58.1089 173.335 57.9946 173.436 57.9153 173.543C57.8359 173.646 57.7963 173.751 57.7963 173.858C57.7963 174.026 57.8639 174.154 57.9993 174.243C58.1393 174.327 58.3213 174.388 58.5453 174.425C58.7693 174.462 59.0236 174.486 59.3083 174.495C59.5976 174.504 59.8916 174.521 60.1903 174.544C60.4936 174.563 60.7876 174.598 61.0723 174.649C61.3616 174.7 61.6183 174.784 61.8423 174.901C62.0663 175.018 62.2459 175.179 62.3813 175.384C62.5213 175.589 62.5913 175.855 62.5913 176.182C62.5913 176.485 62.5143 176.779 62.3603 177.064C62.2109 177.349 61.9939 177.601 61.7093 177.82C61.4246 178.044 61.0746 178.221 60.6593 178.352C60.2486 178.487 59.7843 178.555 59.2663 178.555C58.7483 178.555 58.2956 178.504 57.9083 178.401C57.5209 178.298 57.1989 178.161 56.9423 177.988C56.6856 177.815 56.4919 177.615 56.3613 177.386C56.2353 177.162 56.1723 176.926 56.1723 176.679C56.1723 176.329 56.2819 176.033 56.5013 175.79C56.7206 175.547 57.0216 175.354 57.4043 175.209C57.1943 175.116 57.0263 174.992 56.9003 174.838C56.7789 174.679 56.7183 174.467 56.7183 174.201C56.7183 174.098 56.7369 173.993 56.7743 173.886C56.8116 173.774 56.8676 173.664 56.9423 173.557C57.0216 173.445 57.1173 173.34 57.2293 173.242C57.3413 173.144 57.4719 173.058 57.6213 172.983C57.2713 172.787 56.9983 172.528 56.8023 172.206C56.6063 171.879 56.5083 171.501 56.5083 171.072C56.5083 170.727 56.5736 170.414 56.7043 170.134C56.8396 169.849 57.0263 169.609 57.2643 169.413C57.5023 169.212 57.7846 169.058 58.1113 168.951C58.4426 168.844 58.8043 168.79 59.1963 168.79C59.5043 168.79 59.7913 168.825 60.0573 168.895C60.3233 168.96 60.5659 169.058 60.7853 169.189H62.7103ZM68.1287 170.078C68.0727 170.181 67.9864 170.232 67.8697 170.232C67.7997 170.232 67.7204 170.206 67.6317 170.155C67.5431 170.104 67.4334 170.048 67.3027 169.987C67.1767 169.922 67.0251 169.863 66.8477 169.812C66.6704 169.756 66.4604 169.728 66.2177 169.728C66.0077 169.728 65.8187 169.756 65.6507 169.812C65.4827 169.863 65.3381 169.936 65.2167 170.029C65.1001 170.122 65.0091 170.232 64.9437 170.358C64.8831 170.479 64.8527 170.612 64.8527 170.757C64.8527 170.939 64.9041 171.091 65.0067 171.212C65.1141 171.333 65.2541 171.438 65.4267 171.527C65.5994 171.616 65.7954 171.695 66.0147 171.765C66.2341 171.83 66.4581 171.903 66.6867 171.982C66.9201 172.057 67.1464 172.141 67.3657 172.234C67.5851 172.327 67.7811 172.444 67.9537 172.584C68.1264 172.724 68.2641 172.897 68.3667 173.102C68.4741 173.303 68.5277 173.545 68.5277 173.83C68.5277 174.157 68.4694 174.46 68.3527 174.74C68.2361 175.015 68.0634 175.256 67.8347 175.461C67.6061 175.662 67.3261 175.82 66.9947 175.937C66.6634 176.054 66.2807 176.112 65.8467 176.112C65.3521 176.112 64.9041 176.033 64.5027 175.874C64.1014 175.711 63.7607 175.503 63.4807 175.251L63.7747 174.775C63.8121 174.714 63.8564 174.668 63.9077 174.635C63.9591 174.602 64.0244 174.586 64.1037 174.586C64.1877 174.586 64.2764 174.619 64.3697 174.684C64.4631 174.749 64.5751 174.822 64.7057 174.901C64.8411 174.98 65.0044 175.053 65.1957 175.118C65.3871 175.183 65.6251 175.216 65.9097 175.216C66.1524 175.216 66.3647 175.186 66.5467 175.125C66.7287 175.06 66.8804 174.973 67.0017 174.866C67.1231 174.759 67.2117 174.635 67.2677 174.495C67.3284 174.355 67.3587 174.206 67.3587 174.047C67.3587 173.851 67.3051 173.69 67.1977 173.564C67.0951 173.433 66.9574 173.324 66.7847 173.235C66.6121 173.142 66.4137 173.062 66.1897 172.997C65.9704 172.927 65.7441 172.855 65.5107 172.78C65.2821 172.705 65.0557 172.621 64.8317 172.528C64.6124 172.43 64.4164 172.309 64.2437 172.164C64.0711 172.019 63.9311 171.842 63.8237 171.632C63.7211 171.417 63.6697 171.158 63.6697 170.855C63.6697 170.584 63.7257 170.325 63.8377 170.078C63.9497 169.826 64.1131 169.607 64.3277 169.42C64.5424 169.229 64.8061 169.077 65.1187 168.965C65.4314 168.853 65.7884 168.797 66.1897 168.797C66.6564 168.797 67.0741 168.872 67.4427 169.021C67.8161 169.166 68.1381 169.366 68.4087 169.623L68.1287 170.078Z" fill="white"/>
</g>
<defs>
<clipPath id="clip0_19_10304">
<rect width="230" height="676" fill="white"/>
</clipPath>
</defs>
</svg>
