<svg width="230" height="676" viewBox="0 0 230 676" fill="none" xmlns="http://www.w3.org/2000/svg">
<g clip-path="url(#clip0_460_2726)" filter="url(#filter0_d_460_2726)">
<path d="M35.281 27H35.7839C35.9222 27 36.0354 26.8875 36.0354 26.75V19.25C36.0354 19.1125 35.9222 19 35.7839 19H35.281C35.1427 19 35.0295 19.1125 35.0295 19.25V26.75C35.0295 26.8875 35.1427 27 35.281 27ZM32.2633 27H32.7662C32.9045 27 33.0177 26.8875 33.0177 26.75V22.25C33.0177 22.1125 32.9045 22 32.7662 22H32.2633C32.125 22 32.0118 22.1125 32.0118 22.25V26.75C32.0118 26.8875 32.125 27 32.2633 27ZM26.2279 27H26.7309C26.8692 27 26.9823 26.8875 26.9823 26.75V24.25C26.9823 24.1125 26.8692 24 26.7309 24H26.2279C26.0896 24 25.9765 24.1125 25.9765 24.25V26.75C25.9765 26.8875 26.0896 27 26.2279 27ZM29.2456 27H29.7486C29.8869 27 30 26.8875 30 26.75V20.25C30 20.1125 29.8869 20 29.7486 20H29.2456C29.1073 20 28.9941 20.1125 28.9941 20.25V26.75C28.9941 26.8875 29.1073 27 29.2456 27ZM37.7957 29H22.9588V18.25C22.9588 18.1119 22.8462 18 22.7073 18H22.2044C22.0654 18 21.9529 18.1119 21.9529 18.25V29.5C21.9529 29.7763 22.1779 30 22.4558 30H37.7957C37.9346 30 38.0472 29.8881 38.0472 29.75V29.25C38.0472 29.1119 37.9346 29 37.7957 29Z" fill="#79828D"/>
<path d="M47.26 28V17.99H49.906C53.35 17.99 54.974 20.118 54.974 22.904V23.03C54.974 25.802 53.378 28 49.878 28H47.26ZM48.478 27.006H49.85C52.426 27.006 53.714 25.466 53.714 23.016V22.904C53.714 20.594 52.594 18.97 49.836 18.97H48.478V27.006ZM58.958 28.126C57.6 28.126 56.522 27.468 56.522 25.97C56.522 24.276 58.314 23.702 60.19 23.702H61.24V23.17C61.24 22.008 60.792 21.518 59.672 21.518C58.664 21.518 58.104 21.938 57.992 22.834H56.83C56.984 21.168 58.314 20.552 59.728 20.552C61.128 20.552 62.402 21.126 62.402 23.17V28H61.24V27.076C60.694 27.762 60.036 28.126 58.958 28.126ZM59.07 27.202C60.302 27.202 61.24 26.572 61.24 25.438V24.528H60.232C58.762 24.528 57.684 24.892 57.684 25.97C57.684 26.726 58.048 27.202 59.07 27.202ZM67.1526 28.126C65.4026 28.126 64.3526 27.244 64.2826 25.746H65.4166C65.5006 26.614 65.9626 27.16 67.1386 27.16C68.2446 27.16 68.7346 26.782 68.7346 25.998C68.7346 25.228 68.1606 24.976 67.0266 24.766C65.1226 24.416 64.4786 23.884 64.4786 22.61C64.4786 21.252 65.8086 20.552 66.9566 20.552C68.2726 20.552 69.4066 21.084 69.6026 22.666H68.4826C68.3146 21.868 67.8666 21.518 66.9426 21.518C66.1026 21.518 65.5566 21.938 65.5566 22.568C65.5566 23.226 65.9206 23.492 67.2646 23.73C68.7766 24.01 69.8406 24.346 69.8406 25.9C69.8406 27.23 68.9306 28.126 67.1526 28.126ZM71.8112 28V17.178H72.9732V21.84C73.3092 21.154 74.1212 20.552 75.3252 20.552C76.8372 20.552 77.9012 21.378 77.9012 23.506V28H76.7392V23.422C76.7392 22.134 76.1932 21.56 75.0172 21.56C73.9392 21.56 72.9732 22.246 72.9732 23.562V28H71.8112ZM84.0183 28.126C82.8283 28.126 81.9603 27.524 81.5403 26.796V28H80.3783V17.178H81.5403V21.91C81.9603 21.196 82.9543 20.552 84.0183 20.552C85.9363 20.552 87.3503 21.952 87.3503 24.234V24.346C87.3503 26.586 86.0343 28.126 84.0183 28.126ZM83.9063 27.16C85.3623 27.16 86.1463 26.18 86.1463 24.402V24.29C86.1463 22.442 85.1243 21.518 83.8923 21.518C82.5343 21.518 81.4983 22.414 81.4983 24.29V24.402C81.4983 26.278 82.4783 27.16 83.9063 27.16ZM92.3937 28.126C90.3077 28.126 88.8097 26.544 88.8097 24.402V24.29C88.8097 22.092 90.3357 20.552 92.4077 20.552C94.4797 20.552 96.0057 22.078 96.0057 24.276V24.388C96.0057 26.6 94.4797 28.126 92.3937 28.126ZM92.4077 27.16C93.8777 27.16 94.8017 26.054 94.8017 24.402V24.304C94.8017 22.61 93.8637 21.518 92.4077 21.518C90.9377 21.518 90.0137 22.61 90.0137 24.29V24.402C90.0137 26.068 90.9237 27.16 92.4077 27.16ZM99.8389 28.126C98.4809 28.126 97.4029 27.468 97.4029 25.97C97.4029 24.276 99.1949 23.702 101.071 23.702H102.121V23.17C102.121 22.008 101.673 21.518 100.553 21.518C99.5449 21.518 98.9849 21.938 98.8729 22.834H97.7109C97.8649 21.168 99.1949 20.552 100.609 20.552C102.009 20.552 103.283 21.126 103.283 23.17V28H102.121V27.076C101.575 27.762 100.917 28.126 99.8389 28.126ZM99.9509 27.202C101.183 27.202 102.121 26.572 102.121 25.438V24.528H101.113C99.6429 24.528 98.5649 24.892 98.5649 25.97C98.5649 26.726 98.9289 27.202 99.9509 27.202ZM105.765 28V20.678H106.927V21.994C107.389 21.168 108.019 20.594 109.335 20.552V21.644C107.865 21.714 106.927 22.176 106.927 23.982V28H105.765ZM113.782 28.126C111.864 28.126 110.478 26.768 110.478 24.486V24.374C110.478 22.134 111.878 20.552 113.894 20.552C115.112 20.552 115.868 21.14 116.288 21.854V17.178H117.45V28H116.288V26.74C115.868 27.454 114.846 28.126 113.782 28.126ZM113.908 27.16C115.266 27.16 116.33 26.264 116.33 24.388V24.276C116.33 22.4 115.434 21.518 114.006 21.518C112.55 21.518 111.682 22.54 111.682 24.318V24.43C111.682 26.278 112.676 27.16 113.908 27.16Z" fill="white"/>
<path d="M37.6052 63.0607L30.9449 56.4393C30.662 56.158 30.2782 56 29.878 56H23.4617C22.6284 56 21.9529 56.6716 21.9529 57.5V63.8787C21.9529 64.2765 22.1119 64.658 22.3948 64.9393L29.0552 71.5607C29.6444 72.1464 30.5997 72.1465 31.189 71.5607L37.6052 65.182C38.1945 64.5962 38.1945 63.6464 37.6052 63.0607V63.0607ZM36.894 64.4749L30.4777 70.8536C30.2815 71.0487 29.963 71.049 29.7664 70.8536L23.1061 64.2322C23.0592 64.1859 23.0221 64.1308 22.9968 64.0701C22.9715 64.0094 22.9586 63.9443 22.9588 63.8787V57.5C22.9588 57.2243 23.1844 57 23.4617 57H29.878C30.0124 57 30.1387 57.052 30.2337 57.1464L36.894 63.7677C37.0901 63.9627 37.0901 64.2799 36.894 64.4749V64.4749ZM26.4794 59.875C26.8261 59.875 27.1081 60.1554 27.1081 60.5C27.1081 60.8446 26.8261 61.125 26.4794 61.125C26.1327 61.125 25.8507 60.8446 25.8507 60.5C25.8507 60.1554 26.1327 59.875 26.4794 59.875ZM26.4794 59C25.6461 59 24.9706 59.6716 24.9706 60.5C24.9706 61.3284 25.6461 62 26.4794 62C27.3127 62 27.9882 61.3284 27.9882 60.5C27.9882 59.6716 27.3127 59 26.4794 59Z" fill="#79828D"/>
<path d="M47.26 68V57.99H50.102C52.02 57.99 53.602 58.83 53.602 60.916V60.972C53.602 63.1 52.006 63.926 50.102 63.926H48.478V68H47.26ZM48.478 62.96H50.186C51.614 62.96 52.384 62.26 52.384 60.972V60.916C52.384 59.502 51.544 58.97 50.186 58.97H48.478V62.96ZM55.5108 68V60.678H56.6728V61.994C57.1348 61.168 57.7648 60.594 59.0808 60.552V61.644C57.6108 61.714 56.6728 62.176 56.6728 63.982V68H55.5108ZM61.5624 59.152C61.1424 59.152 60.7924 58.802 60.7924 58.382C60.7924 57.962 61.1424 57.612 61.5624 57.612C61.9824 57.612 62.3324 57.962 62.3324 58.382C62.3324 58.802 61.9824 59.152 61.5624 59.152ZM61.0024 68V60.678H62.1644V68H61.0024ZM67.7808 68.126C65.7368 68.126 64.1968 66.684 64.1968 64.416V64.304C64.1968 62.064 65.7928 60.552 67.7528 60.552C69.2788 60.552 70.7068 61.252 70.9308 63.114H69.7828C69.6008 61.952 68.7608 61.518 67.7528 61.518C66.4228 61.518 65.4008 62.582 65.4008 64.304V64.416C65.4008 66.208 66.3808 67.16 67.7948 67.16C68.8308 67.16 69.7688 66.558 69.8948 65.368H70.9728C70.8188 66.95 69.5448 68.126 67.7808 68.126ZM73.5152 59.152C73.0952 59.152 72.7452 58.802 72.7452 58.382C72.7452 57.962 73.0952 57.612 73.5152 57.612C73.9352 57.612 74.2852 57.962 74.2852 58.382C74.2852 58.802 73.9352 59.152 73.5152 59.152ZM72.9552 68V60.678H74.1172V68H72.9552ZM76.6955 68V60.678H77.8575V61.84C78.1935 61.154 79.0055 60.552 80.2095 60.552C81.7215 60.552 82.7855 61.378 82.7855 63.506V68H81.6235V63.422C81.6235 62.134 81.0775 61.56 79.9015 61.56C78.8235 61.56 77.8575 62.246 77.8575 63.562V68H76.6955ZM88.1887 70.674C86.0187 70.674 85.0667 69.652 84.8707 68.42H86.0607C86.2287 69.26 86.9287 69.694 88.1747 69.694C89.6167 69.694 90.5267 69.008 90.5267 67.44V66.376C90.1067 67.09 89.1127 67.762 88.0487 67.762C86.1307 67.762 84.7167 66.306 84.7167 64.29V64.192C84.7167 62.204 86.1167 60.552 88.1327 60.552C89.3507 60.552 90.1067 61.14 90.5267 61.854V60.678H91.6887V67.51C91.6747 69.638 90.2327 70.674 88.1887 70.674ZM88.1747 66.796C89.5327 66.796 90.5687 65.844 90.5687 64.206V64.108C90.5687 62.47 89.6727 61.518 88.2447 61.518C86.7887 61.518 85.9207 62.596 85.9207 64.136V64.248C85.9207 65.844 86.9427 66.796 88.1747 66.796Z" fill="white"/>
<path d="M47.26 100V89.99H50.102C52.02 89.99 53.602 90.83 53.602 92.916V92.972C53.602 95.1 52.006 95.926 50.102 95.926H48.478V100H47.26ZM48.478 94.96H50.186C51.614 94.96 52.384 94.26 52.384 92.972V92.916C52.384 91.502 51.544 90.97 50.186 90.97H48.478V94.96ZM55.5108 100V92.678H56.6728V93.994C57.1348 93.168 57.7648 92.594 59.0808 92.552V93.644C57.6108 93.714 56.6728 94.176 56.6728 95.982V100H55.5108ZM61.5624 91.152C61.1424 91.152 60.7924 90.802 60.7924 90.382C60.7924 89.962 61.1424 89.612 61.5624 89.612C61.9824 89.612 62.3324 89.962 62.3324 90.382C62.3324 90.802 61.9824 91.152 61.5624 91.152ZM61.0024 100V92.678H62.1644V100H61.0024ZM67.7808 100.126C65.7368 100.126 64.1968 98.684 64.1968 96.416V96.304C64.1968 94.064 65.7928 92.552 67.7528 92.552C69.2788 92.552 70.7068 93.252 70.9308 95.114H69.7828C69.6008 93.952 68.7608 93.518 67.7528 93.518C66.4228 93.518 65.4008 94.582 65.4008 96.304V96.416C65.4008 98.208 66.3808 99.16 67.7948 99.16C68.8308 99.16 69.7688 98.558 69.8948 97.368H70.9728C70.8188 98.95 69.5448 100.126 67.7808 100.126ZM73.5152 91.152C73.0952 91.152 72.7452 90.802 72.7452 90.382C72.7452 89.962 73.0952 89.612 73.5152 89.612C73.9352 89.612 74.2852 89.962 74.2852 90.382C74.2852 90.802 73.9352 91.152 73.5152 91.152ZM72.9552 100V92.678H74.1172V100H72.9552ZM76.6955 100V92.678H77.8575V93.84C78.1935 93.154 79.0055 92.552 80.2095 92.552C81.7215 92.552 82.7855 93.378 82.7855 95.506V100H81.6235V95.422C81.6235 94.134 81.0775 93.56 79.9015 93.56C78.8235 93.56 77.8575 94.246 77.8575 95.562V100H76.6955ZM88.1887 102.674C86.0187 102.674 85.0667 101.652 84.8707 100.42H86.0607C86.2287 101.26 86.9287 101.694 88.1747 101.694C89.6167 101.694 90.5267 101.008 90.5267 99.44V98.376C90.1067 99.09 89.1127 99.762 88.0487 99.762C86.1307 99.762 84.7167 98.306 84.7167 96.29V96.192C84.7167 94.204 86.1167 92.552 88.1327 92.552C89.3507 92.552 90.1067 93.14 90.5267 93.854V92.678H91.6887V99.51C91.6747 101.638 90.2327 102.674 88.1887 102.674ZM88.1747 98.796C89.5327 98.796 90.5687 97.844 90.5687 96.206V96.108C90.5687 94.47 89.6727 93.518 88.2447 93.518C86.7887 93.518 85.9207 94.596 85.9207 96.136V96.248C85.9207 97.844 86.9427 98.796 88.1747 98.796ZM100.287 100V90.984H97.3751V89.99H104.417V90.984H101.505V100H100.287ZM108.178 100.126C106.092 100.126 104.594 98.544 104.594 96.402V96.29C104.594 94.092 106.12 92.552 108.192 92.552C110.264 92.552 111.79 94.078 111.79 96.276V96.388C111.79 98.6 110.264 100.126 108.178 100.126ZM108.192 99.16C109.662 99.16 110.586 98.054 110.586 96.402V96.304C110.586 94.61 109.648 93.518 108.192 93.518C106.722 93.518 105.798 94.61 105.798 96.29V96.402C105.798 98.068 106.708 99.16 108.192 99.16ZM116.827 100.126C114.741 100.126 113.243 98.544 113.243 96.402V96.29C113.243 94.092 114.769 92.552 116.841 92.552C118.913 92.552 120.439 94.078 120.439 96.276V96.388C120.439 98.6 118.913 100.126 116.827 100.126ZM116.841 99.16C118.311 99.16 119.235 98.054 119.235 96.402V96.304C119.235 94.61 118.297 93.518 116.841 93.518C115.371 93.518 114.447 94.61 114.447 96.29V96.402C114.447 98.068 115.357 99.16 116.841 99.16ZM122.466 100V89.178H123.642V100H122.466Z" fill="white"/>
<path d="M47.26 132V121.99H49.906C53.35 121.99 54.974 124.118 54.974 126.904V127.03C54.974 129.802 53.378 132 49.878 132H47.26ZM48.478 131.006H49.85C52.426 131.006 53.714 129.466 53.714 127.016V126.904C53.714 124.594 52.594 122.97 49.836 122.97H48.478V131.006ZM60.12 132.126C58.048 132.126 56.578 130.67 56.578 128.416V128.304C56.578 126.092 57.992 124.552 60.008 124.552C61.702 124.552 63.298 125.574 63.298 128.192V128.57H57.782C57.838 130.236 58.636 131.16 60.134 131.16C61.268 131.16 61.926 130.74 62.08 129.886H63.242C62.99 131.356 61.772 132.126 60.12 132.126ZM57.824 127.632H62.108C61.996 126.12 61.212 125.518 60.008 125.518C58.818 125.518 58.02 126.33 57.824 127.632ZM67.1834 132.126C65.8254 132.126 64.7474 131.468 64.7474 129.97C64.7474 128.276 66.5394 127.702 68.4154 127.702H69.4654V127.17C69.4654 126.008 69.0174 125.518 67.8974 125.518C66.8894 125.518 66.3294 125.938 66.2174 126.834H65.0554C65.2094 125.168 66.5394 124.552 67.9534 124.552C69.3534 124.552 70.6274 125.126 70.6274 127.17V132H69.4654V131.076C68.9194 131.762 68.2614 132.126 67.1834 132.126ZM67.2954 131.202C68.5274 131.202 69.4654 130.572 69.4654 129.438V128.528H68.4574C66.9874 128.528 65.9094 128.892 65.9094 129.97C65.9094 130.726 66.2734 131.202 67.2954 131.202ZM73.138 132V121.178H74.314V132H73.138ZM79.888 132.126C77.816 132.126 76.346 130.67 76.346 128.416V128.304C76.346 126.092 77.76 124.552 79.776 124.552C81.47 124.552 83.066 125.574 83.066 128.192V128.57H77.55C77.606 130.236 78.404 131.16 79.902 131.16C81.036 131.16 81.694 130.74 81.848 129.886H83.01C82.758 131.356 81.54 132.126 79.888 132.126ZM77.592 127.632H81.876C81.764 126.12 80.98 125.518 79.776 125.518C78.586 125.518 77.788 126.33 77.592 127.632ZM85.049 132V124.678H86.211V125.994C86.673 125.168 87.303 124.594 88.619 124.552V125.644C87.149 125.714 86.211 126.176 86.211 127.982V132H85.049ZM94.5718 132V121.99H95.7898V132H94.5718ZM98.5006 132V124.678H99.6626V125.84C99.9986 125.154 100.811 124.552 102.015 124.552C103.527 124.552 104.591 125.378 104.591 127.506V132H103.429V127.422C103.429 126.134 102.883 125.56 101.707 125.56C100.629 125.56 99.6626 126.246 99.6626 127.562V132H98.5006ZM109.336 132.126C107.586 132.126 106.536 131.244 106.466 129.746H107.6C107.684 130.614 108.146 131.16 109.322 131.16C110.428 131.16 110.918 130.782 110.918 129.998C110.918 129.228 110.344 128.976 109.21 128.766C107.306 128.416 106.662 127.884 106.662 126.61C106.662 125.252 107.992 124.552 109.14 124.552C110.456 124.552 111.59 125.084 111.786 126.666H110.666C110.498 125.868 110.05 125.518 109.126 125.518C108.286 125.518 107.74 125.938 107.74 126.568C107.74 127.226 108.104 127.492 109.448 127.73C110.96 128.01 112.024 128.346 112.024 129.9C112.024 131.23 111.114 132.126 109.336 132.126ZM114.582 123.152C114.162 123.152 113.812 122.802 113.812 122.382C113.812 121.962 114.162 121.612 114.582 121.612C115.002 121.612 115.352 121.962 115.352 122.382C115.352 122.802 115.002 123.152 114.582 123.152ZM114.022 132V124.678H115.184V132H114.022ZM120.689 134.674C118.519 134.674 117.567 133.652 117.371 132.42H118.561C118.729 133.26 119.429 133.694 120.675 133.694C122.117 133.694 123.027 133.008 123.027 131.44V130.376C122.607 131.09 121.613 131.762 120.549 131.762C118.631 131.762 117.217 130.306 117.217 128.29V128.192C117.217 126.204 118.617 124.552 120.633 124.552C121.851 124.552 122.607 125.14 123.027 125.854V124.678H124.189V131.51C124.175 133.638 122.733 134.674 120.689 134.674ZM120.675 130.796C122.033 130.796 123.069 129.844 123.069 128.206V128.108C123.069 126.47 122.173 125.518 120.745 125.518C119.289 125.518 118.421 126.596 118.421 128.136V128.248C118.421 129.844 119.443 130.796 120.675 130.796ZM126.74 132V121.178H127.902V125.84C128.238 125.154 129.05 124.552 130.254 124.552C131.766 124.552 132.83 125.378 132.83 127.506V132H131.668V127.422C131.668 126.134 131.122 125.56 129.946 125.56C128.868 125.56 127.902 126.246 127.902 127.562V132H126.74ZM137.533 132.098C136.203 132.098 135.559 131.314 135.559 130.166V125.658H134.509V124.678H135.559V123.012H136.721V124.678H138.429V125.658H136.721V130.054C136.721 130.768 137.043 131.118 137.631 131.118C137.995 131.118 138.275 131.062 138.527 130.964V131.944C138.289 132.028 138.009 132.098 137.533 132.098ZM142.752 132.126C141.002 132.126 139.952 131.244 139.882 129.746H141.016C141.1 130.614 141.562 131.16 142.738 131.16C143.844 131.16 144.334 130.782 144.334 129.998C144.334 129.228 143.76 128.976 142.626 128.766C140.722 128.416 140.078 127.884 140.078 126.61C140.078 125.252 141.408 124.552 142.556 124.552C143.872 124.552 145.006 125.084 145.202 126.666H144.082C143.914 125.868 143.466 125.518 142.542 125.518C141.702 125.518 141.156 125.938 141.156 126.568C141.156 127.226 141.52 127.492 142.864 127.73C144.376 128.01 145.44 128.346 145.44 129.9C145.44 131.23 144.53 132.126 142.752 132.126Z" fill="white"/>
<path d="M49.822 164L46.42 153.99H47.624L50.606 162.824L53.588 153.99H54.736L51.278 164H49.822ZM56.9874 155.152C56.5674 155.152 56.2174 154.802 56.2174 154.382C56.2174 153.962 56.5674 153.612 56.9874 153.612C57.4074 153.612 57.7574 153.962 57.7574 154.382C57.7574 154.802 57.4074 155.152 56.9874 155.152ZM56.4274 164V156.678H57.5894V164H56.4274ZM63.1638 164.126C61.0918 164.126 59.6218 162.67 59.6218 160.416V160.304C59.6218 158.092 61.0358 156.552 63.0518 156.552C64.7458 156.552 66.3418 157.574 66.3418 160.192V160.57H60.8258C60.8818 162.236 61.6798 163.16 63.1778 163.16C64.3118 163.16 64.9698 162.74 65.1238 161.886H66.2858C66.0338 163.356 64.8158 164.126 63.1638 164.126ZM60.8678 159.632H65.1518C65.0398 158.12 64.2558 157.518 63.0518 157.518C61.8618 157.518 61.0638 158.33 60.8678 159.632ZM69.7265 164L67.4725 156.678H68.7325L70.4405 162.572L72.2185 156.678H73.2265L74.8925 162.572L76.6145 156.678H77.8045L75.5225 164H74.2345L72.7085 158.512L71.0005 164H69.7265ZM83.6308 164V153.99H84.8488V164H83.6308ZM87.5596 164V156.678H88.7216V157.84C89.0576 157.154 89.8696 156.552 91.0736 156.552C92.5856 156.552 93.6496 157.378 93.6496 159.506V164H92.4876V159.422C92.4876 158.134 91.9416 157.56 90.7656 157.56C89.6876 157.56 88.7216 158.246 88.7216 159.562V164H87.5596ZM97.8241 164L95.1641 156.678H96.4241L98.5941 162.824L100.736 156.678H101.94L99.3081 164H97.8241ZM106.459 164.126C104.387 164.126 102.917 162.67 102.917 160.416V160.304C102.917 158.092 104.331 156.552 106.347 156.552C108.041 156.552 109.637 157.574 109.637 160.192V160.57H104.121C104.177 162.236 104.975 163.16 106.473 163.16C107.607 163.16 108.265 162.74 108.419 161.886H109.581C109.329 163.356 108.111 164.126 106.459 164.126ZM104.163 159.632H108.447C108.335 158.12 107.551 157.518 106.347 157.518C105.157 157.518 104.359 158.33 104.163 159.632ZM111.621 164V156.678H112.783V157.84C113.119 157.154 113.931 156.552 115.135 156.552C116.647 156.552 117.711 157.378 117.711 159.506V164H116.549V159.422C116.549 158.134 116.003 157.56 114.827 157.56C113.749 157.56 112.783 158.246 112.783 159.562V164H111.621ZM122.414 164.098C121.084 164.098 120.44 163.314 120.44 162.166V157.658H119.39V156.678H120.44V155.012H121.602V156.678H123.31V157.658H121.602V162.054C121.602 162.768 121.924 163.118 122.512 163.118C122.876 163.118 123.156 163.062 123.408 162.964V163.944C123.17 164.028 122.89 164.098 122.414 164.098ZM128.402 164.126C126.316 164.126 124.818 162.544 124.818 160.402V160.29C124.818 158.092 126.344 156.552 128.416 156.552C130.488 156.552 132.014 158.078 132.014 160.276V160.388C132.014 162.6 130.488 164.126 128.402 164.126ZM128.416 163.16C129.886 163.16 130.81 162.054 130.81 160.402V160.304C130.81 158.61 129.872 157.518 128.416 157.518C126.946 157.518 126.022 158.61 126.022 160.29V160.402C126.022 162.068 126.932 163.16 128.416 163.16ZM134.014 164V156.678H135.176V157.994C135.638 157.168 136.268 156.594 137.584 156.552V157.644C136.114 157.714 135.176 158.176 135.176 159.982V164H134.014ZM140.204 166.548L141.59 163.244L138.72 156.678H139.966L142.206 161.928L144.236 156.678H145.426L141.38 166.548H140.204Z" fill="white"/>
<path d="M153.333 154C152.605 154 152 154.605 152 155.333V164.667C152 165.395 152.605 166 153.333 166H162.667C163.395 166 164 165.395 164 164.667V160H162.667V164.667H153.333V155.333H158V154H153.333ZM159.333 154V155.333H161.724L155.529 161.529L156.471 162.471L162.667 156.276V158.667H164V154H159.333Z" fill="#79828D"/>
<path d="M29.3427 198.232L27.9282 197.81C27.766 197.762 27.6525 197.598 27.6525 197.412C27.6525 197.185 27.8191 197 28.0235 197H28.9071C29.0504 197 29.1887 197.04 29.3101 197.116C29.4119 197.18 29.5414 197.176 29.6285 197.093L29.9978 196.743C30.1088 196.638 30.1025 196.455 29.9799 196.364C29.6939 196.15 29.3487 196.027 28.9938 196.009V195.5C28.9938 195.362 28.8813 195.25 28.7424 195.25H28.2394C28.1005 195.25 27.9879 195.362 27.9879 195.5V196.004C27.2455 196.023 26.6466 196.646 26.6466 197.412C26.6466 198.036 27.0546 198.594 27.6393 198.768L29.0539 199.19C29.2161 199.238 29.3295 199.402 29.3295 199.588C29.3295 199.815 29.1629 200 28.9586 200H28.075C27.9317 200 27.7934 199.96 27.672 199.884C27.5702 199.82 27.4407 199.824 27.3536 199.907L26.9842 200.257C26.8733 200.362 26.8796 200.545 27.0022 200.636C27.2882 200.85 27.6334 200.973 27.9882 200.991V201.5C27.9882 201.638 28.1008 201.75 28.2397 201.75H28.7427C28.8816 201.75 28.9941 201.638 28.9941 201.5V200.996C29.7366 200.977 30.3354 200.354 30.3354 199.588C30.3354 198.964 29.9274 198.406 29.3427 198.232V198.232ZM37.9362 207.049L33.8815 203.018C33.8092 202.946 33.7149 202.909 33.6143 202.909H33.2906C34.3688 201.749 35.0289 200.203 35.0289 198.5C35.0289 194.909 32.1024 192 28.4909 192C24.8794 192 21.9529 194.909 21.9529 198.5C21.9529 202.09 24.8794 204.999 28.4909 204.999C30.204 204.999 31.7597 204.343 32.9259 203.274V203.593C32.9259 203.693 32.9668 203.787 33.0359 203.859L37.0906 207.89C37.2384 208.037 37.4773 208.037 37.625 207.89L37.9362 207.58C38.0843 207.434 38.0843 207.196 37.9362 207.049ZM28.4909 203.999C25.4326 203.999 22.9588 201.54 22.9588 198.5C22.9588 195.459 25.4326 193 28.4909 193C31.5491 193 34.023 195.459 34.023 198.5C34.023 201.54 31.5494 203.999 28.4909 203.999Z" fill="#79828D"/>
<path d="M47.26 204V193.99H48.954L52.048 201.788L55.044 193.99H56.724V204H55.506V195.572L52.188 204H51.81L48.38 195.572V204H47.26ZM61.2002 204.126C59.8422 204.126 58.7642 203.468 58.7642 201.97C58.7642 200.276 60.5562 199.702 62.4322 199.702H63.4822V199.17C63.4822 198.008 63.0342 197.518 61.9142 197.518C60.9062 197.518 60.3462 197.938 60.2342 198.834H59.0722C59.2262 197.168 60.5562 196.552 61.9702 196.552C63.3702 196.552 64.6442 197.126 64.6442 199.17V204H63.4822V203.076C62.9362 203.762 62.2782 204.126 61.2002 204.126ZM61.3122 203.202C62.5442 203.202 63.4822 202.572 63.4822 201.438V200.528H62.4742C61.0042 200.528 59.9262 200.892 59.9262 201.97C59.9262 202.726 60.2902 203.202 61.3122 203.202ZM67.1268 204V196.678H68.2888V197.994C68.7508 197.168 69.3808 196.594 70.6968 196.552V197.644C69.2268 197.714 68.2888 198.176 68.2888 199.982V204H67.1268ZM72.5905 204V193.178H73.7525V200.052L76.7905 196.678H78.1485L75.0125 200.08L78.4145 204H77.0005L73.7525 200.206V204H72.5905ZM82.7318 204.126C80.6598 204.126 79.1898 202.67 79.1898 200.416V200.304C79.1898 198.092 80.6038 196.552 82.6198 196.552C84.3138 196.552 85.9098 197.574 85.9098 200.192V200.57H80.3938C80.4498 202.236 81.2478 203.16 82.7458 203.16C83.8798 203.16 84.5378 202.74 84.6918 201.886H85.8538C85.6018 203.356 84.3838 204.126 82.7318 204.126ZM80.4358 199.632H84.7198C84.6078 198.12 83.8238 197.518 82.6198 197.518C81.4298 197.518 80.6318 198.33 80.4358 199.632ZM90.1188 204.098C88.7888 204.098 88.1448 203.314 88.1448 202.166V197.658H87.0948V196.678H88.1448V195.012H89.3068V196.678H91.0148V197.658H89.3068V202.054C89.3068 202.768 89.6288 203.118 90.2168 203.118C90.5808 203.118 90.8608 203.062 91.1128 202.964V203.944C90.8748 204.028 90.5948 204.098 90.1188 204.098ZM93.6574 195.152C93.2374 195.152 92.8874 194.802 92.8874 194.382C92.8874 193.962 93.2374 193.612 93.6574 193.612C94.0774 193.612 94.4274 193.962 94.4274 194.382C94.4274 194.802 94.0774 195.152 93.6574 195.152ZM93.0974 204V196.678H94.2594V204H93.0974ZM96.8377 204V196.678H97.9997V197.84C98.3357 197.154 99.1477 196.552 100.352 196.552C101.864 196.552 102.928 197.378 102.928 199.506V204H101.766V199.422C101.766 198.134 101.22 197.56 100.044 197.56C98.9657 197.56 97.9997 198.246 97.9997 199.562V204H96.8377ZM108.331 206.674C106.161 206.674 105.209 205.652 105.013 204.42H106.203C106.371 205.26 107.071 205.694 108.317 205.694C109.759 205.694 110.669 205.008 110.669 203.44V202.376C110.249 203.09 109.255 203.762 108.191 203.762C106.273 203.762 104.859 202.306 104.859 200.29V200.192C104.859 198.204 106.259 196.552 108.275 196.552C109.493 196.552 110.249 197.14 110.669 197.854V196.678H111.831V203.51C111.817 205.638 110.375 206.674 108.331 206.674ZM108.317 202.796C109.675 202.796 110.711 201.844 110.711 200.206V200.108C110.711 198.47 109.815 197.518 108.387 197.518C106.931 197.518 106.063 198.596 106.063 200.136V200.248C106.063 201.844 107.085 202.796 108.317 202.796ZM117.615 204L121.059 193.99H122.655L126.043 204H124.839L123.859 201.116H119.729L118.763 204H117.615ZM121.801 194.998L120.065 200.15H123.537L121.801 194.998ZM127.921 204V196.678H129.083V197.84C129.419 197.154 130.231 196.552 131.435 196.552C132.947 196.552 134.011 197.378 134.011 199.506V204H132.849V199.422C132.849 198.134 132.303 197.56 131.127 197.56C130.049 197.56 129.083 198.246 129.083 199.562V204H127.921ZM138.322 204.126C136.964 204.126 135.886 203.468 135.886 201.97C135.886 200.276 137.678 199.702 139.554 199.702H140.604V199.17C140.604 198.008 140.156 197.518 139.036 197.518C138.028 197.518 137.468 197.938 137.356 198.834H136.194C136.348 197.168 137.678 196.552 139.092 196.552C140.492 196.552 141.766 197.126 141.766 199.17V204H140.604V203.076C140.058 203.762 139.4 204.126 138.322 204.126ZM138.434 203.202C139.666 203.202 140.604 202.572 140.604 201.438V200.528H139.596C138.126 200.528 137.048 200.892 137.048 201.97C137.048 202.726 137.412 203.202 138.434 203.202ZM144.277 204V193.178H145.453V204H144.277ZM148.689 206.548L150.075 203.244L147.205 196.678H148.451L150.691 201.928L152.721 196.678H153.911L149.865 206.548H148.689ZM157.909 204.126C156.159 204.126 155.109 203.244 155.039 201.746H156.173C156.257 202.614 156.719 203.16 157.895 203.16C159.001 203.16 159.491 202.782 159.491 201.998C159.491 201.228 158.917 200.976 157.783 200.766C155.879 200.416 155.235 199.884 155.235 198.61C155.235 197.252 156.565 196.552 157.713 196.552C159.029 196.552 160.163 197.084 160.359 198.666H159.239C159.071 197.868 158.623 197.518 157.699 197.518C156.859 197.518 156.313 197.938 156.313 198.568C156.313 199.226 156.677 199.492 158.021 199.73C159.533 200.01 160.597 200.346 160.597 201.9C160.597 203.23 159.687 204.126 157.909 204.126ZM163.155 195.152C162.735 195.152 162.385 194.802 162.385 194.382C162.385 193.962 162.735 193.612 163.155 193.612C163.575 193.612 163.925 193.962 163.925 194.382C163.925 194.802 163.575 195.152 163.155 195.152ZM162.595 204V196.678H163.757V204H162.595ZM168.604 204.126C166.854 204.126 165.804 203.244 165.734 201.746H166.868C166.952 202.614 167.414 203.16 168.59 203.16C169.696 203.16 170.186 202.782 170.186 201.998C170.186 201.228 169.612 200.976 168.478 200.766C166.574 200.416 165.93 199.884 165.93 198.61C165.93 197.252 167.26 196.552 168.408 196.552C169.724 196.552 170.858 197.084 171.054 198.666H169.934C169.766 197.868 169.318 197.518 168.394 197.518C167.554 197.518 167.008 197.938 167.008 198.568C167.008 199.226 167.372 199.492 168.716 199.73C170.228 200.01 171.292 200.346 171.292 201.9C171.292 203.23 170.382 204.126 168.604 204.126Z" fill="white"/>
<path d="M36.0354 232H23.9647C22.855 232 21.9529 232.897 21.9529 234V243C21.9529 244.103 22.855 245 23.9647 245H26.9823V247.625C26.9823 247.847 27.1647 248 27.3596 248C27.435 248 27.5136 247.978 27.5827 247.925L31.5089 245H36.0354C37.145 245 38.0472 244.103 38.0472 243V234C38.0472 232.897 37.145 232 36.0354 232ZM37.0413 243C37.0413 243.55 36.5886 244 36.0354 244H31.1725L30.9053 244.2L27.9882 246.375V244H23.9647C23.4114 244 22.9588 243.55 22.9588 243V234C22.9588 233.45 23.4114 233 23.9647 233H36.0354C36.5886 233 37.0413 233.45 37.0413 234V243ZM30.7545 239.5H26.2279C26.0896 239.5 25.9765 239.612 25.9765 239.75V240.25C25.9765 240.388 26.0896 240.5 26.2279 240.5H30.7545C30.8928 240.5 31.0059 240.388 31.0059 240.25V239.75C31.0059 239.612 30.8928 239.5 30.7545 239.5ZM33.7721 236.5H26.2279C26.0896 236.5 25.9765 236.612 25.9765 236.75V237.25C25.9765 237.388 26.0896 237.5 26.2279 237.5H33.7721C33.9104 237.5 34.0236 237.388 34.0236 237.25V236.75C34.0236 236.612 33.9104 236.5 33.7721 236.5Z" fill="#79828D"/>
<path d="M47.26 244V233.99H48.478V243.006H53.056V244H47.26ZM57.7275 244.126C55.6555 244.126 54.1855 242.67 54.1855 240.416V240.304C54.1855 238.092 55.5995 236.552 57.6155 236.552C59.3095 236.552 60.9055 237.574 60.9055 240.192V240.57H55.3895C55.4455 242.236 56.2435 243.16 57.7415 243.16C58.8755 243.16 59.5335 242.74 59.6875 241.886H60.8495C60.5975 243.356 59.3795 244.126 57.7275 244.126ZM55.4315 239.632H59.7155C59.6035 238.12 58.8195 237.518 57.6155 237.518C56.4255 237.518 55.6275 238.33 55.4315 239.632ZM64.7909 244.126C63.4329 244.126 62.3549 243.468 62.3549 241.97C62.3549 240.276 64.1469 239.702 66.0229 239.702H67.0729V239.17C67.0729 238.008 66.6249 237.518 65.5049 237.518C64.4969 237.518 63.9369 237.938 63.8249 238.834H62.6629C62.8169 237.168 64.1469 236.552 65.5609 236.552C66.9609 236.552 68.2349 237.126 68.2349 239.17V244H67.0729V243.076C66.5269 243.762 65.8689 244.126 64.7909 244.126ZM64.9029 243.202C66.1349 243.202 67.0729 242.572 67.0729 241.438V240.528H66.0649C64.5949 240.528 63.5169 240.892 63.5169 241.97C63.5169 242.726 63.8809 243.202 64.9029 243.202ZM73.4754 244.126C71.5574 244.126 70.1714 242.768 70.1714 240.486V240.374C70.1714 238.134 71.5714 236.552 73.5874 236.552C74.8054 236.552 75.5614 237.14 75.9814 237.854V233.178H77.1434V244H75.9814V242.74C75.5614 243.454 74.5394 244.126 73.4754 244.126ZM73.6014 243.16C74.9594 243.16 76.0234 242.264 76.0234 240.388V240.276C76.0234 238.4 75.1274 237.518 73.6994 237.518C72.2434 237.518 71.3754 238.54 71.3754 240.318V240.43C71.3754 242.278 72.3694 243.16 73.6014 243.16ZM81.9627 244.126C80.2127 244.126 79.1627 243.244 79.0927 241.746H80.2267C80.3107 242.614 80.7727 243.16 81.9487 243.16C83.0547 243.16 83.5447 242.782 83.5447 241.998C83.5447 241.228 82.9707 240.976 81.8367 240.766C79.9327 240.416 79.2887 239.884 79.2887 238.61C79.2887 237.252 80.6187 236.552 81.7667 236.552C83.0827 236.552 84.2167 237.084 84.4127 238.666H83.2927C83.1247 237.868 82.6767 237.518 81.7527 237.518C80.9127 237.518 80.3667 237.938 80.3667 238.568C80.3667 239.226 80.7307 239.492 82.0747 239.73C83.5867 240.01 84.6507 240.346 84.6507 241.9C84.6507 243.23 83.7407 244.126 81.9627 244.126Z" fill="white"/>
<path d="M47.26 276V265.99H48.478V275.006H53.056V276H47.26ZM57.7275 276.126C55.6555 276.126 54.1855 274.67 54.1855 272.416V272.304C54.1855 270.092 55.5995 268.552 57.6155 268.552C59.3095 268.552 60.9055 269.574 60.9055 272.192V272.57H55.3895C55.4455 274.236 56.2435 275.16 57.7415 275.16C58.8755 275.16 59.5335 274.74 59.6875 273.886H60.8495C60.5975 275.356 59.3795 276.126 57.7275 276.126ZM55.4315 271.632H59.7155C59.6035 270.12 58.8195 269.518 57.6155 269.518C56.4255 269.518 55.6275 270.33 55.4315 271.632ZM64.7909 276.126C63.4329 276.126 62.3549 275.468 62.3549 273.97C62.3549 272.276 64.1469 271.702 66.0229 271.702H67.0729V271.17C67.0729 270.008 66.6249 269.518 65.5049 269.518C64.4969 269.518 63.9369 269.938 63.8249 270.834H62.6629C62.8169 269.168 64.1469 268.552 65.5609 268.552C66.9609 268.552 68.2349 269.126 68.2349 271.17V276H67.0729V275.076C66.5269 275.762 65.8689 276.126 64.7909 276.126ZM64.9029 275.202C66.1349 275.202 67.0729 274.572 67.0729 273.438V272.528H66.0649C64.5949 272.528 63.5169 272.892 63.5169 273.97C63.5169 274.726 63.8809 275.202 64.9029 275.202ZM73.4754 276.126C71.5574 276.126 70.1714 274.768 70.1714 272.486V272.374C70.1714 270.134 71.5714 268.552 73.5874 268.552C74.8054 268.552 75.5614 269.14 75.9814 269.854V265.178H77.1434V276H75.9814V274.74C75.5614 275.454 74.5394 276.126 73.4754 276.126ZM73.6014 275.16C74.9594 275.16 76.0234 274.264 76.0234 272.388V272.276C76.0234 270.4 75.1274 269.518 73.6994 269.518C72.2434 269.518 71.3754 270.54 71.3754 272.318V272.43C71.3754 274.278 72.3694 275.16 73.6014 275.16ZM81.9627 276.126C80.2127 276.126 79.1627 275.244 79.0927 273.746H80.2267C80.3107 274.614 80.7727 275.16 81.9487 275.16C83.0547 275.16 83.5447 274.782 83.5447 273.998C83.5447 273.228 82.9707 272.976 81.8367 272.766C79.9327 272.416 79.2887 271.884 79.2887 270.61C79.2887 269.252 80.6187 268.552 81.7667 268.552C83.0827 268.552 84.2167 269.084 84.4127 270.666H83.2927C83.1247 269.868 82.6767 269.518 81.7527 269.518C80.9127 269.518 80.3667 269.938 80.3667 270.568C80.3667 271.226 80.7307 271.492 82.0747 271.73C83.5867 272.01 84.6507 272.346 84.6507 273.9C84.6507 275.23 83.7407 276.126 81.9627 276.126ZM89.8544 276L93.2984 265.99H94.8944L98.2824 276H97.0784L96.0984 273.116H91.9684L91.0024 276H89.8544ZM94.0404 266.998L92.3044 272.15H95.7764L94.0404 266.998ZM100.314 276V265.99H101.532V276H100.314Z" fill="white"/>
<path d="M47.26 308V297.99H48.478V307.006H53.056V308H47.26ZM57.7275 308.126C55.6555 308.126 54.1855 306.67 54.1855 304.416V304.304C54.1855 302.092 55.5995 300.552 57.6155 300.552C59.3095 300.552 60.9055 301.574 60.9055 304.192V304.57H55.3895C55.4455 306.236 56.2435 307.16 57.7415 307.16C58.8755 307.16 59.5335 306.74 59.6875 305.886H60.8495C60.5975 307.356 59.3795 308.126 57.7275 308.126ZM55.4315 303.632H59.7155C59.6035 302.12 58.8195 301.518 57.6155 301.518C56.4255 301.518 55.6275 302.33 55.4315 303.632ZM64.7909 308.126C63.4329 308.126 62.3549 307.468 62.3549 305.97C62.3549 304.276 64.1469 303.702 66.0229 303.702H67.0729V303.17C67.0729 302.008 66.6249 301.518 65.5049 301.518C64.4969 301.518 63.9369 301.938 63.8249 302.834H62.6629C62.8169 301.168 64.1469 300.552 65.5609 300.552C66.9609 300.552 68.2349 301.126 68.2349 303.17V308H67.0729V307.076C66.5269 307.762 65.8689 308.126 64.7909 308.126ZM64.9029 307.202C66.1349 307.202 67.0729 306.572 67.0729 305.438V304.528H66.0649C64.5949 304.528 63.5169 304.892 63.5169 305.97C63.5169 306.726 63.8809 307.202 64.9029 307.202ZM73.4754 308.126C71.5574 308.126 70.1714 306.768 70.1714 304.486V304.374C70.1714 302.134 71.5714 300.552 73.5874 300.552C74.8054 300.552 75.5614 301.14 75.9814 301.854V297.178H77.1434V308H75.9814V306.74C75.5614 307.454 74.5394 308.126 73.4754 308.126ZM73.6014 307.16C74.9594 307.16 76.0234 306.264 76.0234 304.388V304.276C76.0234 302.4 75.1274 301.518 73.6994 301.518C72.2434 301.518 71.3754 302.54 71.3754 304.318V304.43C71.3754 306.278 72.3694 307.16 73.6014 307.16ZM81.9627 308.126C80.2127 308.126 79.1627 307.244 79.0927 305.746H80.2267C80.3107 306.614 80.7727 307.16 81.9487 307.16C83.0547 307.16 83.5447 306.782 83.5447 305.998C83.5447 305.228 82.9707 304.976 81.8367 304.766C79.9327 304.416 79.2887 303.884 79.2887 302.61C79.2887 301.252 80.6187 300.552 81.7667 300.552C83.0827 300.552 84.2167 301.084 84.4127 302.666H83.2927C83.1247 301.868 82.6767 301.518 81.7527 301.518C80.9127 301.518 80.3667 301.938 80.3667 302.568C80.3667 303.226 80.7307 303.492 82.0747 303.73C83.5867 304.01 84.6507 304.346 84.6507 305.9C84.6507 307.23 83.7407 308.126 81.9627 308.126ZM90.6104 308V297.99H93.6204C95.5384 297.99 97.1204 298.774 97.1204 300.776V300.832C97.1204 302.484 96.0144 303.296 94.6424 303.562L97.7084 308H96.3504L93.3684 303.646H91.8284V308H90.6104ZM91.8284 302.68H93.7044C95.1324 302.68 95.9024 302.064 95.9024 300.832V300.776C95.9024 299.418 95.0624 298.97 93.7044 298.97H91.8284V302.68ZM102.308 308.126C100.236 308.126 98.7663 306.67 98.7663 304.416V304.304C98.7663 302.092 100.18 300.552 102.196 300.552C103.89 300.552 105.486 301.574 105.486 304.192V304.57H99.9703C100.026 306.236 100.824 307.16 102.322 307.16C103.456 307.16 104.114 306.74 104.268 305.886H105.43C105.178 307.356 103.96 308.126 102.308 308.126ZM100.012 303.632H104.296C104.184 302.12 103.4 301.518 102.196 301.518C101.006 301.518 100.208 302.33 100.012 303.632ZM107.469 310.548V300.678H108.631V301.91C109.051 301.196 110.045 300.552 111.109 300.552C113.027 300.552 114.441 301.952 114.441 304.234V304.346C114.441 306.586 113.125 308.126 111.109 308.126C109.905 308.126 109.051 307.524 108.631 306.796V310.548H107.469ZM110.997 307.16C112.453 307.16 113.237 306.18 113.237 304.402V304.29C113.237 302.442 112.215 301.518 110.983 301.518C109.625 301.518 108.589 302.414 108.589 304.29V304.402C108.589 306.278 109.569 307.16 110.997 307.16ZM119.485 308.126C117.399 308.126 115.901 306.544 115.901 304.402V304.29C115.901 302.092 117.427 300.552 119.499 300.552C121.571 300.552 123.097 302.078 123.097 304.276V304.388C123.097 306.6 121.571 308.126 119.485 308.126ZM119.499 307.16C120.969 307.16 121.893 306.054 121.893 304.402V304.304C121.893 302.61 120.955 301.518 119.499 301.518C118.029 301.518 117.105 302.61 117.105 304.29V304.402C117.105 306.068 118.015 307.16 119.499 307.16ZM125.096 308V300.678H126.258V301.994C126.72 301.168 127.35 300.594 128.666 300.552V301.644C127.196 301.714 126.258 302.176 126.258 303.982V308H125.096ZM132.854 308.098C131.524 308.098 130.88 307.314 130.88 306.166V301.658H129.83V300.678H130.88V299.012H132.042V300.678H133.75V301.658H132.042V306.054C132.042 306.768 132.364 307.118 132.952 307.118C133.316 307.118 133.596 307.062 133.848 306.964V307.944C133.61 308.028 133.33 308.098 132.854 308.098Z" fill="white"/>
<path d="M33.7721 343.5H26.2279C26.0896 343.5 25.9764 343.612 25.9764 343.75V344.25C25.9764 344.388 26.0896 344.5 26.2279 344.5H33.7721C33.9104 344.5 34.0236 344.388 34.0236 344.25V343.75C34.0236 343.612 33.9104 343.5 33.7721 343.5ZM33.7721 346.5H26.2279C26.0896 346.5 25.9764 346.612 25.9764 346.75V347.25C25.9764 347.388 26.0896 347.5 26.2279 347.5H33.7721C33.9104 347.5 34.0236 347.388 34.0236 347.25V346.75C34.0236 346.612 33.9104 346.5 33.7721 346.5ZM36.1014 336C35.9191 336 35.7304 336.056 35.5576 336.178L34.1902 337.156L32.9768 336.287C32.7128 336.1 32.4047 336.003 32.0935 336.003C31.7855 336.003 31.4774 336.097 31.2134 336.287L30 337.156L28.7866 336.287C28.5226 336.1 28.2114 336.003 27.9033 336.003C27.5953 336.003 27.2872 336.097 27.0232 336.287L25.8098 337.156L24.4424 336.178C24.2727 336.056 24.0841 336 23.8986 336C23.4114 336.003 22.9587 336.384 22.9587 336.934V351.069C22.9587 351.609 23.4082 352 23.8986 352C24.0809 352 24.2695 351.944 24.4424 351.822L25.8098 350.844L27.0232 351.712C27.2872 351.9 27.5953 351.997 27.9065 351.997C28.2145 351.997 28.5226 351.903 28.7866 351.712L30 350.844L31.2134 351.712C31.4774 351.9 31.7886 351.997 32.0967 351.997C32.4047 351.997 32.7128 351.903 32.9768 351.712L34.1902 350.844L35.5576 351.822C35.7273 351.944 35.9159 352 36.1014 352C36.5886 352 37.0381 351.619 37.0381 351.069V336.934C37.0413 336.391 36.5917 336 36.1014 336ZM36.0354 350.931L34.778 350.031L34.1902 349.609L33.6024 350.031L32.389 350.9C32.301 350.962 32.2004 350.994 32.0967 350.994C31.9898 350.994 31.8892 350.959 31.8012 350.897L30.5878 350.031L30 349.609L29.4122 350.031L28.1988 350.9C28.1108 350.962 28.0102 350.994 27.9033 350.994C27.7965 350.994 27.6959 350.959 27.6079 350.897L26.3945 350.031L25.8067 349.609L25.222 350.031L23.9646 350.95V337.069L25.222 337.969L25.8098 338.391L26.3976 337.969L27.611 337.1C27.699 337.038 27.7996 337.006 27.9033 337.006C28.0102 337.006 28.1108 337.041 28.1988 337.103L29.4122 337.969L30 338.391L30.5878 337.969L31.8012 337.1C31.8892 337.038 31.9898 337.006 32.0967 337.006C32.2035 337.006 32.3041 337.041 32.3921 337.103L33.6055 337.969L34.1933 338.391L34.778 337.969L36.0354 337.069V350.931ZM33.7721 340.5H26.2279C26.0896 340.5 25.9764 340.612 25.9764 340.75V341.25C25.9764 341.388 26.0896 341.5 26.2279 341.5H33.7721C33.9104 341.5 34.0236 341.388 34.0236 341.25V340.75C34.0236 340.612 33.9104 340.5 33.7721 340.5Z" fill="#79828D"/>
<path d="M50.494 348.126C47.82 348.126 46.854 346.656 46.672 344.948H47.848C48.002 346.138 48.478 347.146 50.494 347.146C51.782 347.146 52.776 346.39 52.776 345.256C52.776 344.122 52.258 343.646 50.354 343.338C48.254 343.016 47.008 342.358 47.008 340.58C47.008 339.04 48.338 337.864 50.228 337.864C52.23 337.864 53.476 338.844 53.672 340.622H52.58C52.342 339.362 51.614 338.844 50.228 338.844C48.856 338.844 48.142 339.53 48.142 340.468C48.142 341.448 48.506 341.952 50.55 342.26C52.776 342.61 53.952 343.282 53.952 345.172C53.952 346.852 52.482 348.126 50.494 348.126ZM59.1493 348.126C57.0773 348.126 55.6073 346.67 55.6073 344.416V344.304C55.6073 342.092 57.0213 340.552 59.0373 340.552C60.7313 340.552 62.3273 341.574 62.3273 344.192V344.57H56.8113C56.8673 346.236 57.6653 347.16 59.1633 347.16C60.2973 347.16 60.9553 346.74 61.1093 345.886H62.2713C62.0193 347.356 60.8013 348.126 59.1493 348.126ZM56.8533 343.632H61.1373C61.0253 342.12 60.2413 341.518 59.0373 341.518C57.8473 341.518 57.0493 342.33 56.8533 343.632ZM64.3384 348V337.178H65.5144V348H64.3384ZM68.1204 348V337.178H69.2964V348H68.1204ZM75.8635 348V337.99H77.5575L80.6515 345.788L83.6475 337.99H85.3275V348H84.1095V339.572L80.7915 348H80.4135L76.9835 339.572V348H75.8635ZM88.6278 350.548L90.0138 347.244L87.1438 340.678H88.3898L90.6298 345.928L92.6598 340.678H93.8498L89.8038 350.548H88.6278ZM103.755 348.126C100.857 348.126 99.079 346.138 99.079 343.058V342.946C99.079 339.978 101.067 337.836 103.783 337.836C105.869 337.836 107.633 338.942 107.843 341.112H106.639C106.387 339.586 105.505 338.802 103.797 338.802C101.725 338.802 100.339 340.412 100.339 342.932V343.044C100.339 345.592 101.627 347.132 103.783 347.132C105.421 347.132 106.555 346.306 106.807 344.682H107.941C107.591 346.992 105.995 348.126 103.755 348.126ZM111.882 348.126C110.524 348.126 109.446 347.468 109.446 345.97C109.446 344.276 111.238 343.702 113.114 343.702H114.164V343.17C114.164 342.008 113.716 341.518 112.596 341.518C111.588 341.518 111.028 341.938 110.916 342.834H109.754C109.908 341.168 111.238 340.552 112.652 340.552C114.052 340.552 115.326 341.126 115.326 343.17V348H114.164V347.076C113.618 347.762 112.96 348.126 111.882 348.126ZM111.994 347.202C113.226 347.202 114.164 346.572 114.164 345.438V344.528H113.156C111.686 344.528 110.608 344.892 110.608 345.97C110.608 346.726 110.972 347.202 111.994 347.202ZM117.809 348V340.678H118.971V341.994C119.433 341.168 120.063 340.594 121.379 340.552V341.644C119.909 341.714 118.971 342.176 118.971 343.982V348H117.809Z" fill="white"/>
<path d="M47.26 380V369.99H48.478V379.006H53.056V380H47.26ZM57.7275 380.126C55.6555 380.126 54.1855 378.67 54.1855 376.416V376.304C54.1855 374.092 55.5995 372.552 57.6155 372.552C59.3095 372.552 60.9055 373.574 60.9055 376.192V376.57H55.3895C55.4455 378.236 56.2435 379.16 57.7415 379.16C58.8755 379.16 59.5335 378.74 59.6875 377.886H60.8495C60.5975 379.356 59.3795 380.126 57.7275 380.126ZM55.4315 375.632H59.7155C59.6035 374.12 58.8195 373.518 57.6155 373.518C56.4255 373.518 55.6275 374.33 55.4315 375.632ZM64.7909 380.126C63.4329 380.126 62.3549 379.468 62.3549 377.97C62.3549 376.276 64.1469 375.702 66.0229 375.702H67.0729V375.17C67.0729 374.008 66.6249 373.518 65.5049 373.518C64.4969 373.518 63.9369 373.938 63.8249 374.834H62.6629C62.8169 373.168 64.1469 372.552 65.5609 372.552C66.9609 372.552 68.2349 373.126 68.2349 375.17V380H67.0729V379.076C66.5269 379.762 65.8689 380.126 64.7909 380.126ZM64.9029 379.202C66.1349 379.202 67.0729 378.572 67.0729 377.438V376.528H66.0649C64.5949 376.528 63.5169 376.892 63.5169 377.97C63.5169 378.726 63.8809 379.202 64.9029 379.202ZM73.4754 380.126C71.5574 380.126 70.1714 378.768 70.1714 376.486V376.374C70.1714 374.134 71.5714 372.552 73.5874 372.552C74.8054 372.552 75.5614 373.14 75.9814 373.854V369.178H77.1434V380H75.9814V378.74C75.5614 379.454 74.5394 380.126 73.4754 380.126ZM73.6014 379.16C74.9594 379.16 76.0234 378.264 76.0234 376.388V376.276C76.0234 374.4 75.1274 373.518 73.6994 373.518C72.2434 373.518 71.3754 374.54 71.3754 376.318V376.43C71.3754 378.278 72.3694 379.16 73.6014 379.16ZM81.9627 380.126C80.2127 380.126 79.1627 379.244 79.0927 377.746H80.2267C80.3107 378.614 80.7727 379.16 81.9487 379.16C83.0547 379.16 83.5447 378.782 83.5447 377.998C83.5447 377.228 82.9707 376.976 81.8367 376.766C79.9327 376.416 79.2887 375.884 79.2887 374.61C79.2887 373.252 80.6187 372.552 81.7667 372.552C83.0827 372.552 84.2167 373.084 84.4127 374.666H83.2927C83.1247 373.868 82.6767 373.518 81.7527 373.518C80.9127 373.518 80.3667 373.938 80.3667 374.568C80.3667 375.226 80.7307 375.492 82.0747 375.73C83.5867 376.01 84.6507 376.346 84.6507 377.9C84.6507 379.23 83.7407 380.126 81.9627 380.126Z" fill="white"/>
<path d="M46.504 412L49.948 401.99H51.544L54.932 412H53.728L52.748 409.116H48.618L47.652 412H46.504ZM50.69 402.998L48.954 408.15H52.426L50.69 402.998ZM56.8376 412V401.178H58.0136V412H56.8376ZM60.6196 412V401.178H61.7956V412H60.6196ZM72.8287 412.126C69.8747 412.126 67.8727 409.858 67.8727 407.058V406.946C67.8727 404.104 69.8607 401.864 72.8007 401.864C75.7407 401.864 77.6867 404.104 77.6867 406.918V407.03C77.6867 409.858 75.7407 412.126 72.8287 412.126ZM72.8287 411.118C75.0547 411.118 76.4267 409.438 76.4267 407.016V406.904C76.4267 404.664 75.1107 402.844 72.8007 402.844C70.4767 402.844 69.1327 404.552 69.1327 406.932V407.044C69.1327 409.466 70.7427 411.118 72.8287 411.118ZM80.1468 412V405.658H79.0968V404.678H80.1468V403.586C80.1468 402.102 80.8748 401.234 82.3308 401.234C82.7088 401.234 82.9048 401.276 83.1988 401.374V402.354C82.9888 402.27 82.6948 402.2 82.3728 402.2C81.6168 402.2 81.3088 402.718 81.3088 403.46V404.678H84.1788V403.488C84.1788 402.004 84.9068 401.136 86.3628 401.136C86.7408 401.136 86.9368 401.178 87.2308 401.276V402.256C87.0208 402.172 86.7268 402.102 86.4048 402.102C85.6488 402.102 85.3408 402.62 85.3408 403.362V404.678H87.1328V405.658H85.3408V412H84.1788V405.658H81.3088V412H80.1468ZM91.6083 412.126C89.5363 412.126 88.0663 410.67 88.0663 408.416V408.304C88.0663 406.092 89.4803 404.552 91.4963 404.552C93.1903 404.552 94.7863 405.574 94.7863 408.192V408.57H89.2703C89.3263 410.236 90.1243 411.16 91.6223 411.16C92.7563 411.16 93.4143 410.74 93.5683 409.886H94.7303C94.4783 411.356 93.2603 412.126 91.6083 412.126ZM89.3123 407.632H93.5963C93.4843 406.12 92.7003 405.518 91.4963 405.518C90.3063 405.518 89.5083 406.33 89.3123 407.632ZM96.7694 412V404.678H97.9314V405.994C98.3934 405.168 99.0234 404.594 100.339 404.552V405.644C98.8694 405.714 97.9314 406.176 97.9314 407.982V412H96.7694ZM104.433 412.126C102.683 412.126 101.633 411.244 101.563 409.746H102.697C102.781 410.614 103.243 411.16 104.419 411.16C105.525 411.16 106.015 410.782 106.015 409.998C106.015 409.228 105.441 408.976 104.307 408.766C102.403 408.416 101.759 407.884 101.759 406.61C101.759 405.252 103.089 404.552 104.237 404.552C105.553 404.552 106.687 405.084 106.883 406.666H105.763C105.595 405.868 105.147 405.518 104.223 405.518C103.383 405.518 102.837 405.938 102.837 406.568C102.837 407.226 103.201 407.492 104.545 407.73C106.057 408.01 107.121 408.346 107.121 409.9C107.121 411.23 106.211 412.126 104.433 412.126Z" fill="white"/>
<path d="M47.26 444V433.99H50.102C52.02 433.99 53.602 434.83 53.602 436.916V436.972C53.602 439.1 52.006 439.926 50.102 439.926H48.478V444H47.26ZM48.478 438.96H50.186C51.614 438.96 52.384 438.26 52.384 436.972V436.916C52.384 435.502 51.544 434.97 50.186 434.97H48.478V438.96ZM58.3017 444.126C56.2297 444.126 54.7597 442.67 54.7597 440.416V440.304C54.7597 438.092 56.1737 436.552 58.1897 436.552C59.8837 436.552 61.4797 437.574 61.4797 440.192V440.57H55.9637C56.0197 442.236 56.8177 443.16 58.3157 443.16C59.4497 443.16 60.1077 442.74 60.2617 441.886H61.4237C61.1717 443.356 59.9537 444.126 58.3017 444.126ZM56.0057 439.632H60.2897C60.1777 438.12 59.3937 437.518 58.1897 437.518C56.9997 437.518 56.2017 438.33 56.0057 439.632ZM63.4627 444V436.678H64.6247V437.994C65.0867 437.168 65.7167 436.594 67.0327 436.552V437.644C65.5627 437.714 64.6247 438.176 64.6247 439.982V444H63.4627ZM69.3151 444V437.658H68.2651V436.678H69.3151V435.488C69.3151 434.004 70.0431 433.136 71.4991 433.136C71.8771 433.136 72.0731 433.178 72.3671 433.276V434.256C72.1571 434.172 71.8631 434.102 71.5411 434.102C70.7851 434.102 70.4771 434.62 70.4771 435.362V436.678H72.2691V437.658H70.4771V444H69.3151ZM76.7855 444.126C74.6995 444.126 73.2015 442.544 73.2015 440.402V440.29C73.2015 438.092 74.7275 436.552 76.7995 436.552C78.8715 436.552 80.3975 438.078 80.3975 440.276V440.388C80.3975 442.6 78.8715 444.126 76.7855 444.126ZM76.7995 443.16C78.2695 443.16 79.1935 442.054 79.1935 440.402V440.304C79.1935 438.61 78.2555 437.518 76.7995 437.518C75.3295 437.518 74.4055 438.61 74.4055 440.29V440.402C74.4055 442.068 75.3155 443.16 76.7995 443.16ZM82.3967 444V436.678H83.5587V437.994C84.0207 437.168 84.6507 436.594 85.9667 436.552V437.644C84.4967 437.714 83.5587 438.176 83.5587 439.982V444H82.3967ZM87.8604 444V436.678H89.0224V437.798C89.3584 437.112 90.1564 436.552 91.2064 436.552C92.1444 436.552 92.9704 436.944 93.3484 437.924C93.8524 436.972 94.9444 436.552 95.8544 436.552C97.1704 436.552 98.3184 437.336 98.3184 439.464V444H97.1564V439.38C97.1564 438.092 96.6104 437.56 95.6024 437.56C94.6504 437.56 93.6704 438.204 93.6704 439.52V444H92.5084V439.38C92.5084 438.092 91.9624 437.56 90.9544 437.56C90.0024 437.56 89.0224 438.204 89.0224 439.52V444H87.8604ZM102.637 444.126C101.279 444.126 100.201 443.468 100.201 441.97C100.201 440.276 101.993 439.702 103.869 439.702H104.919V439.17C104.919 438.008 104.471 437.518 103.351 437.518C102.343 437.518 101.783 437.938 101.671 438.834H100.509C100.663 437.168 101.993 436.552 103.407 436.552C104.807 436.552 106.081 437.126 106.081 439.17V444H104.919V443.076C104.373 443.762 103.715 444.126 102.637 444.126ZM102.749 443.202C103.981 443.202 104.919 442.572 104.919 441.438V440.528H103.911C102.441 440.528 101.363 440.892 101.363 441.97C101.363 442.726 101.727 443.202 102.749 443.202ZM108.563 444V436.678H109.725V437.84C110.061 437.154 110.873 436.552 112.077 436.552C113.589 436.552 114.653 437.378 114.653 439.506V444H113.491V439.422C113.491 438.134 112.945 437.56 111.769 437.56C110.691 437.56 109.725 438.246 109.725 439.562V444H108.563ZM120.168 444.126C118.124 444.126 116.584 442.684 116.584 440.416V440.304C116.584 438.064 118.18 436.552 120.14 436.552C121.666 436.552 123.094 437.252 123.318 439.114H122.17C121.988 437.952 121.148 437.518 120.14 437.518C118.81 437.518 117.788 438.582 117.788 440.304V440.416C117.788 442.208 118.768 443.16 120.182 443.16C121.218 443.16 122.156 442.558 122.282 441.368H123.36C123.206 442.95 121.932 444.126 120.168 444.126ZM128.311 444.126C126.239 444.126 124.769 442.67 124.769 440.416V440.304C124.769 438.092 126.183 436.552 128.199 436.552C129.893 436.552 131.489 437.574 131.489 440.192V440.57H125.973C126.029 442.236 126.827 443.16 128.325 443.16C129.459 443.16 130.117 442.74 130.271 441.886H131.433C131.181 443.356 129.963 444.126 128.311 444.126ZM126.015 439.632H130.299C130.187 438.12 129.403 437.518 128.199 437.518C127.009 437.518 126.211 438.33 126.015 439.632Z" fill="white"/>
<path d="M47.26 476V465.99H48.954L52.048 473.788L55.044 465.99H56.724V476H55.506V467.572L52.188 476H51.81L48.38 467.572V476H47.26ZM61.2002 476.126C59.8422 476.126 58.7642 475.468 58.7642 473.97C58.7642 472.276 60.5562 471.702 62.4322 471.702H63.4822V471.17C63.4822 470.008 63.0342 469.518 61.9142 469.518C60.9062 469.518 60.3462 469.938 60.2342 470.834H59.0722C59.2262 469.168 60.5562 468.552 61.9702 468.552C63.3702 468.552 64.6442 469.126 64.6442 471.17V476H63.4822V475.076C62.9362 475.762 62.2782 476.126 61.2002 476.126ZM61.3122 475.202C62.5442 475.202 63.4822 474.572 63.4822 473.438V472.528H62.4742C61.0042 472.528 59.9262 472.892 59.9262 473.97C59.9262 474.726 60.2902 475.202 61.3122 475.202ZM69.3528 476.098C68.0228 476.098 67.3788 475.314 67.3788 474.166V469.658H66.3288V468.678H67.3788V467.012H68.5408V468.678H70.2488V469.658H68.5408V474.054C68.5408 474.768 68.8628 475.118 69.4508 475.118C69.8148 475.118 70.0948 475.062 70.3468 474.964V475.944C70.1088 476.028 69.8288 476.098 69.3528 476.098ZM72.3033 476V468.678H73.4653V469.994C73.9273 469.168 74.5573 468.594 75.8733 468.552V469.644C74.4033 469.714 73.4653 470.176 73.4653 471.982V476H72.3033ZM78.355 467.152C77.935 467.152 77.585 466.802 77.585 466.382C77.585 465.962 77.935 465.612 78.355 465.612C78.775 465.612 79.125 465.962 79.125 466.382C79.125 466.802 78.775 467.152 78.355 467.152ZM77.795 476V468.678H78.957V476H77.795ZM80.7514 476L83.3694 472.234L80.9194 468.678H82.2774L84.0694 471.338L85.8474 468.678H87.1074L84.6854 472.15L87.3594 476H85.9874L84.0134 473.046L81.9974 476H80.7514ZM96.3549 476.126C93.6809 476.126 92.7149 474.656 92.5329 472.948H93.7089C93.8629 474.138 94.3389 475.146 96.3549 475.146C97.6429 475.146 98.6369 474.39 98.6369 473.256C98.6369 472.122 98.1189 471.646 96.2149 471.338C94.1149 471.016 92.8689 470.358 92.8689 468.58C92.8689 467.04 94.1989 465.864 96.0889 465.864C98.0909 465.864 99.3369 466.844 99.5329 468.622H98.4409C98.2029 467.362 97.4749 466.844 96.0889 466.844C94.7169 466.844 94.0029 467.53 94.0029 468.468C94.0029 469.448 94.3669 469.952 96.4109 470.26C98.6369 470.61 99.8129 471.282 99.8129 473.172C99.8129 474.852 98.3429 476.126 96.3549 476.126ZM102.014 476V468.678H103.176V469.84C103.512 469.154 104.324 468.552 105.528 468.552C107.04 468.552 108.104 469.378 108.104 471.506V476H106.942V471.422C106.942 470.134 106.396 469.56 105.22 469.56C104.142 469.56 103.176 470.246 103.176 471.562V476H102.014ZM112.415 476.126C111.057 476.126 109.979 475.468 109.979 473.97C109.979 472.276 111.771 471.702 113.647 471.702H114.697V471.17C114.697 470.008 114.249 469.518 113.129 469.518C112.121 469.518 111.561 469.938 111.449 470.834H110.287C110.441 469.168 111.771 468.552 113.185 468.552C114.585 468.552 115.859 469.126 115.859 471.17V476H114.697V475.076C114.151 475.762 113.493 476.126 112.415 476.126ZM112.527 475.202C113.759 475.202 114.697 474.572 114.697 473.438V472.528H113.689C112.219 472.528 111.141 472.892 111.141 473.97C111.141 474.726 111.505 475.202 112.527 475.202ZM118.342 478.548V468.678H119.504V469.91C119.924 469.196 120.918 468.552 121.982 468.552C123.9 468.552 125.314 469.952 125.314 472.234V472.346C125.314 474.586 123.998 476.126 121.982 476.126C120.778 476.126 119.924 475.524 119.504 474.796V478.548H118.342ZM121.87 475.16C123.326 475.16 124.11 474.18 124.11 472.402V472.29C124.11 470.442 123.088 469.518 121.856 469.518C120.498 469.518 119.462 470.414 119.462 472.29V472.402C119.462 474.278 120.442 475.16 121.87 475.16ZM129.587 476.126C127.837 476.126 126.787 475.244 126.717 473.746H127.851C127.935 474.614 128.397 475.16 129.573 475.16C130.679 475.16 131.169 474.782 131.169 473.998C131.169 473.228 130.595 472.976 129.461 472.766C127.557 472.416 126.913 471.884 126.913 470.61C126.913 469.252 128.243 468.552 129.391 468.552C130.707 468.552 131.841 469.084 132.037 470.666H130.917C130.749 469.868 130.301 469.518 129.377 469.518C128.537 469.518 127.991 469.938 127.991 470.568C127.991 471.226 128.355 471.492 129.699 471.73C131.211 472.01 132.275 472.346 132.275 473.9C132.275 475.23 131.365 476.126 129.587 476.126ZM134.246 476V465.178H135.408V469.84C135.744 469.154 136.556 468.552 137.76 468.552C139.272 468.552 140.336 469.378 140.336 471.506V476H139.174V471.422C139.174 470.134 138.628 469.56 137.452 469.56C136.374 469.56 135.408 470.246 135.408 471.562V476H134.246ZM145.851 476.126C143.765 476.126 142.267 474.544 142.267 472.402V472.29C142.267 470.092 143.793 468.552 145.865 468.552C147.937 468.552 149.463 470.078 149.463 472.276V472.388C149.463 474.6 147.937 476.126 145.851 476.126ZM145.865 475.16C147.335 475.16 148.259 474.054 148.259 472.402V472.304C148.259 470.61 147.321 469.518 145.865 469.518C144.395 469.518 143.471 470.61 143.471 472.29V472.402C143.471 474.068 144.381 475.16 145.865 475.16ZM153.688 476.098C152.358 476.098 151.714 475.314 151.714 474.166V469.658H150.664V468.678H151.714V467.012H152.876V468.678H154.584V469.658H152.876V474.054C152.876 474.768 153.198 475.118 153.786 475.118C154.15 475.118 154.43 475.062 154.682 474.964V475.944C154.444 476.028 154.164 476.098 153.688 476.098Z" fill="white"/>
<path d="M47.26 508V497.99H48.478V507.006H53.056V508H47.26ZM57.7275 508.126C55.6555 508.126 54.1855 506.67 54.1855 504.416V504.304C54.1855 502.092 55.5995 500.552 57.6155 500.552C59.3095 500.552 60.9055 501.574 60.9055 504.192V504.57H55.3895C55.4455 506.236 56.2435 507.16 57.7415 507.16C58.8755 507.16 59.5335 506.74 59.6875 505.886H60.8495C60.5975 507.356 59.3795 508.126 57.7275 508.126ZM55.4315 503.632H59.7155C59.6035 502.12 58.8195 501.518 57.6155 501.518C56.4255 501.518 55.6275 502.33 55.4315 503.632ZM64.7909 508.126C63.4329 508.126 62.3549 507.468 62.3549 505.97C62.3549 504.276 64.1469 503.702 66.0229 503.702H67.0729V503.17C67.0729 502.008 66.6249 501.518 65.5049 501.518C64.4969 501.518 63.9369 501.938 63.8249 502.834H62.6629C62.8169 501.168 64.1469 500.552 65.5609 500.552C66.9609 500.552 68.2349 501.126 68.2349 503.17V508H67.0729V507.076C66.5269 507.762 65.8689 508.126 64.7909 508.126ZM64.9029 507.202C66.1349 507.202 67.0729 506.572 67.0729 505.438V504.528H66.0649C64.5949 504.528 63.5169 504.892 63.5169 505.97C63.5169 506.726 63.8809 507.202 64.9029 507.202ZM73.4754 508.126C71.5574 508.126 70.1714 506.768 70.1714 504.486V504.374C70.1714 502.134 71.5714 500.552 73.5874 500.552C74.8054 500.552 75.5614 501.14 75.9814 501.854V497.178H77.1434V508H75.9814V506.74C75.5614 507.454 74.5394 508.126 73.4754 508.126ZM73.6014 507.16C74.9594 507.16 76.0234 506.264 76.0234 504.388V504.276C76.0234 502.4 75.1274 501.518 73.6994 501.518C72.2434 501.518 71.3754 502.54 71.3754 504.318V504.43C71.3754 506.278 72.3694 507.16 73.6014 507.16ZM87.8698 508.126C84.9718 508.126 83.1938 506.138 83.1938 503.058V502.946C83.1938 499.978 85.1818 497.836 87.8978 497.836C89.9838 497.836 91.7478 498.942 91.9578 501.112H90.7538C90.5018 499.586 89.6198 498.802 87.9118 498.802C85.8398 498.802 84.4538 500.412 84.4538 502.932V503.044C84.4538 505.592 85.7418 507.132 87.8978 507.132C89.5358 507.132 90.6698 506.306 90.9218 504.682H92.0558C91.7058 506.992 90.1098 508.126 87.8698 508.126ZM95.9971 508.126C94.6391 508.126 93.5611 507.468 93.5611 505.97C93.5611 504.276 95.3531 503.702 97.2291 503.702H98.2791V503.17C98.2791 502.008 97.8311 501.518 96.7111 501.518C95.7031 501.518 95.1431 501.938 95.0311 502.834H93.8691C94.0231 501.168 95.3531 500.552 96.7671 500.552C98.1671 500.552 99.4411 501.126 99.4411 503.17V508H98.2791V507.076C97.7331 507.762 97.0751 508.126 95.9971 508.126ZM96.1091 507.202C97.3411 507.202 98.2791 506.572 98.2791 505.438V504.528H97.2711C95.8011 504.528 94.7231 504.892 94.7231 505.97C94.7231 506.726 95.0871 507.202 96.1091 507.202ZM101.924 510.548V500.678H103.086V501.91C103.506 501.196 104.5 500.552 105.564 500.552C107.482 500.552 108.896 501.952 108.896 504.234V504.346C108.896 506.586 107.58 508.126 105.564 508.126C104.36 508.126 103.506 507.524 103.086 506.796V510.548H101.924ZM105.452 507.16C106.908 507.16 107.692 506.18 107.692 504.402V504.29C107.692 502.442 106.67 501.518 105.438 501.518C104.08 501.518 103.044 502.414 103.044 504.29V504.402C103.044 506.278 104.024 507.16 105.452 507.16ZM114.89 508V497.99H117.536C120.98 497.99 122.604 500.118 122.604 502.904V503.03C122.604 505.802 121.008 508 117.508 508H114.89ZM116.108 507.006H117.48C120.056 507.006 121.344 505.466 121.344 503.016V502.904C121.344 500.594 120.224 498.97 117.466 498.97H116.108V507.006ZM127.75 508.126C125.678 508.126 124.208 506.67 124.208 504.416V504.304C124.208 502.092 125.622 500.552 127.638 500.552C129.332 500.552 130.928 501.574 130.928 504.192V504.57H125.412C125.468 506.236 126.266 507.16 127.764 507.16C128.898 507.16 129.556 506.74 129.71 505.886H130.872C130.62 507.356 129.402 508.126 127.75 508.126ZM125.454 503.632H129.738C129.626 502.12 128.842 501.518 127.638 501.518C126.448 501.518 125.65 502.33 125.454 503.632ZM135.137 508.098C133.807 508.098 133.163 507.314 133.163 506.166V501.658H132.113V500.678H133.163V499.012H134.325V500.678H136.033V501.658H134.325V506.054C134.325 506.768 134.647 507.118 135.235 507.118C135.599 507.118 135.879 507.062 136.131 506.964V507.944C135.893 508.028 135.613 508.098 135.137 508.098ZM139.99 508.126C138.632 508.126 137.554 507.468 137.554 505.97C137.554 504.276 139.346 503.702 141.222 503.702H142.272V503.17C142.272 502.008 141.824 501.518 140.704 501.518C139.696 501.518 139.136 501.938 139.024 502.834H137.862C138.016 501.168 139.346 500.552 140.76 500.552C142.16 500.552 143.434 501.126 143.434 503.17V508H142.272V507.076C141.726 507.762 141.068 508.126 139.99 508.126ZM140.102 507.202C141.334 507.202 142.272 506.572 142.272 505.438V504.528H141.264C139.794 504.528 138.716 504.892 138.716 505.97C138.716 506.726 139.08 507.202 140.102 507.202ZM146.505 499.152C146.085 499.152 145.735 498.802 145.735 498.382C145.735 497.962 146.085 497.612 146.505 497.612C146.925 497.612 147.275 497.962 147.275 498.382C147.275 498.802 146.925 499.152 146.505 499.152ZM145.945 508V500.678H147.107V508H145.945ZM149.713 508V497.178H150.889V508H149.713ZM155.735 508.126C153.985 508.126 152.935 507.244 152.865 505.746H153.999C154.083 506.614 154.545 507.16 155.721 507.16C156.827 507.16 157.317 506.782 157.317 505.998C157.317 505.228 156.743 504.976 155.609 504.766C153.705 504.416 153.061 503.884 153.061 502.61C153.061 501.252 154.391 500.552 155.539 500.552C156.855 500.552 157.989 501.084 158.185 502.666H157.065C156.897 501.868 156.449 501.518 155.525 501.518C154.685 501.518 154.139 501.938 154.139 502.568C154.139 503.226 154.503 503.492 155.847 503.73C157.359 504.01 158.423 504.346 158.423 505.9C158.423 507.23 157.513 508.126 155.735 508.126Z" fill="white"/>
<path d="M30.8515 541.732L29.437 541.31C29.2748 541.262 29.1613 541.098 29.1613 540.912C29.1613 540.685 29.3279 540.5 29.5322 540.5H30.4158C30.5592 540.5 30.6975 540.54 30.8188 540.616C30.9207 540.68 31.0502 540.676 31.1372 540.593L31.5066 540.243C31.6176 540.138 31.6113 539.955 31.4887 539.864C31.2026 539.65 30.8575 539.527 30.5026 539.509V539C30.5026 538.862 30.39 538.75 30.2511 538.75H29.7482C29.6092 538.75 29.4967 538.862 29.4967 539V539.504C28.7542 539.523 28.1554 540.146 28.1554 540.912C28.1554 541.536 28.5634 542.094 29.1481 542.268L30.5626 542.69C30.7248 542.738 30.8383 542.902 30.8383 543.088C30.8383 543.315 30.6717 543.5 30.4674 543.5H29.5838C29.4404 543.5 29.3021 543.46 29.1808 543.384C29.0789 543.32 28.9494 543.324 28.8623 543.407L28.493 543.757C28.382 543.862 28.3883 544.045 28.5109 544.136C28.797 544.35 29.1421 544.473 29.497 544.491V545C29.497 545.138 29.6095 545.25 29.7485 545.25H30.2514C30.3904 545.25 30.5029 545.138 30.5029 545V544.496C31.2454 544.477 31.8442 543.854 31.8442 543.088C31.8442 542.464 31.4362 541.906 30.8515 541.732V541.732ZM30 536C26.7638 536 24.4638 538.611 24.4675 541.508C24.4694 542.891 24.9862 544.153 25.8368 545.118C26.6431 546.032 27.4176 547.521 27.4852 548L27.4871 550.349C27.4871 550.448 27.5166 550.544 27.5713 550.626L28.3418 551.777C28.4352 551.916 28.5923 552 28.7605 552H31.2391C31.4076 552 31.5647 551.916 31.6578 551.777L32.4282 550.626C32.4829 550.544 32.5122 550.447 32.5125 550.349L32.5147 548C32.5857 547.509 33.3631 546.025 34.1631 545.118C35.0153 544.152 35.5324 542.887 35.5324 541.5C35.5324 538.463 33.0554 536 30 536ZM31.5069 550.197L30.9697 551H29.0299L28.4927 550.197L28.4924 550H31.5069V550.197ZM31.5082 549H28.4914L28.4892 548H31.5094L31.5082 549ZM33.4068 544.459C32.967 544.957 32.2648 545.962 31.8168 547H28.1834C27.7351 545.962 27.0332 544.957 26.5934 544.459C25.8664 543.634 25.4775 542.589 25.475 541.5C25.4693 539.094 27.373 537 30 537C32.4958 537 34.5265 539.019 34.5265 541.5C34.5265 542.589 34.1288 543.64 33.4068 544.459Z" fill="#79828D"/>
<path d="M51.446 548.126C48.548 548.126 46.77 546.138 46.77 543.058V542.946C46.77 539.978 48.758 537.836 51.474 537.836C53.56 537.836 55.324 538.942 55.534 541.112H54.33C54.078 539.586 53.196 538.802 51.488 538.802C49.416 538.802 48.03 540.412 48.03 542.932V543.044C48.03 545.592 49.318 547.132 51.474 547.132C53.112 547.132 54.246 546.306 54.498 544.682H55.632C55.282 546.992 53.686 548.126 51.446 548.126ZM62.0406 548.126C58.9606 548.126 57.1966 545.984 57.1966 543.058V542.946C57.1966 540.02 59.1706 537.836 62.0406 537.836C64.0286 537.836 65.8066 538.76 66.1146 541.014H64.8966C64.6166 539.418 63.5246 538.802 62.0686 538.802C59.7726 538.802 58.4566 540.482 58.4566 542.932V543.044C58.4566 545.522 59.6886 547.146 62.0406 547.146C64.2106 547.146 65.1486 545.732 65.1906 543.954H62.2646V542.946H66.3806V543.688C66.3806 546.586 64.6026 548.126 62.0406 548.126ZM72.5241 548V537.99H75.5341C77.3961 537.99 78.7541 538.606 78.7541 540.58V540.636C78.7541 541.546 78.3901 542.358 77.2421 542.75C78.6981 543.1 79.2441 543.842 79.2441 545.144V545.2C79.2441 547.09 77.9561 548 75.9541 548H72.5241ZM73.7141 542.358H75.5341C77.0041 542.358 77.5641 541.826 77.5641 540.594V540.538C77.5641 539.404 76.9061 538.942 75.5061 538.942H73.7141V542.358ZM73.7141 547.048H75.9261C77.3821 547.048 78.0541 546.404 78.0541 545.186V545.13C78.0541 543.898 77.3681 543.31 75.7581 543.31H73.7141V547.048ZM83.827 548.126C82.371 548.126 81.279 547.328 81.279 545.312V540.678H82.441V545.256C82.441 546.544 82.987 547.118 84.135 547.118C85.171 547.118 86.151 546.432 86.151 545.116V540.678H87.313V548H86.151V546.838C85.815 547.524 85.003 548.126 83.827 548.126ZM90.5195 550.548L91.9055 547.244L89.0355 540.678H90.2815L92.5215 545.928L94.5515 540.678H95.7415L91.6955 550.548H90.5195ZM105.927 548.126C102.973 548.126 100.971 545.858 100.971 543.058V542.946C100.971 540.104 102.959 537.864 105.899 537.864C108.839 537.864 110.785 540.104 110.785 542.918V543.03C110.785 545.858 108.839 548.126 105.927 548.126ZM105.927 547.118C108.153 547.118 109.525 545.438 109.525 543.016V542.904C109.525 540.664 108.209 538.844 105.899 538.844C103.575 538.844 102.231 540.552 102.231 542.932V543.044C102.231 545.466 103.841 547.118 105.927 547.118ZM112.924 548V540.678H114.086V541.84C114.422 541.154 115.234 540.552 116.438 540.552C117.95 540.552 119.014 541.378 119.014 543.506V548H117.852V543.422C117.852 542.134 117.306 541.56 116.13 541.56C115.052 541.56 114.086 542.246 114.086 543.562V548H112.924ZM121.52 548V537.178H122.696V548H121.52ZM125.862 539.152C125.442 539.152 125.092 538.802 125.092 538.382C125.092 537.962 125.442 537.612 125.862 537.612C126.282 537.612 126.632 537.962 126.632 538.382C126.632 538.802 126.282 539.152 125.862 539.152ZM125.302 548V540.678H126.464V548H125.302ZM129.042 548V540.678H130.204V541.84C130.54 541.154 131.352 540.552 132.556 540.552C134.068 540.552 135.132 541.378 135.132 543.506V548H133.97V543.422C133.97 542.134 133.424 541.56 132.248 541.56C131.17 541.56 130.204 542.246 130.204 543.562V548H129.042ZM140.605 548.126C138.533 548.126 137.063 546.67 137.063 544.416V544.304C137.063 542.092 138.477 540.552 140.493 540.552C142.187 540.552 143.783 541.574 143.783 544.192V544.57H138.267C138.323 546.236 139.121 547.16 140.619 547.16C141.753 547.16 142.411 546.74 142.565 545.886H143.727C143.475 547.356 142.257 548.126 140.605 548.126ZM138.309 543.632H142.593C142.481 542.12 141.697 541.518 140.493 541.518C139.303 541.518 138.505 542.33 138.309 543.632Z" fill="white"/>
<path d="M47.26 580V569.99H50.27C52.188 569.99 53.77 570.774 53.77 572.776V572.832C53.77 574.484 52.664 575.296 51.292 575.562L54.358 580H53L50.018 575.646H48.478V580H47.26ZM48.478 574.68H50.354C51.782 574.68 52.552 574.064 52.552 572.832V572.776C52.552 571.418 51.712 570.97 50.354 570.97H48.478V574.68ZM58.9579 580.126C56.8859 580.126 55.4159 578.67 55.4159 576.416V576.304C55.4159 574.092 56.8299 572.552 58.8459 572.552C60.5399 572.552 62.1359 573.574 62.1359 576.192V576.57H56.6199C56.6759 578.236 57.4739 579.16 58.9719 579.16C60.1059 579.16 60.7639 578.74 60.9179 577.886H62.0799C61.8279 579.356 60.6099 580.126 58.9579 580.126ZM56.6619 575.632H60.9459C60.8339 574.12 60.0499 573.518 58.8459 573.518C57.6559 573.518 56.8579 574.33 56.6619 575.632ZM66.4553 580.126C64.7053 580.126 63.6553 579.244 63.5853 577.746H64.7193C64.8033 578.614 65.2653 579.16 66.4413 579.16C67.5473 579.16 68.0373 578.782 68.0373 577.998C68.0373 577.228 67.4633 576.976 66.3293 576.766C64.4253 576.416 63.7813 575.884 63.7813 574.61C63.7813 573.252 65.1113 572.552 66.2593 572.552C67.5753 572.552 68.7093 573.084 68.9053 574.666H67.7853C67.6173 573.868 67.1693 573.518 66.2453 573.518C65.4053 573.518 64.8593 573.938 64.8593 574.568C64.8593 575.226 65.2233 575.492 66.5673 575.73C68.0793 576.01 69.1433 576.346 69.1433 577.9C69.1433 579.23 68.2333 580.126 66.4553 580.126ZM74.1099 580.126C72.0379 580.126 70.5679 578.67 70.5679 576.416V576.304C70.5679 574.092 71.9819 572.552 73.9979 572.552C75.6919 572.552 77.2879 573.574 77.2879 576.192V576.57H71.7719C71.8279 578.236 72.6259 579.16 74.1239 579.16C75.2579 579.16 75.9159 578.74 76.0699 577.886H77.2319C76.9799 579.356 75.7619 580.126 74.1099 580.126ZM71.8139 575.632H76.0979C75.9859 574.12 75.2019 573.518 73.9979 573.518C72.8079 573.518 72.0099 574.33 71.8139 575.632ZM79.2709 580V572.678H80.4329V573.994C80.8949 573.168 81.5249 572.594 82.8409 572.552V573.644C81.3709 573.714 80.4329 574.176 80.4329 575.982V580H79.2709ZM86.637 580L83.977 572.678H85.237L87.407 578.824L89.549 572.678H90.753L88.121 580H86.637ZM94.2471 580.126C92.8891 580.126 91.8111 579.468 91.8111 577.97C91.8111 576.276 93.6031 575.702 95.4791 575.702H96.5291V575.17C96.5291 574.008 96.0811 573.518 94.9611 573.518C93.9531 573.518 93.3931 573.938 93.2811 574.834H92.1191C92.2731 573.168 93.6031 572.552 95.0171 572.552C96.4171 572.552 97.6911 573.126 97.6911 575.17V580H96.5291V579.076C95.9831 579.762 95.3251 580.126 94.2471 580.126ZM94.3591 579.202C95.5911 579.202 96.5291 578.572 96.5291 577.438V576.528H95.5211C94.0511 576.528 92.9731 576.892 92.9731 577.97C92.9731 578.726 93.3371 579.202 94.3591 579.202ZM102.4 580.098C101.07 580.098 100.426 579.314 100.426 578.166V573.658H99.3757V572.678H100.426V571.012H101.588V572.678H103.296V573.658H101.588V578.054C101.588 578.768 101.91 579.118 102.498 579.118C102.862 579.118 103.142 579.062 103.394 578.964V579.944C103.156 580.028 102.876 580.098 102.4 580.098ZM105.938 571.152C105.518 571.152 105.168 570.802 105.168 570.382C105.168 569.962 105.518 569.612 105.938 569.612C106.358 569.612 106.708 569.962 106.708 570.382C106.708 570.802 106.358 571.152 105.938 571.152ZM105.378 580V572.678H106.54V580H105.378ZM112.157 580.126C110.071 580.126 108.573 578.544 108.573 576.402V576.29C108.573 574.092 110.099 572.552 112.171 572.552C114.243 572.552 115.769 574.078 115.769 576.276V576.388C115.769 578.6 114.243 580.126 112.157 580.126ZM112.171 579.16C113.641 579.16 114.565 578.054 114.565 576.402V576.304C114.565 574.61 113.627 573.518 112.171 573.518C110.701 573.518 109.777 574.61 109.777 576.29V576.402C109.777 578.068 110.687 579.16 112.171 579.16ZM117.768 580V572.678H118.93V573.84C119.266 573.154 120.078 572.552 121.282 572.552C122.794 572.552 123.858 573.378 123.858 575.506V580H122.696V575.422C122.696 574.134 122.15 573.56 120.974 573.56C119.896 573.56 118.93 574.246 118.93 575.562V580H117.768ZM128.603 580.126C126.853 580.126 125.803 579.244 125.733 577.746H126.867C126.951 578.614 127.413 579.16 128.589 579.16C129.695 579.16 130.185 578.782 130.185 577.998C130.185 577.228 129.611 576.976 128.477 576.766C126.573 576.416 125.929 575.884 125.929 574.61C125.929 573.252 127.259 572.552 128.407 572.552C129.723 572.552 130.857 573.084 131.053 574.666H129.933C129.765 573.868 129.317 573.518 128.393 573.518C127.553 573.518 127.007 573.938 127.007 574.568C127.007 575.226 127.371 575.492 128.715 575.73C130.227 576.01 131.291 576.346 131.291 577.9C131.291 579.23 130.381 580.126 128.603 580.126ZM145.007 574.834L143.369 577.956L145.049 580H143.635L142.641 578.796C142.011 579.524 141.129 580.098 139.869 580.098C138.035 580.098 136.705 579.006 136.705 577.354C136.705 575.772 137.713 574.974 139.001 574.344C138.413 573.588 138.119 572.902 138.119 572.23C138.119 570.718 139.309 569.934 140.569 569.934C141.801 569.934 142.753 570.788 142.753 571.992C142.753 573.21 141.885 574.036 140.611 574.582L142.711 577.144L143.929 574.834H145.007ZM139.239 572.244C139.239 572.748 139.561 573.252 140.107 573.938C141.227 573.434 141.661 572.93 141.661 571.964C141.661 571.32 141.199 570.844 140.527 570.844C139.827 570.844 139.239 571.264 139.239 572.244ZM139.911 579.146C140.709 579.146 141.437 578.782 142.039 578.054L139.547 575.016C138.567 575.492 137.881 576.066 137.881 577.242C137.881 578.446 138.651 579.146 139.911 579.146ZM154.187 580.126C151.513 580.126 150.547 578.656 150.365 576.948H151.541C151.695 578.138 152.171 579.146 154.187 579.146C155.475 579.146 156.469 578.39 156.469 577.256C156.469 576.122 155.951 575.646 154.047 575.338C151.947 575.016 150.701 574.358 150.701 572.58C150.701 571.04 152.031 569.864 153.921 569.864C155.923 569.864 157.169 570.844 157.365 572.622H156.273C156.035 571.362 155.307 570.844 153.921 570.844C152.549 570.844 151.835 571.53 151.835 572.468C151.835 573.448 152.199 573.952 154.243 574.26C156.469 574.61 157.645 575.282 157.645 577.172C157.645 578.852 156.175 580.126 154.187 580.126ZM161.681 580.126C160.323 580.126 159.245 579.468 159.245 577.97C159.245 576.276 161.037 575.702 162.913 575.702H163.963V575.17C163.963 574.008 163.515 573.518 162.395 573.518C161.387 573.518 160.827 573.938 160.715 574.834H159.553C159.707 573.168 161.037 572.552 162.451 572.552C163.851 572.552 165.125 573.126 165.125 575.17V580H163.963V579.076C163.417 579.762 162.759 580.126 161.681 580.126ZM161.793 579.202C163.025 579.202 163.963 578.572 163.963 577.438V576.528H162.955C161.485 576.528 160.407 576.892 160.407 577.97C160.407 578.726 160.771 579.202 161.793 579.202ZM167.635 580V569.178H168.811V580H167.635ZM174.385 580.126C172.313 580.126 170.843 578.67 170.843 576.416V576.304C170.843 574.092 172.257 572.552 174.273 572.552C175.967 572.552 177.563 573.574 177.563 576.192V576.57H172.047C172.103 578.236 172.901 579.16 174.399 579.16C175.533 579.16 176.191 578.74 176.345 577.886H177.507C177.255 579.356 176.037 580.126 174.385 580.126ZM172.089 575.632H176.373C176.261 574.12 175.477 573.518 174.273 573.518C173.083 573.518 172.285 574.33 172.089 575.632ZM181.883 580.126C180.133 580.126 179.083 579.244 179.013 577.746H180.147C180.231 578.614 180.693 579.16 181.869 579.16C182.975 579.16 183.465 578.782 183.465 577.998C183.465 577.228 182.891 576.976 181.757 576.766C179.853 576.416 179.209 575.884 179.209 574.61C179.209 573.252 180.539 572.552 181.687 572.552C183.003 572.552 184.137 573.084 184.333 574.666H183.213C183.045 573.868 182.597 573.518 181.673 573.518C180.833 573.518 180.287 573.938 180.287 574.568C180.287 575.226 180.651 575.492 181.995 575.73C183.507 576.01 184.571 576.346 184.571 577.9C184.571 579.23 183.661 580.126 181.883 580.126ZM190.53 580V569.99H191.748V574.526H197.012V569.99H198.23V580H197.012V575.548H191.748V580H190.53ZM203.351 580.126C201.895 580.126 200.803 579.328 200.803 577.312V572.678H201.965V577.256C201.965 578.544 202.511 579.118 203.659 579.118C204.695 579.118 205.675 578.432 205.675 577.116V572.678H206.837V580H205.675V578.838C205.339 579.524 204.527 580.126 203.351 580.126ZM213.025 580.126C211.835 580.126 210.967 579.524 210.547 578.796V580H209.385V569.178H210.547V573.91C210.967 573.196 211.961 572.552 213.025 572.552C214.943 572.552 216.357 573.952 216.357 576.234V576.346C216.357 578.586 215.041 580.126 213.025 580.126ZM212.913 579.16C214.369 579.16 215.153 578.18 215.153 576.402V576.29C215.153 574.442 214.131 573.518 212.899 573.518C211.541 573.518 210.505 574.414 210.505 576.29V576.402C210.505 578.278 211.485 579.16 212.913 579.16Z" fill="white"/>
<path d="M20.9471 618H31.5089C32.0653 618 32.5148 617.553 32.5148 617V610C32.5148 609.447 32.0653 609 31.5089 609H20.9471C20.3907 609 19.9412 609.447 19.9412 610V617C19.9412 617.553 20.3907 618 20.9471 618ZM20.9471 610H31.5089V617H20.9471V610ZM39.4712 614.416L37.6323 612.588C37.2551 612.213 36.7427 612.003 36.2084 612.003H34.0237C33.7471 612.003 33.5207 612.228 33.5207 612.503V619.003H27.1302C26.7435 618.694 26.2594 618.503 25.7251 618.503C25.0084 618.503 24.3797 618.841 23.9647 619.356C23.5498 618.837 22.9211 618.5 22.2044 618.5C20.9533 618.5 19.9412 619.506 19.9412 620.75C19.9412 621.994 20.9533 623 22.2044 623C22.9211 623 23.5498 622.663 23.9647 622.147C24.3797 622.663 25.0084 623 25.7251 623C26.9761 623 27.9883 621.994 27.9883 620.75C27.9883 620.484 27.9349 620.234 27.85 620H34.074C33.9891 620.412 34.0048 620.862 34.162 621.325C34.426 622.109 35.1019 622.728 35.9097 622.922C37.5695 623.322 39.0531 622.081 39.0531 620.497C39.0531 620.325 39.0343 620.159 39.0029 619.997H39.5561C39.8327 619.997 40.059 619.772 40.059 619.497V615.828C40.059 615.297 39.8484 614.791 39.4712 614.416ZM22.2044 622C21.5097 622 20.9471 621.441 20.9471 620.75C20.9471 620.059 21.5097 619.5 22.2044 619.5C22.8991 619.5 23.4618 620.059 23.4618 620.75C23.4618 621.441 22.8991 622 22.2044 622ZM25.7251 622C25.0304 622 24.4677 621.441 24.4677 620.75C24.4677 620.059 25.0304 619.5 25.7251 619.5C26.4197 619.5 26.9824 620.059 26.9824 620.75C26.9824 621.441 26.4197 622 25.7251 622ZM34.5266 613H36.2084C36.4755 613 36.7302 613.103 36.9188 613.294L38.6351 615H34.5266V613ZM36.5384 622C35.7054 622 35.0296 621.328 35.0296 620.5C35.0296 619.672 35.7054 619 36.5384 619C37.3714 619 38.0473 619.672 38.0473 620.5C38.0473 621.328 37.3714 622 36.5384 622ZM39.0531 619H38.5376C38.0787 618.397 37.3588 618 36.5384 618C35.718 618 34.9981 618.397 34.5392 619H34.5266V616H39.0531V619ZM23.2103 616H23.7133C23.8516 616 23.9647 615.888 23.9647 615.75V611.25C23.9647 611.112 23.8516 611 23.7133 611H23.2103C23.072 611 22.9588 611.112 22.9588 611.25V615.75C22.9588 615.888 23.072 616 23.2103 616ZM26.228 616H26.7309C26.8693 616 26.9824 615.888 26.9824 615.75V611.25C26.9824 611.112 26.8693 611 26.7309 611H26.228C26.0897 611 25.9765 611.112 25.9765 611.25V615.75C25.9765 615.888 26.0897 616 26.228 616ZM29.2457 616H29.7486C29.8869 616 30.0001 615.888 30.0001 615.75V611.25C30.0001 611.112 29.8869 611 29.7486 611H29.2457C29.1074 611 28.9942 611.112 28.9942 611.25V615.75C28.9942 615.888 29.1074 616 29.2457 616Z" fill="#79828D"/>
<path d="M51.446 620.126C48.548 620.126 46.77 618.138 46.77 615.058V614.946C46.77 611.978 48.758 609.836 51.474 609.836C53.56 609.836 55.324 610.942 55.534 613.112H54.33C54.078 611.586 53.196 610.802 51.488 610.802C49.416 610.802 48.03 612.412 48.03 614.932V615.044C48.03 617.592 49.318 619.132 51.474 619.132C53.112 619.132 54.246 618.306 54.498 616.682H55.632C55.282 618.992 53.686 620.126 51.446 620.126ZM59.5733 620.126C58.2153 620.126 57.1373 619.468 57.1373 617.97C57.1373 616.276 58.9293 615.702 60.8053 615.702H61.8553V615.17C61.8553 614.008 61.4073 613.518 60.2873 613.518C59.2793 613.518 58.7193 613.938 58.6073 614.834H57.4453C57.5993 613.168 58.9293 612.552 60.3433 612.552C61.7433 612.552 63.0173 613.126 63.0173 615.17V620H61.8553V619.076C61.3093 619.762 60.6513 620.126 59.5733 620.126ZM59.6853 619.202C60.9173 619.202 61.8553 618.572 61.8553 617.438V616.528H60.8473C59.3773 616.528 58.2993 616.892 58.2993 617.97C58.2993 618.726 58.6633 619.202 59.6853 619.202ZM65.4998 620V612.678H66.6618V613.994C67.1238 613.168 67.7538 612.594 69.0698 612.552V613.644C67.5998 613.714 66.6618 614.176 66.6618 615.982V620H65.4998ZM75.4015 620.126C72.3215 620.126 70.5575 617.984 70.5575 615.058V614.946C70.5575 612.02 72.5315 609.836 75.4015 609.836C77.3895 609.836 79.1675 610.76 79.4755 613.014H78.2575C77.9775 611.418 76.8855 610.802 75.4295 610.802C73.1335 610.802 71.8175 612.482 71.8175 614.932V615.044C71.8175 617.522 73.0495 619.146 75.4015 619.146C77.5715 619.146 78.5095 617.732 78.5515 615.954H75.6255V614.946H79.7415V615.688C79.7415 618.586 77.9635 620.126 75.4015 620.126ZM84.3739 620.126C82.9179 620.126 81.8259 619.328 81.8259 617.312V612.678H82.9879V617.256C82.9879 618.544 83.5339 619.118 84.6819 619.118C85.7179 619.118 86.6979 618.432 86.6979 617.116V612.678H87.8599V620H86.6979V618.838C86.3619 619.524 85.5499 620.126 84.3739 620.126ZM90.4084 620V612.678H91.5704V613.994C92.0324 613.168 92.6624 612.594 93.9784 612.552V613.644C92.5084 613.714 91.5704 614.176 91.5704 615.982V620H90.4084ZM98.3501 620.126C96.8941 620.126 95.8021 619.328 95.8021 617.312V612.678H96.9641V617.256C96.9641 618.544 97.5101 619.118 98.6581 619.118C99.6941 619.118 100.674 618.432 100.674 617.116V612.678H101.836V620H100.674V618.838C100.338 619.524 99.5261 620.126 98.3501 620.126ZM106.653 620.126C104.903 620.126 103.853 619.244 103.783 617.746H104.917C105.001 618.614 105.463 619.16 106.639 619.16C107.745 619.16 108.235 618.782 108.235 617.998C108.235 617.228 107.661 616.976 106.527 616.766C104.623 616.416 103.979 615.884 103.979 614.61C103.979 613.252 105.309 612.552 106.457 612.552C107.773 612.552 108.907 613.084 109.103 614.666H107.983C107.815 613.868 107.367 613.518 106.443 613.518C105.603 613.518 105.057 613.938 105.057 614.568C105.057 615.226 105.421 615.492 106.765 615.73C108.277 616.01 109.341 616.346 109.341 617.9C109.341 619.23 108.431 620.126 106.653 620.126ZM115.3 620V609.99H117.946C121.39 609.99 123.014 612.118 123.014 614.904V615.03C123.014 617.802 121.418 620 117.918 620H115.3ZM116.518 619.006H117.89C120.466 619.006 121.754 617.466 121.754 615.016V614.904C121.754 612.594 120.634 610.97 117.876 610.97H116.518V619.006ZM128.16 620.126C126.088 620.126 124.618 618.67 124.618 616.416V616.304C124.618 614.092 126.032 612.552 128.048 612.552C129.742 612.552 131.338 613.574 131.338 616.192V616.57H125.822C125.878 618.236 126.676 619.16 128.174 619.16C129.308 619.16 129.966 618.74 130.12 617.886H131.282C131.03 619.356 129.812 620.126 128.16 620.126ZM125.864 615.632H130.148C130.036 614.12 129.252 613.518 128.048 613.518C126.858 613.518 126.06 614.33 125.864 615.632ZM133.349 620V609.178H134.525V620H133.349ZM137.691 611.152C137.271 611.152 136.921 610.802 136.921 610.382C136.921 609.962 137.271 609.612 137.691 609.612C138.111 609.612 138.461 609.962 138.461 610.382C138.461 610.802 138.111 611.152 137.691 611.152ZM137.131 620V612.678H138.293V620H137.131ZM142.706 620L140.046 612.678H141.306L143.476 618.824L145.618 612.678H146.822L144.19 620H142.706ZM151.341 620.126C149.269 620.126 147.799 618.67 147.799 616.416V616.304C147.799 614.092 149.213 612.552 151.229 612.552C152.923 612.552 154.519 613.574 154.519 616.192V616.57H149.003C149.059 618.236 149.857 619.16 151.355 619.16C152.489 619.16 153.147 618.74 153.301 617.886H154.463C154.211 619.356 152.993 620.126 151.341 620.126ZM149.045 615.632H153.329C153.217 614.12 152.433 613.518 151.229 613.518C150.039 613.518 149.241 614.33 149.045 615.632ZM156.502 620V612.678H157.664V613.994C158.126 613.168 158.756 612.594 160.072 612.552V613.644C158.602 613.714 157.664 614.176 157.664 615.982V620H156.502ZM162.692 622.548L164.078 619.244L161.208 612.678H162.454L164.694 617.928L166.724 612.678H167.914L163.868 622.548H162.692Z" fill="white"/>
<path d="M51.726 652.126C48.772 652.126 46.77 649.858 46.77 647.058V646.946C46.77 644.104 48.758 641.864 51.698 641.864C54.638 641.864 56.584 644.104 56.584 646.918V647.03C56.584 649.858 54.638 652.126 51.726 652.126ZM51.726 651.118C53.952 651.118 55.324 649.438 55.324 647.016V646.904C55.324 644.664 54.008 642.844 51.698 642.844C49.374 642.844 48.03 644.552 48.03 646.932V647.044C48.03 649.466 49.64 651.118 51.726 651.118ZM58.7237 652V644.678H59.8857V645.994C60.3477 645.168 60.9777 644.594 62.2937 644.552V645.644C60.8237 645.714 59.8857 646.176 59.8857 647.982V652H58.7237ZM66.7402 652.126C64.8222 652.126 63.4362 650.768 63.4362 648.486V648.374C63.4362 646.134 64.8362 644.552 66.8522 644.552C68.0702 644.552 68.8262 645.14 69.2462 645.854V641.178H70.4083V652H69.2462V650.74C68.8262 651.454 67.8042 652.126 66.7402 652.126ZM66.8662 651.16C68.2242 651.16 69.2883 650.264 69.2883 648.388V648.276C69.2883 646.4 68.3922 645.518 66.9642 645.518C65.5082 645.518 64.6402 646.54 64.6402 648.318V648.43C64.6402 650.278 65.6342 651.16 66.8662 651.16ZM75.9556 652.126C73.8836 652.126 72.4136 650.67 72.4136 648.416V648.304C72.4136 646.092 73.8276 644.552 75.8436 644.552C77.5376 644.552 79.1336 645.574 79.1336 648.192V648.57H73.6176C73.6736 650.236 74.4716 651.16 75.9696 651.16C77.1036 651.16 77.7616 650.74 77.9156 649.886H79.0776C78.8256 651.356 77.6076 652.126 75.9556 652.126ZM73.6596 647.632H77.9436C77.8316 646.12 77.0476 645.518 75.8436 645.518C74.6536 645.518 73.8556 646.33 73.6596 647.632ZM81.1166 652V644.678H82.2786V645.994C82.7406 645.168 83.3706 644.594 84.6866 644.552V645.644C83.2166 645.714 82.2786 646.176 82.2786 647.982V652H81.1166Z" fill="white"/>
</g>
<defs>
<filter id="filter0_d_460_2726" x="0" y="0" width="230" height="676" filterUnits="userSpaceOnUse" color-interpolation-filters="sRGB">
<feFlood flood-opacity="0" result="BackgroundImageFix"/>
<feColorMatrix in="SourceAlpha" type="matrix" values="0 0 0 0 0 0 0 0 0 0 0 0 0 0 0 0 0 0 127 0" result="hardAlpha"/>
<feOffset dy="2"/>
<feGaussianBlur stdDeviation="5"/>
<feColorMatrix type="matrix" values="0 0 0 0 0 0 0 0 0 0 0 0 0 0 0 0 0 0 0.15 0"/>
<feBlend mode="normal" in2="BackgroundImageFix" result="effect1_dropShadow_460_2726"/>
<feBlend mode="normal" in="SourceGraphic" in2="effect1_dropShadow_460_2726" result="shape"/>
</filter>
<clipPath id="clip0_460_2726">
<rect width="210" height="656" fill="white" transform="translate(10 8)"/>
</clipPath>
</defs>
</svg>
