<svg width="230" height="676" viewBox="0 0 230 676" fill="none" xmlns="http://www.w3.org/2000/svg">
<path d="M21.26 15V4.99H23.906C27.35 4.99 28.974 7.118 28.974 9.904V10.03C28.974 12.802 27.378 15 23.878 15H21.26ZM22.478 14.006H23.85C26.426 14.006 27.714 12.466 27.714 10.016V9.904C27.714 7.594 26.594 5.97 23.836 5.97H22.478V14.006ZM32.958 15.126C31.6 15.126 30.522 14.468 30.522 12.97C30.522 11.276 32.314 10.702 34.19 10.702H35.24V10.17C35.24 9.008 34.792 8.518 33.672 8.518C32.664 8.518 32.104 8.938 31.992 9.834H30.83C30.984 8.168 32.314 7.552 33.728 7.552C35.128 7.552 36.402 8.126 36.402 10.17V15H35.24V14.076C34.694 14.762 34.036 15.126 32.958 15.126ZM33.07 14.202C34.302 14.202 35.24 13.572 35.24 12.438V11.528H34.232C32.762 11.528 31.684 11.892 31.684 12.97C31.684 13.726 32.048 14.202 33.07 14.202ZM41.1526 15.126C39.4026 15.126 38.3526 14.244 38.2826 12.746H39.4166C39.5006 13.614 39.9626 14.16 41.1386 14.16C42.2446 14.16 42.7346 13.782 42.7346 12.998C42.7346 12.228 42.1606 11.976 41.0266 11.766C39.1226 11.416 38.4786 10.884 38.4786 9.61C38.4786 8.252 39.8086 7.552 40.9566 7.552C42.2726 7.552 43.4066 8.084 43.6026 9.666H42.4826C42.3146 8.868 41.8666 8.518 40.9426 8.518C40.1026 8.518 39.5566 8.938 39.5566 9.568C39.5566 10.226 39.9206 10.492 41.2646 10.73C42.7766 11.01 43.8406 11.346 43.8406 12.9C43.8406 14.23 42.9306 15.126 41.1526 15.126ZM45.8112 15V4.178H46.9732V8.84C47.3092 8.154 48.1212 7.552 49.3252 7.552C50.8372 7.552 51.9012 8.378 51.9012 10.506V15H50.7392V10.422C50.7392 9.134 50.1932 8.56 49.0172 8.56C47.9392 8.56 46.9732 9.246 46.9732 10.562V15H45.8112ZM58.0183 15.126C56.8283 15.126 55.9603 14.524 55.5403 13.796V15H54.3783V4.178H55.5403V8.91C55.9603 8.196 56.9543 7.552 58.0183 7.552C59.9363 7.552 61.3503 8.952 61.3503 11.234V11.346C61.3503 13.586 60.0343 15.126 58.0183 15.126ZM57.9063 14.16C59.3623 14.16 60.1463 13.18 60.1463 11.402V11.29C60.1463 9.442 59.1243 8.518 57.8923 8.518C56.5343 8.518 55.4983 9.414 55.4983 11.29V11.402C55.4983 13.278 56.4783 14.16 57.9063 14.16ZM66.3937 15.126C64.3077 15.126 62.8097 13.544 62.8097 11.402V11.29C62.8097 9.092 64.3357 7.552 66.4077 7.552C68.4797 7.552 70.0057 9.078 70.0057 11.276V11.388C70.0057 13.6 68.4797 15.126 66.3937 15.126ZM66.4077 14.16C67.8777 14.16 68.8017 13.054 68.8017 11.402V11.304C68.8017 9.61 67.8637 8.518 66.4077 8.518C64.9377 8.518 64.0137 9.61 64.0137 11.29V11.402C64.0137 13.068 64.9237 14.16 66.4077 14.16ZM73.8389 15.126C72.4809 15.126 71.4029 14.468 71.4029 12.97C71.4029 11.276 73.1949 10.702 75.0709 10.702H76.1209V10.17C76.1209 9.008 75.6729 8.518 74.5529 8.518C73.5449 8.518 72.9849 8.938 72.8729 9.834H71.7109C71.8649 8.168 73.1949 7.552 74.6089 7.552C76.0089 7.552 77.2829 8.126 77.2829 10.17V15H76.1209V14.076C75.5749 14.762 74.9169 15.126 73.8389 15.126ZM73.9509 14.202C75.1829 14.202 76.1209 13.572 76.1209 12.438V11.528H75.1129C73.6429 11.528 72.5649 11.892 72.5649 12.97C72.5649 13.726 72.9289 14.202 73.9509 14.202ZM79.7655 15V7.678H80.9275V8.994C81.3895 8.168 82.0195 7.594 83.3355 7.552V8.644C81.8655 8.714 80.9275 9.176 80.9275 10.982V15H79.7655ZM87.782 15.126C85.864 15.126 84.478 13.768 84.478 11.486V11.374C84.478 9.134 85.878 7.552 87.894 7.552C89.112 7.552 89.868 8.14 90.288 8.854V4.178H91.45V15H90.288V13.74C89.868 14.454 88.846 15.126 87.782 15.126ZM87.908 14.16C89.266 14.16 90.33 13.264 90.33 11.388V11.276C90.33 9.4 89.434 8.518 88.006 8.518C86.55 8.518 85.682 9.54 85.682 11.318V11.43C85.682 13.278 86.676 14.16 87.908 14.16Z" fill="white"/>
<path d="M229.175 46.811L229.008 46.6446C228.897 46.5345 228.718 46.5345 228.607 46.6446L224 51.2267L219.391 46.6446C219.28 46.5345 219.101 46.5345 218.99 46.6446L218.823 46.811C218.712 46.9212 218.712 47.0993 218.823 47.2095L223.797 52.1571C223.908 52.2673 224.087 52.2673 224.198 52.1571L229.173 47.2095C229.286 47.0993 229.286 46.9212 229.175 46.811Z" fill="white"/>
<path d="M229.175 78.811L229.008 78.6446C228.897 78.5345 228.718 78.5345 228.607 78.6446L224 83.2267L219.391 78.6446C219.28 78.5345 219.101 78.5345 218.99 78.6446L218.823 78.811C218.712 78.9212 218.712 79.0993 218.823 79.2095L223.797 84.1571C223.908 84.2673 224.087 84.2673 224.198 84.1571L229.173 79.2095C229.286 79.0993 229.286 78.9212 229.175 78.811Z" fill="white"/>
<path d="M229.175 116.811L229.008 116.645C228.897 116.534 228.718 116.534 228.607 116.645L224 121.227L219.391 116.645C219.28 116.534 219.101 116.534 218.99 116.645L218.823 116.811C218.712 116.921 218.712 117.099 218.823 117.209L223.797 122.157C223.908 122.267 224.087 122.267 224.198 122.157L229.173 117.209C229.286 117.099 229.286 116.921 229.175 116.811Z" fill="white"/>
<path d="M21.33 53V42.99H22.548V53H21.33ZM25.2588 53V45.678H26.4208V46.84C26.7568 46.154 27.5688 45.552 28.7728 45.552C30.2848 45.552 31.3488 46.378 31.3488 48.506V53H30.1868V48.422C30.1868 47.134 29.6408 46.56 28.4648 46.56C27.3868 46.56 26.4208 47.246 26.4208 48.562V53H25.2588ZM35.5233 53L32.8633 45.678H34.1233L36.2933 51.824L38.4353 45.678H39.6393L37.0073 53H35.5233ZM44.1587 53.126C42.0867 53.126 40.6167 51.67 40.6167 49.416V49.304C40.6167 47.092 42.0307 45.552 44.0467 45.552C45.7407 45.552 47.3367 46.574 47.3367 49.192V49.57H41.8207C41.8767 51.236 42.6747 52.16 44.1727 52.16C45.3067 52.16 45.9647 51.74 46.1187 50.886H47.2807C47.0287 52.356 45.8107 53.126 44.1587 53.126ZM41.8627 48.632H46.1467C46.0347 47.12 45.2507 46.518 44.0467 46.518C42.8567 46.518 42.0587 47.33 41.8627 48.632ZM49.3197 53V45.678H50.4817V46.84C50.8177 46.154 51.6297 45.552 52.8337 45.552C54.3457 45.552 55.4097 46.378 55.4097 48.506V53H54.2477V48.422C54.2477 47.134 53.7017 46.56 52.5257 46.56C51.4477 46.56 50.4817 47.246 50.4817 48.562V53H49.3197ZM60.1129 53.098C58.7829 53.098 58.1389 52.314 58.1389 51.166V46.658H57.0889V45.678H58.1389V44.012H59.3009V45.678H61.0089V46.658H59.3009V51.054C59.3009 51.768 59.6229 52.118 60.2109 52.118C60.5749 52.118 60.8549 52.062 61.1069 51.964V52.944C60.8689 53.028 60.5889 53.098 60.1129 53.098ZM66.1015 53.126C64.0155 53.126 62.5175 51.544 62.5175 49.402V49.29C62.5175 47.092 64.0435 45.552 66.1155 45.552C68.1875 45.552 69.7135 47.078 69.7135 49.276V49.388C69.7135 51.6 68.1875 53.126 66.1015 53.126ZM66.1155 52.16C67.5855 52.16 68.5095 51.054 68.5095 49.402V49.304C68.5095 47.61 67.5715 46.518 66.1155 46.518C64.6455 46.518 63.7215 47.61 63.7215 49.29V49.402C63.7215 51.068 64.6315 52.16 66.1155 52.16ZM71.7127 53V45.678H72.8747V46.994C73.3367 46.168 73.9667 45.594 75.2827 45.552V46.644C73.8127 46.714 72.8747 47.176 72.8747 48.982V53H71.7127ZM77.9027 55.548L79.2887 52.244L76.4187 45.678H77.6647L79.9047 50.928L81.9347 45.678H83.1247L79.0787 55.548H77.9027ZM88.844 53V42.99H90.538L93.632 50.788L96.628 42.99H98.308V53H97.09V44.572L93.772 53H93.394L89.964 44.572V53H88.844ZM102.784 53.126C101.426 53.126 100.348 52.468 100.348 50.97C100.348 49.276 102.14 48.702 104.016 48.702H105.066V48.17C105.066 47.008 104.618 46.518 103.498 46.518C102.49 46.518 101.93 46.938 101.818 47.834H100.656C100.81 46.168 102.14 45.552 103.554 45.552C104.954 45.552 106.228 46.126 106.228 48.17V53H105.066V52.076C104.52 52.762 103.862 53.126 102.784 53.126ZM102.896 52.202C104.128 52.202 105.066 51.572 105.066 50.438V49.528H104.058C102.588 49.528 101.51 49.892 101.51 50.97C101.51 51.726 101.874 52.202 102.896 52.202ZM108.711 53V45.678H109.873V46.84C110.209 46.154 111.021 45.552 112.225 45.552C113.737 45.552 114.801 46.378 114.801 48.506V53H113.639V48.422C113.639 47.134 113.093 46.56 111.917 46.56C110.839 46.56 109.873 47.246 109.873 48.562V53H108.711ZM119.112 53.126C117.754 53.126 116.676 52.468 116.676 50.97C116.676 49.276 118.468 48.702 120.344 48.702H121.394V48.17C121.394 47.008 120.946 46.518 119.826 46.518C118.818 46.518 118.258 46.938 118.146 47.834H116.984C117.138 46.168 118.468 45.552 119.882 45.552C121.282 45.552 122.556 46.126 122.556 48.17V53H121.394V52.076C120.848 52.762 120.19 53.126 119.112 53.126ZM119.224 52.202C120.456 52.202 121.394 51.572 121.394 50.438V49.528H120.386C118.916 49.528 117.838 49.892 117.838 50.97C117.838 51.726 118.202 52.202 119.224 52.202ZM127.965 55.674C125.795 55.674 124.843 54.652 124.647 53.42H125.837C126.005 54.26 126.705 54.694 127.951 54.694C129.393 54.694 130.303 54.008 130.303 52.44V51.376C129.883 52.09 128.889 52.762 127.825 52.762C125.907 52.762 124.493 51.306 124.493 49.29V49.192C124.493 47.204 125.893 45.552 127.909 45.552C129.127 45.552 129.883 46.14 130.303 46.854V45.678H131.465V52.51C131.451 54.638 130.009 55.674 127.965 55.674ZM127.951 51.796C129.309 51.796 130.345 50.844 130.345 49.206V49.108C130.345 47.47 129.449 46.518 128.021 46.518C126.565 46.518 125.697 47.596 125.697 49.136V49.248C125.697 50.844 126.719 51.796 127.951 51.796ZM137.012 53.126C134.94 53.126 133.47 51.67 133.47 49.416V49.304C133.47 47.092 134.884 45.552 136.9 45.552C138.594 45.552 140.19 46.574 140.19 49.192V49.57H134.674C134.73 51.236 135.528 52.16 137.026 52.16C138.16 52.16 138.818 51.74 138.972 50.886H140.134C139.882 52.356 138.664 53.126 137.012 53.126ZM134.716 48.632H139C138.888 47.12 138.104 46.518 136.9 46.518C135.71 46.518 134.912 47.33 134.716 48.632ZM142.173 53V45.678H143.335V46.798C143.671 46.112 144.469 45.552 145.519 45.552C146.457 45.552 147.283 45.944 147.661 46.924C148.165 45.972 149.257 45.552 150.167 45.552C151.483 45.552 152.631 46.336 152.631 48.464V53H151.469V48.38C151.469 47.092 150.923 46.56 149.915 46.56C148.963 46.56 147.983 47.204 147.983 48.52V53H146.821V48.38C146.821 47.092 146.275 46.56 145.267 46.56C144.315 46.56 143.335 47.204 143.335 48.52V53H142.173ZM158.111 53.126C156.039 53.126 154.569 51.67 154.569 49.416V49.304C154.569 47.092 155.983 45.552 157.999 45.552C159.693 45.552 161.289 46.574 161.289 49.192V49.57H155.773C155.829 51.236 156.627 52.16 158.125 52.16C159.259 52.16 159.917 51.74 160.071 50.886H161.233C160.981 52.356 159.763 53.126 158.111 53.126ZM155.815 48.632H160.099C159.987 47.12 159.203 46.518 157.999 46.518C156.809 46.518 156.011 47.33 155.815 48.632ZM163.272 53V45.678H164.434V46.84C164.77 46.154 165.582 45.552 166.786 45.552C168.298 45.552 169.362 46.378 169.362 48.506V53H168.2V48.422C168.2 47.134 167.654 46.56 166.478 46.56C165.4 46.56 164.434 47.246 164.434 48.562V53H163.272ZM174.065 53.098C172.735 53.098 172.091 52.314 172.091 51.166V46.658H171.041V45.678H172.091V44.012H173.253V45.678H174.961V46.658H173.253V51.054C173.253 51.768 173.575 52.118 174.163 52.118C174.527 52.118 174.807 52.062 175.059 51.964V52.944C174.821 53.028 174.541 53.098 174.065 53.098Z" fill="white"/>
<path d="M21.26 91V80.99H22.954L26.048 88.788L29.044 80.99H30.724V91H29.506V82.572L26.188 91H25.81L22.38 82.572V91H21.26ZM35.2002 91.126C33.8422 91.126 32.7642 90.468 32.7642 88.97C32.7642 87.276 34.5562 86.702 36.4322 86.702H37.4822V86.17C37.4822 85.008 37.0342 84.518 35.9142 84.518C34.9062 84.518 34.3462 84.938 34.2342 85.834H33.0722C33.2262 84.168 34.5562 83.552 35.9702 83.552C37.3702 83.552 38.6442 84.126 38.6442 86.17V91H37.4822V90.076C36.9362 90.762 36.2782 91.126 35.2002 91.126ZM35.3122 90.202C36.5442 90.202 37.4822 89.572 37.4822 88.438V87.528H36.4742C35.0042 87.528 33.9262 87.892 33.9262 88.97C33.9262 89.726 34.2902 90.202 35.3122 90.202ZM41.1268 91V83.678H42.2888V84.994C42.7508 84.168 43.3808 83.594 44.6968 83.552V84.644C43.2268 84.714 42.2888 85.176 42.2888 86.982V91H41.1268ZM46.5905 91V80.178H47.7525V87.052L50.7905 83.678H52.1485L49.0125 87.08L52.4145 91H51.0005L47.7525 87.206V91H46.5905ZM56.7318 91.126C54.6598 91.126 53.1898 89.67 53.1898 87.416V87.304C53.1898 85.092 54.6038 83.552 56.6198 83.552C58.3138 83.552 59.9098 84.574 59.9098 87.192V87.57H54.3938C54.4498 89.236 55.2478 90.16 56.7458 90.16C57.8798 90.16 58.5378 89.74 58.6918 88.886H59.8538C59.6018 90.356 58.3838 91.126 56.7318 91.126ZM54.4358 86.632H58.7198C58.6078 85.12 57.8238 84.518 56.6198 84.518C55.4298 84.518 54.6318 85.33 54.4358 86.632ZM64.1188 91.098C62.7888 91.098 62.1448 90.314 62.1448 89.166V84.658H61.0948V83.678H62.1448V82.012H63.3068V83.678H65.0148V84.658H63.3068V89.054C63.3068 89.768 63.6288 90.118 64.2168 90.118C64.5808 90.118 64.8608 90.062 65.1128 89.964V90.944C64.8748 91.028 64.5948 91.098 64.1188 91.098ZM67.6574 82.152C67.2374 82.152 66.8874 81.802 66.8874 81.382C66.8874 80.962 67.2374 80.612 67.6574 80.612C68.0774 80.612 68.4274 80.962 68.4274 81.382C68.4274 81.802 68.0774 82.152 67.6574 82.152ZM67.0974 91V83.678H68.2594V91H67.0974ZM70.8377 91V83.678H71.9997V84.84C72.3357 84.154 73.1477 83.552 74.3517 83.552C75.8637 83.552 76.9277 84.378 76.9277 86.506V91H75.7657V86.422C75.7657 85.134 75.2197 84.56 74.0437 84.56C72.9657 84.56 71.9997 85.246 71.9997 86.562V91H70.8377ZM82.3309 93.674C80.1609 93.674 79.2089 92.652 79.0129 91.42H80.2029C80.3709 92.26 81.0709 92.694 82.3169 92.694C83.7589 92.694 84.6689 92.008 84.6689 90.44V89.376C84.2489 90.09 83.2549 90.762 82.1909 90.762C80.2729 90.762 78.8589 89.306 78.8589 87.29V87.192C78.8589 85.204 80.2589 83.552 82.2749 83.552C83.4929 83.552 84.2489 84.14 84.6689 84.854V83.678H85.8309V90.51C85.8169 92.638 84.3749 93.674 82.3309 93.674ZM82.3169 89.796C83.6749 89.796 84.7109 88.844 84.7109 87.206V87.108C84.7109 85.47 83.8149 84.518 82.3869 84.518C80.9309 84.518 80.0629 85.596 80.0629 87.136V87.248C80.0629 88.844 81.0849 89.796 82.3169 89.796Z" fill="white"/>
<path d="M21.26 129V118.99H22.478V128.006H27.056V129H21.26ZM31.7275 129.126C29.6555 129.126 28.1855 127.67 28.1855 125.416V125.304C28.1855 123.092 29.5995 121.552 31.6155 121.552C33.3095 121.552 34.9055 122.574 34.9055 125.192V125.57H29.3895C29.4455 127.236 30.2435 128.16 31.7415 128.16C32.8755 128.16 33.5335 127.74 33.6875 126.886H34.8495C34.5975 128.356 33.3795 129.126 31.7275 129.126ZM29.4315 124.632H33.7155C33.6035 123.12 32.8195 122.518 31.6155 122.518C30.4255 122.518 29.6275 123.33 29.4315 124.632ZM38.7909 129.126C37.4329 129.126 36.3549 128.468 36.3549 126.97C36.3549 125.276 38.1469 124.702 40.0229 124.702H41.0729V124.17C41.0729 123.008 40.6249 122.518 39.5049 122.518C38.4969 122.518 37.9369 122.938 37.8249 123.834H36.6629C36.8169 122.168 38.1469 121.552 39.5609 121.552C40.9609 121.552 42.2349 122.126 42.2349 124.17V129H41.0729V128.076C40.5269 128.762 39.8689 129.126 38.7909 129.126ZM38.9029 128.202C40.1349 128.202 41.0729 127.572 41.0729 126.438V125.528H40.0649C38.5949 125.528 37.5169 125.892 37.5169 126.97C37.5169 127.726 37.8809 128.202 38.9029 128.202ZM47.4754 129.126C45.5574 129.126 44.1714 127.768 44.1714 125.486V125.374C44.1714 123.134 45.5714 121.552 47.5874 121.552C48.8054 121.552 49.5614 122.14 49.9814 122.854V118.178H51.1434V129H49.9814V127.74C49.5614 128.454 48.5394 129.126 47.4754 129.126ZM47.6014 128.16C48.9594 128.16 50.0234 127.264 50.0234 125.388V125.276C50.0234 123.4 49.1274 122.518 47.6994 122.518C46.2434 122.518 45.3754 123.54 45.3754 125.318V125.43C45.3754 127.278 46.3694 128.16 47.6014 128.16ZM55.9627 129.126C54.2127 129.126 53.1627 128.244 53.0927 126.746H54.2267C54.3107 127.614 54.7727 128.16 55.9487 128.16C57.0547 128.16 57.5447 127.782 57.5447 126.998C57.5447 126.228 56.9707 125.976 55.8367 125.766C53.9327 125.416 53.2887 124.884 53.2887 123.61C53.2887 122.252 54.6187 121.552 55.7667 121.552C57.0827 121.552 58.2167 122.084 58.4127 123.666H57.2927C57.1247 122.868 56.6767 122.518 55.7527 122.518C54.9127 122.518 54.3667 122.938 54.3667 123.568C54.3667 124.226 54.7307 124.492 56.0747 124.73C57.5867 125.01 58.6507 125.346 58.6507 126.9C58.6507 128.23 57.7407 129.126 55.9627 129.126Z" fill="white"/>
<path d="M26.412 159.537C26.37 159.607 26.3233 159.661 26.272 159.698C26.2253 159.731 26.167 159.747 26.097 159.747C26.0177 159.747 25.9243 159.707 25.817 159.628C25.7097 159.549 25.5743 159.462 25.411 159.369C25.2523 159.271 25.0587 159.182 24.83 159.103C24.606 159.024 24.333 158.984 24.011 158.984C23.7077 158.984 23.4393 159.026 23.206 159.11C22.9773 159.189 22.7837 159.299 22.625 159.439C22.471 159.579 22.3543 159.745 22.275 159.936C22.1957 160.123 22.156 160.326 22.156 160.545C22.156 160.825 22.2237 161.058 22.359 161.245C22.499 161.427 22.681 161.583 22.905 161.714C23.1337 161.845 23.3903 161.959 23.675 162.057C23.9643 162.15 24.2583 162.248 24.557 162.351C24.8603 162.454 25.1543 162.57 25.439 162.701C25.7283 162.827 25.985 162.988 26.209 163.184C26.4377 163.38 26.6197 163.62 26.755 163.905C26.895 164.19 26.965 164.54 26.965 164.955C26.965 165.394 26.8903 165.807 26.741 166.194C26.5917 166.577 26.3723 166.91 26.083 167.195C25.7983 167.48 25.446 167.704 25.026 167.867C24.6107 168.03 24.137 168.112 23.605 168.112C22.9517 168.112 22.359 167.995 21.827 167.762C21.295 167.524 20.84 167.204 20.462 166.803L20.854 166.159C20.8913 166.108 20.9357 166.066 20.987 166.033C21.043 165.996 21.1037 165.977 21.169 165.977C21.2297 165.977 21.2973 166.003 21.372 166.054C21.4513 166.101 21.54 166.161 21.638 166.236C21.736 166.311 21.848 166.392 21.974 166.481C22.1 166.57 22.2423 166.651 22.401 166.726C22.5643 166.801 22.7487 166.864 22.954 166.915C23.1593 166.962 23.3903 166.985 23.647 166.985C23.969 166.985 24.256 166.941 24.508 166.852C24.76 166.763 24.9723 166.64 25.145 166.481C25.3223 166.318 25.4577 166.124 25.551 165.9C25.6443 165.676 25.691 165.426 25.691 165.151C25.691 164.848 25.621 164.6 25.481 164.409C25.3457 164.213 25.166 164.05 24.942 163.919C24.718 163.788 24.4613 163.679 24.172 163.59C23.8827 163.497 23.5887 163.403 23.29 163.31C22.9913 163.212 22.6973 163.1 22.408 162.974C22.1187 162.848 21.862 162.685 21.638 162.484C21.414 162.283 21.232 162.034 21.092 161.735C20.9567 161.432 20.889 161.058 20.889 160.615C20.889 160.26 20.9567 159.917 21.092 159.586C21.232 159.255 21.4327 158.961 21.694 158.704C21.96 158.447 22.2843 158.242 22.667 158.088C23.0543 157.934 23.4977 157.857 23.997 157.857C24.557 157.857 25.0657 157.946 25.523 158.123C25.985 158.3 26.391 158.557 26.741 158.893L26.412 159.537ZM33.2935 163.681C33.2935 163.392 33.2515 163.128 33.1675 162.89C33.0882 162.647 32.9692 162.44 32.8105 162.267C32.6565 162.09 32.4675 161.954 32.2435 161.861C32.0195 161.763 31.7652 161.714 31.4805 161.714C30.8832 161.714 30.4095 161.889 30.0595 162.239C29.7142 162.584 29.4995 163.065 29.4155 163.681H33.2935ZM34.3015 167.006C34.1475 167.193 33.9632 167.356 33.7485 167.496C33.5339 167.631 33.3029 167.743 33.0555 167.832C32.8129 167.921 32.5609 167.986 32.2995 168.028C32.0382 168.075 31.7792 168.098 31.5225 168.098C31.0325 168.098 30.5799 168.016 30.1645 167.853C29.7539 167.685 29.3969 167.442 29.0935 167.125C28.7949 166.803 28.5615 166.406 28.3935 165.935C28.2255 165.464 28.1415 164.922 28.1415 164.311C28.1415 163.816 28.2162 163.354 28.3655 162.925C28.5195 162.496 28.7389 162.125 29.0235 161.812C29.3082 161.495 29.6559 161.247 30.0665 161.07C30.4772 160.888 30.9392 160.797 31.4525 160.797C31.8772 160.797 32.2692 160.869 32.6285 161.014C32.9925 161.154 33.3052 161.359 33.5665 161.63C33.8325 161.896 34.0402 162.227 34.1895 162.624C34.3389 163.016 34.4135 163.464 34.4135 163.968C34.4135 164.164 34.3925 164.295 34.3505 164.36C34.3085 164.425 34.2292 164.458 34.1125 164.458H29.3735C29.3875 164.906 29.4482 165.296 29.5555 165.627C29.6675 165.958 29.8215 166.236 30.0175 166.46C30.2135 166.679 30.4469 166.845 30.7175 166.957C30.9882 167.064 31.2915 167.118 31.6275 167.118C31.9402 167.118 32.2085 167.083 32.4325 167.013C32.6612 166.938 32.8572 166.859 33.0205 166.775C33.1839 166.691 33.3192 166.614 33.4265 166.544C33.5385 166.469 33.6342 166.432 33.7135 166.432C33.8162 166.432 33.8955 166.472 33.9515 166.551L34.3015 167.006ZM46.8723 168H45.6263V161.952H42.1123V166.208C42.1123 166.507 42.1847 166.728 42.3293 166.873C42.4787 167.018 42.6653 167.09 42.8893 167.09C43.02 167.09 43.132 167.074 43.2253 167.041C43.3233 167.004 43.4073 166.964 43.4773 166.922C43.5473 166.88 43.6057 166.843 43.6523 166.81C43.7037 166.773 43.748 166.754 43.7853 166.754C43.8553 166.754 43.9137 166.794 43.9603 166.873L44.3313 167.468C44.112 167.669 43.8507 167.827 43.5473 167.944C43.244 168.056 42.9313 168.112 42.6093 168.112C42.054 168.112 41.6247 167.956 41.3213 167.643C41.018 167.33 40.8663 166.88 40.8663 166.292V161.952H37.5693V166.208C37.5693 166.507 37.6417 166.728 37.7863 166.873C37.931 167.018 38.1177 167.09 38.3463 167.09C38.477 167.09 38.589 167.074 38.6823 167.041C38.7803 167.004 38.8643 166.964 38.9343 166.922C39.0043 166.88 39.0627 166.843 39.1093 166.81C39.1607 166.773 39.205 166.754 39.2423 166.754C39.3077 166.754 39.366 166.794 39.4173 166.873L39.7813 167.468C39.5667 167.669 39.3077 167.827 39.0043 167.944C38.701 168.056 38.3883 168.112 38.0663 168.112C37.5063 168.112 37.0747 167.956 36.7713 167.643C36.4727 167.33 36.3233 166.88 36.3233 166.292V161.952H35.4693C35.3947 161.952 35.3317 161.931 35.2803 161.889C35.229 161.842 35.2033 161.772 35.2033 161.679V161.182L36.3653 161.028L36.6523 158.844C36.6663 158.774 36.6967 158.718 36.7433 158.676C36.7947 158.629 36.86 158.606 36.9393 158.606H37.5693V161.049H40.9083L41.1953 158.844C41.2093 158.774 41.2397 158.718 41.2863 158.676C41.3377 158.629 41.403 158.606 41.4823 158.606H42.1123V161.049H46.8723V168ZM47.1593 158.634C47.1593 158.755 47.1337 158.87 47.0823 158.977C47.0357 159.08 46.9703 159.171 46.8863 159.25C46.807 159.329 46.7137 159.392 46.6063 159.439C46.499 159.486 46.3847 159.509 46.2633 159.509C46.142 159.509 46.0277 159.486 45.9203 159.439C45.8177 159.392 45.7267 159.329 45.6473 159.25C45.568 159.171 45.505 159.08 45.4583 158.977C45.4117 158.87 45.3883 158.755 45.3883 158.634C45.3883 158.513 45.4117 158.398 45.4583 158.291C45.505 158.179 45.568 158.083 45.6473 158.004C45.7267 157.92 45.8177 157.855 45.9203 157.808C46.0277 157.761 46.142 157.738 46.2633 157.738C46.3847 157.738 46.499 157.761 46.6063 157.808C46.7137 157.855 46.807 157.92 46.8863 158.004C46.9703 158.083 47.0357 158.179 47.0823 158.291C47.1337 158.398 47.1593 158.513 47.1593 158.634ZM50.0946 161.938C50.2486 161.765 50.412 161.609 50.5846 161.469C50.7573 161.329 50.9393 161.21 51.1306 161.112C51.3266 161.009 51.532 160.932 51.7466 160.881C51.966 160.825 52.2016 160.797 52.4536 160.797C52.841 160.797 53.1816 160.862 53.4756 160.993C53.7743 161.119 54.0216 161.301 54.2176 161.539C54.4183 161.772 54.57 162.055 54.6726 162.386C54.7753 162.717 54.8266 163.084 54.8266 163.485V168H53.5736V163.485C53.5736 162.948 53.45 162.533 53.2026 162.239C52.96 161.94 52.589 161.791 52.0896 161.791C51.721 161.791 51.3756 161.88 51.0536 162.057C50.7363 162.234 50.4423 162.475 50.1716 162.778V168H48.9186V160.909H49.6676C49.845 160.909 49.9546 160.995 49.9966 161.168L50.0946 161.938ZM59.1963 164.535C59.4483 164.535 59.6699 164.5 59.8613 164.43C60.0526 164.36 60.2136 164.262 60.3443 164.136C60.4749 164.01 60.5729 163.861 60.6383 163.688C60.7036 163.511 60.7363 163.317 60.7363 163.107C60.7363 162.673 60.6033 162.328 60.3373 162.071C60.0759 161.814 59.6956 161.686 59.1963 161.686C58.6923 161.686 58.3073 161.814 58.0413 162.071C57.7799 162.328 57.6493 162.673 57.6493 163.107C57.6493 163.317 57.6819 163.511 57.7473 163.688C57.8173 163.861 57.9176 164.01 58.0483 164.136C58.1789 164.262 58.3399 164.36 58.5313 164.43C58.7226 164.5 58.9443 164.535 59.1963 164.535ZM61.4433 168.385C61.4433 168.212 61.3943 168.072 61.2963 167.965C61.1983 167.858 61.0653 167.774 60.8973 167.713C60.7339 167.652 60.5426 167.61 60.3233 167.587C60.1039 167.559 59.8706 167.538 59.6233 167.524C59.3806 167.51 59.1333 167.496 58.8813 167.482C58.6293 167.468 58.3866 167.445 58.1533 167.412C57.8919 167.533 57.6773 167.687 57.5093 167.874C57.3459 168.056 57.2643 168.271 57.2643 168.518C57.2643 168.677 57.3039 168.824 57.3833 168.959C57.4673 169.099 57.5933 169.218 57.7613 169.316C57.9293 169.419 58.1393 169.498 58.3913 169.554C58.6479 169.615 58.9489 169.645 59.2943 169.645C59.6303 169.645 59.9313 169.615 60.1973 169.554C60.4633 169.493 60.6873 169.407 60.8693 169.295C61.0559 169.183 61.1983 169.05 61.2963 168.896C61.3943 168.742 61.4433 168.572 61.4433 168.385ZM62.7103 161.189V161.651C62.7103 161.805 62.6123 161.903 62.4163 161.945L61.6113 162.05C61.7699 162.358 61.8493 162.699 61.8493 163.072C61.8493 163.417 61.7816 163.732 61.6463 164.017C61.5156 164.297 61.3336 164.537 61.1003 164.738C60.8669 164.939 60.5869 165.093 60.2603 165.2C59.9336 165.307 59.5789 165.361 59.1963 165.361C58.8649 165.361 58.5523 165.321 58.2583 165.242C58.1089 165.335 57.9946 165.436 57.9153 165.543C57.8359 165.646 57.7963 165.751 57.7963 165.858C57.7963 166.026 57.8639 166.154 57.9993 166.243C58.1393 166.327 58.3213 166.388 58.5453 166.425C58.7693 166.462 59.0236 166.486 59.3083 166.495C59.5976 166.504 59.8916 166.521 60.1903 166.544C60.4936 166.563 60.7876 166.598 61.0723 166.649C61.3616 166.7 61.6183 166.784 61.8423 166.901C62.0663 167.018 62.2459 167.179 62.3813 167.384C62.5213 167.589 62.5913 167.855 62.5913 168.182C62.5913 168.485 62.5143 168.779 62.3603 169.064C62.2109 169.349 61.9939 169.601 61.7093 169.82C61.4246 170.044 61.0746 170.221 60.6593 170.352C60.2486 170.487 59.7843 170.555 59.2663 170.555C58.7483 170.555 58.2956 170.504 57.9083 170.401C57.5209 170.298 57.1989 170.161 56.9423 169.988C56.6856 169.815 56.4919 169.615 56.3613 169.386C56.2353 169.162 56.1723 168.926 56.1723 168.679C56.1723 168.329 56.2819 168.033 56.5013 167.79C56.7206 167.547 57.0216 167.354 57.4043 167.209C57.1943 167.116 57.0263 166.992 56.9003 166.838C56.7789 166.679 56.7183 166.467 56.7183 166.201C56.7183 166.098 56.7369 165.993 56.7743 165.886C56.8116 165.774 56.8676 165.664 56.9423 165.557C57.0216 165.445 57.1173 165.34 57.2293 165.242C57.3413 165.144 57.4719 165.058 57.6213 164.983C57.2713 164.787 56.9983 164.528 56.8023 164.206C56.6063 163.879 56.5083 163.501 56.5083 163.072C56.5083 162.727 56.5736 162.414 56.7043 162.134C56.8396 161.849 57.0263 161.609 57.2643 161.413C57.5023 161.212 57.7846 161.058 58.1113 160.951C58.4426 160.844 58.8043 160.79 59.1963 160.79C59.5043 160.79 59.7913 160.825 60.0573 160.895C60.3233 160.96 60.5659 161.058 60.7853 161.189H62.7103ZM68.1287 162.078C68.0727 162.181 67.9864 162.232 67.8697 162.232C67.7997 162.232 67.7204 162.206 67.6317 162.155C67.5431 162.104 67.4334 162.048 67.3027 161.987C67.1767 161.922 67.0251 161.863 66.8477 161.812C66.6704 161.756 66.4604 161.728 66.2177 161.728C66.0077 161.728 65.8187 161.756 65.6507 161.812C65.4827 161.863 65.3381 161.936 65.2167 162.029C65.1001 162.122 65.0091 162.232 64.9437 162.358C64.8831 162.479 64.8527 162.612 64.8527 162.757C64.8527 162.939 64.9041 163.091 65.0067 163.212C65.1141 163.333 65.2541 163.438 65.4267 163.527C65.5994 163.616 65.7954 163.695 66.0147 163.765C66.2341 163.83 66.4581 163.903 66.6867 163.982C66.9201 164.057 67.1464 164.141 67.3657 164.234C67.5851 164.327 67.7811 164.444 67.9537 164.584C68.1264 164.724 68.2641 164.897 68.3667 165.102C68.4741 165.303 68.5277 165.545 68.5277 165.83C68.5277 166.157 68.4694 166.46 68.3527 166.74C68.2361 167.015 68.0634 167.256 67.8347 167.461C67.6061 167.662 67.3261 167.82 66.9947 167.937C66.6634 168.054 66.2807 168.112 65.8467 168.112C65.3521 168.112 64.9041 168.033 64.5027 167.874C64.1014 167.711 63.7607 167.503 63.4807 167.251L63.7747 166.775C63.8121 166.714 63.8564 166.668 63.9077 166.635C63.9591 166.602 64.0244 166.586 64.1037 166.586C64.1877 166.586 64.2764 166.619 64.3697 166.684C64.4631 166.749 64.5751 166.822 64.7057 166.901C64.8411 166.98 65.0044 167.053 65.1957 167.118C65.3871 167.183 65.6251 167.216 65.9097 167.216C66.1524 167.216 66.3647 167.186 66.5467 167.125C66.7287 167.06 66.8804 166.973 67.0017 166.866C67.1231 166.759 67.2117 166.635 67.2677 166.495C67.3284 166.355 67.3587 166.206 67.3587 166.047C67.3587 165.851 67.3051 165.69 67.1977 165.564C67.0951 165.433 66.9574 165.324 66.7847 165.235C66.6121 165.142 66.4137 165.062 66.1897 164.997C65.9704 164.927 65.7441 164.855 65.5107 164.78C65.2821 164.705 65.0557 164.621 64.8317 164.528C64.6124 164.43 64.4164 164.309 64.2437 164.164C64.0711 164.019 63.9311 163.842 63.8237 163.632C63.7211 163.417 63.6697 163.158 63.6697 162.855C63.6697 162.584 63.7257 162.325 63.8377 162.078C63.9497 161.826 64.1131 161.607 64.3277 161.42C64.5424 161.229 64.8061 161.077 65.1187 160.965C65.4314 160.853 65.7884 160.797 66.1897 160.797C66.6564 160.797 67.0741 160.872 67.4427 161.021C67.8161 161.166 68.1381 161.366 68.4087 161.623L68.1287 162.078Z" fill="white"/>
</svg>
